<svg class="main-svg" xmlns="http://www.w3.org/2000/svg" xmlns:xlink="http://www.w3.org/1999/xlink" width="600" height="300" style="" viewBox="0 0 600 300"><rect x="0" y="0" width="600" height="300" style="fill: rgb(255, 255, 255); fill-opacity: 1;"/><defs id="defs-8e5b37"><g class="clips"><clipPath id="clip8e5b37xyplot" class="plotclip"><rect width="440" height="120"/></clipPath><clipPath class="axesclip" id="clip8e5b37x"><rect x="80" y="0" width="440" height="300"/></clipPath><clipPath class="axesclip" id="clip8e5b37y"><rect x="0" y="100" width="600" height="120"/></clipPath><clipPath class="axesclip" id="clip8e5b37xy"><rect x="80" y="100" width="440" height="120"/></clipPath></g><g class="gradients"/><g class="patterns"/></defs><g class="bglayer"/><g class="layer-below"><g class="imagelayer"/><g class="shapelayer"/></g><g class="cartesianlayer"><g class="subplot xy"><g class="layer-subplot"><g class="shapelayer"/><g class="imagelayer"/></g><g class="minor-gridlayer"><g class="x"/><g class="y"/></g><g class="gridlayer"><g class="x"><path class="xgrid crisp" transform="translate(135.07,0)" d="M0,100v120" style="stroke: rgb(235, 240, 248); stroke-opacity: 1; stroke-width: 1px;"/><path class="xgrid crisp" transform="translate(245.22,0)" d="M0,100v120" style="stroke: rgb(235, 240, 248); stroke-opacity: 1; stroke-width: 1px;"/><path class="xgrid crisp" transform="translate(355.36,0)" d="M0,100v120" style="stroke: rgb(235, 240, 248); stroke-opacity: 1; stroke-width: 1px;"/><path class="xgrid crisp" transform="translate(465.5,0)" d="M0,100v120" style="stroke: rgb(235, 240, 248); stroke-opacity: 1; stroke-width: 1px;"/></g><g class="y"><path class="ygrid crisp" transform="translate(0,207.56)" d="M80,0h440" style="stroke: rgb(235, 240, 248); stroke-opacity: 1; stroke-width: 1px;"/><path class="ygrid crisp" transform="translate(0,175.36)" d="M80,0h440" style="stroke: rgb(235, 240, 248); stroke-opacity: 1; stroke-width: 1px;"/><path class="ygrid crisp" transform="translate(0,110.96000000000001)" d="M80,0h440" style="stroke: rgb(235, 240, 248); stroke-opacity: 1; stroke-width: 1px;"/></g></g><g class="zerolinelayer"><path class="yzl zl crisp" transform="translate(0,143.16)" d="M80,0h440" style="stroke: rgb(235, 240, 248); stroke-opacity: 1; stroke-width: 2px;"/></g><path class="xlines-below"/><path class="ylines-below"/><g class="overlines-below"/><g class="xaxislayer-below"/><g class="yaxislayer-below"/><g class="overaxes-below"/><g class="plot" transform="translate(80,100)" clip-path="url(#clip8e5b37xyplot)"><g class="scatterlayer mlayer"><g class="trace scatter trace9ac8f6" style="stroke-miterlimit: 2; opacity: 1;"><g class="fills"/><g class="errorbars"/><g class="lines"><path class="js-line" d="M0,36.8L0.57,38.95L1.15,35.82L2.29,36.59L2.87,34.53L3.44,34.66L4.02,33.43L4.59,34.79L5.16,41.36L6.31,37.96L6.88,39.6L8.03,38.22L8.6,33.63L9.18,37.41L9.75,29.18L10.33,36.2L10.9,29.83L11.47,31.37L12.05,25.06L13.19,29.57L13.77,21.97L14.34,22.29L14.92,26.42L15.49,25.77L16.06,28.03L16.64,28.28L17.21,26.61L17.78,25L18.36,28.28L19.5,28.73L20.08,33.89L20.65,35.11L21.23,42.71L22.37,43.09L22.95,47.54L24.09,48.12L24.67,45.61L26.39,51.53L26.96,56.04L27.54,56.04L28.11,66.34L30.4,61.84L30.98,61.19L32.13,66.99L32.7,62.48L33.27,63.77L33.85,63.12L34.99,60.55L35.57,60.55L37.29,54.11L37.86,48.89L38.44,54.75L39.01,48.31L39.58,45.86L40.16,50.24L40.73,42.86L41.3,47.54L41.88,44.7L42.45,48.83L43.02,50.24L43.6,48.12L44.17,57.97L44.75,56.04L45.32,53.46L45.89,57.33L46.47,56.04L47.61,68.28L48.19,63.77L48.76,61.19L49.34,62.48L49.91,70.21L50.48,65.7L51.06,66.99L51.63,66.34L52.2,68.28L52.78,66.34L53.35,67.63L53.92,66.99L55.07,67.63L55.65,65.7L57.94,58.62L58.51,60.55L60.23,57.33L60.81,58.62L61.96,60.55L62.53,59.26L64.25,54.75L64.82,52.82L65.4,52.82L65.97,51.53L67.12,49.47L67.69,48.96L68.84,45.48L69.41,47.6L69.99,42.58L70.56,43.14L71.13,41.12L71.71,42.45L72.28,39.98L72.86,40.13L73.43,38.99L74,39.53L74.58,46.77L75.15,46.77L75.72,48.96L76.87,46.96L77.44,50.24L78.02,46.7L78.59,51.53L79.17,56.68L79.74,53.46L81.46,59.9L82.03,58.62L83.18,66.99L83.75,63.77L85.48,52.82L86.05,50.89L86.62,56.04L87.2,52.82L87.77,54.11L88.34,50.24L90.07,40.07L90.64,43.37L91.21,46.31L91.79,38.73L92.36,37.96L92.93,39.53L94.08,43.44L94.65,39.19L95.8,36.46L96.38,38.2L96.95,37.67L97.52,39.87L98.1,35.37L98.67,38.54L99.24,40.69L99.82,38.57L100.39,36.59L100.96,41.01L101.54,36.72L102.11,40.31L103.26,37.58L103.83,38.61L104.41,37.56L104.98,39.21L106.13,40.02L106.7,38.26L107.85,44.9L108.42,39.87L109,40.26L109.57,41.74L110.14,38.22L110.72,39.17L111.29,39.75L112.44,40.22L113.01,39.55L114.73,31.95L115.31,33.63L115.88,35.75L116.45,32.28L117.03,34.98L117.6,32.98L118.17,33.95L118.75,31.44L119.32,31.31L119.9,32.4L121.62,28.8L122.19,30.6L123.34,31.82L123.91,30.09L125.06,32.6L125.63,31.63L126.21,30.47L126.78,32.08L127.35,32.21L127.93,36.08L129.65,31.12L130.22,34.53L131.37,39.12L131.94,39.44L132.52,36.2L133.09,37.86L133.66,38.12L134.24,39.49L134.81,39.68L135.38,41.98L135.96,43.18L136.53,46.38L139.4,57.97L139.97,65.06L142.84,81.8L143.42,84.38L145.14,78.58L145.71,80.51L146.86,71.5L147.43,74.07L148.01,71.5L148.58,74.07L150.87,50.24L151.45,50.89L153.17,54.75L153.74,61.19L154.32,58.62L154.89,59.26L155.46,59.9L156.04,60.55L156.61,59.9L157.18,57.33L157.76,57.97L158.33,61.19L158.9,61.19L159.48,65.06L160.05,61.84L160.63,63.12L161.77,70.21L162.35,78.58L163.49,81.8L164.07,81.16L165.22,77.29L165.79,81.8L166.36,81.8L166.94,83.09L169.8,89.53L170.38,88.88L172.1,86.95L172.67,85.02L173.25,86.31L173.82,85.66L174.39,81.8L174.97,82.44L175.54,83.09L176.69,88.24L177.26,84.38L178.41,87.6L178.98,84.38L179.56,84.38L180.13,79.87L181.28,86.31L181.85,72.14L183.57,88.88L184.15,81.16L184.72,96.61L185.29,88.88L187.01,107.56L187.59,105.63L188.16,107.56L188.74,106.27L189.31,106.27L189.88,92.1L190.46,107.56L191.03,106.27L191.6,98.54L192.18,100.48L192.75,107.56L193.32,107.56L193.9,87.6L195.05,61.19L195.62,81.8L196.19,114L196.77,107.56L197.34,97.9L197.91,79.87L198.49,93.39L199.63,50.89L200.21,54.75L201.93,83.73L202.5,69.56L203.08,69.56L203.65,64.41L204.22,49.34L204.8,59.9L207.67,70.21L208.24,66.34L208.81,63.77L209.39,71.5L210.53,72.78L211.11,68.92L212.83,73.43L213.4,72.14L213.98,66.99L214.55,72.78L215.12,72.78L215.7,77.29L216.27,79.22L216.84,75.36L219.14,48.31L219.71,64.41L220.86,79.22L221.43,76L222.01,79.22L222.58,78.58L223.16,79.22L223.73,74.72L224.3,78.58L226.6,73.43L227.17,70.85L227.74,68.92L228.32,73.43L229.47,66.99L230.04,49.53L231.19,39.73L231.76,50.89L232.33,49.6L232.91,36.89L233.48,46.57L234.05,32.21L234.63,46.83L235.2,37.69L235.78,42.52L236.35,34.66L238.07,22.36L238.64,19.72L239.22,42.21L239.79,29.7L241.51,76L242.09,75.36L242.66,75.36L243.23,72.14L243.81,61.84L244.95,70.85L245.53,67.63L246.1,64.41L246.68,56.68L247.82,74.72L248.4,70.85L248.97,74.07L249.54,54.75L250.12,52.18L250.69,59.26L251.26,62.48L251.84,88.88L252.41,83.73L252.99,68.92L253.56,56.04L254.13,66.99L254.71,67.63L255.28,75.36L255.85,75.36L256.43,65.06L258.15,40.56L258.72,44.58L259.3,61.19L259.87,49.41L260.44,54.11L261.02,46.64L262.16,45.22L262.74,35.24L264.46,49.6L265.03,41.81L266.18,64.41L266.75,60.55L267.33,55.4L267.9,59.9L268.47,64.41L269.05,61.19L269.62,58.62L270.2,59.9L270.77,57.97L271.34,69.56L273.06,39.28L273.64,28.8L274.78,62.48L275.36,43.59L275.93,29.38L276.51,45.28L277.65,31.7L278.23,45.09L278.8,47.6L279.37,43.78L280.52,77.29L281.1,74.07L281.67,72.14L282.24,74.72L285.11,20.1L285.68,22.29L286.26,44.13L286.83,39.04L287.41,36.08L288.55,30.79L289.13,31.89L290.27,52.82L290.85,40.58L291.42,54.75L291.99,51.53L292.57,62.48L293.14,63.77L293.72,68.28L296.01,79.87L296.58,74.72L297.73,72.78L298.31,63.12L298.88,76.65L299.45,66.99L300.6,79.87L301.17,73.43L301.75,63.12L302.32,72.78L302.89,74.07L303.47,65.7L304.04,74.07L304.62,65.06L305.19,50.89L305.76,57.33L306.34,57.33L306.91,49.41L308.06,68.92L308.63,57.97L309.2,60.55L309.78,68.28L310.35,55.4L310.93,72.78L311.5,75.36L312.07,72.78L312.65,72.78L313.22,68.92L313.79,69.56L314.37,68.28L315.51,43.37L316.09,42.69L316.66,56.04L317.24,48.5L317.81,56.04L318.38,45.22L318.96,34.66L319.53,35.56L320.1,52.18L321.25,44.45L321.83,32.98L322.4,44L322.97,28.67L324.12,54.75L324.69,47.86L325.84,34.59L326.41,40.89L328.14,51.53L328.71,51.53L329.86,57.33L330.43,52.82L331.58,62.48L332.15,33.89L333.3,24.35L333.87,35.11L334.45,36.2L335.02,31.82L336.17,39.02L336.74,41.36L337.31,42.67L337.89,30.47L338.46,28.15L339.04,30.86L339.61,28.86L340.18,41.25L341.33,25.84L341.9,29.89L344.2,6L344.77,7.29L346.49,17.85L347.07,16.05L347.64,16.75L348.21,15.27L348.79,16.88L349.36,14.76L350.51,26.22L351.08,27.96L353.38,56.68L353.95,57.97L354.52,60.55L355.1,70.21L355.67,88.88L356.25,85.66L356.82,83.09L357.39,77.94L357.97,80.51L358.54,81.16L359.11,77.94L360.26,74.72L360.83,77.29L361.98,79.22L362.56,79.22L363.7,69.56L364.28,71.5L365.42,68.28L366,58.62L366.57,58.62L367.14,56.68L368.29,55.4L368.87,54.75L370.01,52.82L370.59,48.5L371.16,49.21L371.73,46.77L372.88,38.72L373.46,40.47L374.03,41.36L374.6,44.96L376.9,57.33L377.47,55.4L378.62,51.53L379.19,56.04L380.34,60.55L380.91,59.9L381.49,60.55L382.06,63.77L383.21,64.41L383.78,63.12L384.93,57.33L385.5,59.26L386.65,55.4L387.22,52.18L388.37,49.28L388.94,48.7L389.52,50.89L390.09,48.63L391.81,55.4L392.39,55.4L394.68,49.21L395.25,44.51L396.4,39.23L396.98,34.92L398.12,29.64L398.7,32.34L400.99,29.89L401.56,34.92L403.29,31.05L403.86,32.47L405.01,37.12L405.58,36.14L406.15,39.92L406.73,49.6L407.3,48.38L407.87,51.53L408.45,54.75L409.02,49.6L410.74,30.21L411.32,18.69L411.89,24.1L412.46,13.99L413.04,7.09L413.61,7.67L414.19,7.87L415.33,13.6L415.91,15.21L417.05,16.18L417.63,21.46L418.77,25.64L419.35,24.48L421.64,13.92L422.22,14.24L423.36,15.02L423.94,13.66L424.51,13.28L425.08,11.54L426.81,10.57L427.38,11.15L429.1,8.51L429.67,10.44L430.82,13.41L431.4,12.44L431.97,11.99L432.54,13.08L433.12,15.21L433.69,14.44L434.84,15.92L435.41,17.08L437.71,20.55L438.28,19.2L439.43,20.75L440,20.49" style="vector-effect: non-scaling-stroke; fill: none; stroke: rgb(255, 153, 51); stroke-opacity: 1; stroke-width: 1.3px; opacity: 1;"/></g><g class="points"/><g class="text"/></g></g></g><g class="overplot"/><path class="xlines-above crisp" d="M0,0" style="fill: none;"/><path class="ylines-above crisp" d="M0,0" style="fill: none;"/><g class="overlines-above"/><g class="xaxislayer-above"><g class="xtick"><text text-anchor="middle" x="0" y="233" transform="translate(135.07,0)" style="font-family: 'Open Sans', verdana, arial, sans-serif; font-size: 12px; fill: rgb(42, 63, 95); fill-opacity: 1; white-space: pre; opacity: 1;"><tspan class="line" dy="0em" x="0" y="233">Apr 3</tspan><tspan class="line" dy="1.3em" x="0" y="233">2021</tspan></text></g><g class="xtick"><text text-anchor="middle" x="0" y="233" style="font-family: 'Open Sans', verdana, arial, sans-serif; font-size: 12px; fill: rgb(42, 63, 95); fill-opacity: 1; white-space: pre; opacity: 1;" transform="translate(245.22,0)">Apr 5</text></g><g class="xtick"><text text-anchor="middle" x="0" y="233" style="font-family: 'Open Sans', verdana, arial, sans-serif; font-size: 12px; fill: rgb(42, 63, 95); fill-opacity: 1; white-space: pre; opacity: 1;" transform="translate(355.36,0)">Apr 7</text></g><g class="xtick"><text text-anchor="middle" x="0" y="233" style="font-family: 'Open Sans', verdana, arial, sans-serif; font-size: 12px; fill: rgb(42, 63, 95); fill-opacity: 1; white-space: pre; opacity: 1;" transform="translate(465.5,0)">Apr 9</text></g></g><g class="yaxislayer-above"><g class="ytick"><text text-anchor="end" x="79" y="4.199999999999999" transform="translate(0,207.56)" style="font-family: 'Open Sans', verdana, arial, sans-serif; font-size: 12px; fill: rgb(42, 63, 95); fill-opacity: 1; white-space: pre; opacity: 1;">−10</text></g><g class="ytick"><text text-anchor="end" x="79" y="4.199999999999999" style="font-family: 'Open Sans', verdana, arial, sans-serif; font-size: 12px; fill: rgb(42, 63, 95); fill-opacity: 1; white-space: pre; opacity: 1;" transform="translate(0,175.36)">−5</text></g><g class="ytick"><text text-anchor="end" x="79" y="4.199999999999999" style="font-family: 'Open Sans', verdana, arial, sans-serif; font-size: 12px; fill: rgb(42, 63, 95); fill-opacity: 1; white-space: pre; opacity: 1;" transform="translate(0,143.16)">0</text></g><g class="ytick"><text text-anchor="end" x="79" y="4.199999999999999" style="font-family: 'Open Sans', verdana, arial, sans-serif; font-size: 12px; fill: rgb(42, 63, 95); fill-opacity: 1; white-space: pre; opacity: 1;" transform="translate(0,110.96000000000001)">5</text></g></g><g class="overaxes-above"/></g></g><g class="polarlayer"/><g class="smithlayer"/><g class="ternarylayer"/><g class="geolayer"/><g class="funnelarealayer"/><g class="pielayer"/><g class="iciclelayer"/><g class="treemaplayer"/><g class="sunburstlayer"/><g class="glimages"/><defs id="topdefs-8e5b37"><g class="clips"/></defs><g class="layer-above"><g class="imagelayer"/><g class="shapelayer"/></g><g class="infolayer"><g class="g-gtitle"/><g class="g-xtitle"/><g class="g-ytitle"><text class="ytitle" transform="rotate(-90,29.121875000000003,160)" x="29.121875000000003" y="160" text-anchor="middle" style="font-family: 'Open Sans', verdana, arial, sans-serif; font-size: 14px; fill: rgb(42, 63, 95); opacity: 1; font-weight: normal; white-space: pre;">Load [MW]</text></g></g></svg>