<svg class="main-svg" xmlns="http://www.w3.org/2000/svg" xmlns:xlink="http://www.w3.org/1999/xlink" width="600" height="400" style="" viewBox="0 0 600 400"><rect x="0" y="0" width="600" height="400" style="fill: rgb(255, 255, 255); fill-opacity: 1;"/><defs id="defs-fad5b7"><g class="clips"><clipPath id="clipfad5b7xyplot" class="plotclip"><rect width="421" height="220"/></clipPath><clipPath class="axesclip" id="clipfad5b7x"><rect x="80" y="0" width="421" height="400"/></clipPath><clipPath class="axesclip" id="clipfad5b7y"><rect x="0" y="100" width="600" height="220"/></clipPath><clipPath class="axesclip" id="clipfad5b7xy"><rect x="80" y="100" width="421" height="220"/></clipPath></g><g class="gradients"/><g class="patterns"/></defs><g class="bglayer"/><g class="layer-below"><g class="imagelayer"/><g class="shapelayer"/></g><g class="cartesianlayer"><g class="subplot xy"><g class="layer-subplot"><g class="shapelayer"/><g class="imagelayer"/></g><g class="minor-gridlayer"><g class="x"/><g class="y"/></g><g class="gridlayer"><g class="x"><path class="xgrid crisp" transform="translate(116.84,0)" d="M0,100v220" style="stroke: rgb(235, 240, 248); stroke-opacity: 1; stroke-width: 1px;"/><path class="xgrid crisp" transform="translate(212.62,0)" d="M0,100v220" style="stroke: rgb(235, 240, 248); stroke-opacity: 1; stroke-width: 1px;"/><path class="xgrid crisp" transform="translate(309.44,0)" d="M0,100v220" style="stroke: rgb(235, 240, 248); stroke-opacity: 1; stroke-width: 1px;"/><path class="xgrid crisp" transform="translate(406.28,0)" d="M0,100v220" style="stroke: rgb(235, 240, 248); stroke-opacity: 1; stroke-width: 1px;"/></g><g class="y"><path class="ygrid crisp" transform="translate(0,298.6)" d="M80,0h421" style="stroke: rgb(235, 240, 248); stroke-opacity: 1; stroke-width: 1px;"/><path class="ygrid crisp" transform="translate(0,246.57)" d="M80,0h421" style="stroke: rgb(235, 240, 248); stroke-opacity: 1; stroke-width: 1px;"/><path class="ygrid crisp" transform="translate(0,142.53)" d="M80,0h421" style="stroke: rgb(235, 240, 248); stroke-opacity: 1; stroke-width: 1px;"/></g></g><g class="zerolinelayer"><path class="yzl zl crisp" transform="translate(0,194.55)" d="M80,0h421" style="stroke: rgb(235, 240, 248); stroke-opacity: 1; stroke-width: 2px;"/></g><path class="xlines-below"/><path class="ylines-below"/><g class="overlines-below"/><g class="xaxislayer-below"/><g class="yaxislayer-below"/><g class="overaxes-below"/><g class="plot" transform="translate(80,100)" clip-path="url(#clipfad5b7xyplot)"><g class="scatterlayer mlayer"><g class="trace scatter trace3e1f7e" style="stroke-miterlimit: 2; opacity: 1;"><g class="fills"/><g class="errorbars"/><g class="lines"><path class="js-line" d="M0,44.72L1.05,63.27L2.1,62.56L3.16,59.36L4.21,51.61L5.26,53.52L6.32,41.89L7.37,58.93L8.42,58.02L9.47,62.12L10.53,78.97L11.58,47.92L12.63,43L14.74,130.45L15.79,118.06L16.84,145.92L17.89,108.35L18.94,114.32L20,62.42L21.05,70.56L22.1,61.13L24.21,77.95L25.26,122.78L26.31,56.42L27.37,54.76L28.42,67.75L29.47,62.47L31.58,118.94L32.63,134.74L33.68,110.06L34.73,61.66L35.78,56.38L36.84,85.23L37.89,101.58L38.94,102.58L39.99,107.21L41.05,155.94L42.1,118.48L43.15,113.39L44.21,102.66L45.26,70.79L47.36,123.67L48.42,88.37L49.47,86.28L50.52,69.91L51.57,70.17L52.63,82.19L53.68,93.03L54.73,86.16L56.83,63.22L57.89,92.75L59.99,64.01L61.05,92.03L62.1,84.22L63.15,68.57L64.2,94.04L65.26,87.39L66.31,70.8L67.36,40.69L69.47,112.1L70.52,81.1L71.57,127.33L72.62,131.27L73.67,65.7L74.73,78.16L75.78,95.18L76.83,94.31L78.94,55.91L79.99,67.67L81.04,87.16L82.1,56.75L84.2,71.99L85.25,52.87L86.31,64.42L87.36,62.25L88.41,66.26L89.46,125.11L90.51,134.01L91.57,93.68L92.62,86.56L93.67,71.24L94.73,96.18L95.78,90.5L96.83,68.5L97.88,77.43L98.94,89.54L99.99,67.99L101.04,81.68L102.09,74.35L103.15,61.89L104.2,63.38L105.25,65.72L106.3,87.42L108.41,60.46L109.46,61.97L110.51,61.09L111.57,63.43L112.62,96.57L113.67,85.02L114.72,76.6L115.78,59.49L116.83,63.75L117.88,62.39L118.93,62.25L119.99,72L121.04,89.12L122.09,76.81L123.14,71.37L124.19,54.03L125.25,55.42L126.3,51.82L128.4,100.85L129.46,66.91L130.51,68.17L131.56,52.68L133.67,63.56L134.72,74.7L135.77,68.18L136.83,52.24L137.88,92.03L138.93,72.38L141.03,55.28L142.09,74.3L143.14,79.07L144.19,51.33L145.24,49.97L146.3,83.77L147.35,108.87L148.4,75.89L149.46,92.62L150.51,88.94L152.61,69.34L153.67,65.13L154.72,73.8L155.77,63.88L156.82,90.96L157.88,85.37L158.93,70.33L159.98,79.51L162.08,121.46L163.14,79.9L164.19,121.08L165.24,85.64L166.3,84.82L167.35,73.39L168.4,77.19L169.45,73.56L171.56,86.62L172.61,112.91L173.66,73.01L174.72,69.3L175.77,64.16L176.82,68.57L177.87,88.35L178.92,90.81L179.98,85.55L181.03,117.4L182.08,79.48L183.14,73.84L184.19,39.42L185.24,52.14L188.4,82.47L189.45,62.94L190.5,67.95L191.56,85.95L193.66,104.08L194.71,85.41L198.92,37.48L199.98,45.61L202.08,75.27L203.13,47L204.19,46.9L205.24,57.07L206.29,51.27L207.34,38.98L209.45,71.47L210.5,46.48L211.55,52.57L212.6,48.66L213.66,64.31L214.71,42.22L216.82,71.52L217.87,47.81L218.92,50.09L219.97,62.19L221.03,79.33L222.08,78.67L223.13,51.85L224.18,59L225.24,65.73L226.29,57.3L228.39,94.87L229.44,84.41L230.5,82.08L231.55,76.22L232.6,79.05L233.65,69.68L235.76,43.78L236.81,50.68L237.87,61.52L238.92,64.23L239.97,65.32L241.02,72.6L242.08,49.9L243.13,70.38L244.18,82.68L245.23,58.13L246.28,71.7L247.34,57.39L249.44,96.72L250.49,104.66L251.55,118.12L252.6,65.84L253.65,76.27L254.71,53.6L255.76,61.81L256.81,78.47L257.86,65.81L258.92,93.07L259.97,79.18L261.02,85.63L262.07,101.32L263.13,41.41L264.18,40.09L265.23,40.79L266.28,57.92L267.33,97.31L268.39,126.96L269.44,53.14L270.49,63.89L271.55,47.26L272.6,41.07L273.65,64.28L274.7,59.01L275.76,60.12L276.81,37.42L277.86,35.1L279.97,82.54L281.02,83.44L282.07,80.03L283.12,100.14L284.17,48.88L285.23,50.32L286.28,45.21L287.33,60.12L288.39,70.35L289.44,48.77L290.49,83.04L291.54,58.98L292.6,79.54L293.65,119.67L294.7,55.46L295.75,74.14L296.81,55.22L297.86,56.41L301.01,73.41L302.07,51.78L303.12,50.4L304.17,61.55L305.23,80.52L306.28,56.07L307.33,45.7L308.38,58.65L309.44,38.82L310.49,37.11L312.59,84.67L313.65,40.14L315.75,44.41L316.8,64L318.91,86.37L319.96,82.77L321.01,62.73L322.07,63.89L323.12,77.14L324.17,125.53L325.22,140.66L326.28,101L327.33,102.68L328.38,119.6L329.43,70.36L330.49,129.93L331.54,76.94L332.59,85.03L333.64,95.22L334.69,84.73L335.75,45.62L336.8,49.29L337.85,48.9L338.9,61.39L339.96,46.77L341.01,57.36L343.12,93.5L344.17,47.48L346.27,127L347.33,86.87L349.43,54.9L350.48,38.96L351.53,38.82L352.59,69.55L353.64,126.14L354.69,85.96L355.74,148.06L356.8,115.89L357.85,122.62L358.9,115.61L361.01,65.83L362.06,103.26L363.11,136.71L364.17,143.38L365.22,107.9L366.27,112.05L368.38,70.58L369.43,99.12L370.48,106.3L371.53,124.18L372.58,119.88L373.64,89.65L375.74,124.7L376.8,83.99L377.85,118.21L378.9,119.92L379.95,127.71L381.01,97.11L382.06,108.98L383.11,110.45L384.16,113.75L385.22,69.15L386.27,95.23L387.32,81.74L388.37,46.33L389.42,70.55L390.48,73.9L391.53,68.35L392.58,89.05L393.64,77.9L394.69,63.23L395.74,84.93L396.79,75.55L397.85,77.7L398.9,117.21L399.95,99.3L401,87.6L402.06,61.88L403.11,51.07L404.16,86.11L405.21,100.99L406.26,71.24L407.32,113.9L408.37,109.18L409.42,67.69L410.48,58.45L411.53,58.42L412.58,60.25L413.63,59.98L414.69,75.05L415.74,82.47L416.79,42.89L417.84,50.65L418.9,84.04L419.95,94.55L421,94.55" style="vector-effect: non-scaling-stroke; fill: none; stroke: rgb(255, 153, 51); stroke-opacity: 1; stroke-width: 1.3px; opacity: 1;"/></g><g class="points"/><g class="text"/></g><g class="trace scatter trace4ab0a3" style="stroke-miterlimit: 2; opacity: 1;"><g class="fills"/><g class="errorbars"/><g class="lines"><path class="js-line" d="M0,22.86L2.1,37.43L3.16,39.92L5.26,24.42L6.32,22.45L7.37,27.34L8.42,24.11L10.53,60.94L11.58,29.31L12.63,22.45L13.68,55.74L14.74,76.45L15.79,63.02L16.84,102.04L17.89,69.89L18.94,69.99L20,28.06L22.1,34.51L23.15,42.73L25.26,62.92L26.31,25.46L27.37,25.98L28.42,29.21L29.47,32.85L30.52,66.14L31.58,60.94L32.63,89L34.73,29.31L35.78,31.29L36.84,54.08L37.89,60.32L38.94,81.96L39.99,71.35L41.05,102.87L42.1,56.68L43.15,57.3L44.21,34.51L45.26,36.28L46.31,57.72L47.36,56.99L48.42,40.45L49.47,42.32L50.52,36.08L51.57,38.05L52.63,47.1L53.68,62.4L54.73,60.73L55.78,40.45L56.83,35.66L57.89,53.55L58.94,57.61L59.99,40.97L61.05,61.05L63.15,41.69L64.2,65.52L65.26,40.86L66.31,47.94L67.36,22.76L68.41,52.2L69.47,57.51L70.52,29.83L71.57,83.1L72.62,81.96L73.67,32.54L74.73,38.68L75.78,61.67L76.83,47.1L78.94,27.44L79.99,42.63L81.04,56.36L82.1,45.44L83.15,50.02L84.2,49.81L85.25,29.62L86.31,40.65L88.41,34.31L89.46,83.1L90.51,80.92L91.57,63.34L93.67,35.76L94.73,48.04L95.78,53.97L96.83,43.15L97.88,53.45L98.94,53.35L99.99,37.53L101.04,50.64L102.09,44.19L103.15,32.64L104.2,40.13L105.25,38.05L106.3,56.05L107.35,40.24L109.46,36.39L110.51,35.45L111.57,37.32L112.62,57.4L114.72,36.28L115.78,34.51L116.83,39.61L117.88,38.26L118.93,21.92L119.99,48.14L121.04,55.01L122.09,49.29L124.19,32.23L125.25,40.45L126.3,32.54L127.35,56.16L128.4,56.26L129.46,38.05L130.51,44.29L131.56,33.99L132.62,36.39L133.67,36.7L134.72,56.36L135.77,41.28L136.83,25.77L137.88,52.62L138.93,37.95L139.98,38.99L141.03,39.92L142.09,57.92L143.14,49.81L144.19,35.35L145.24,34.62L146.3,44.61L147.35,77.17L148.4,62.29L149.46,60.84L150.51,49.18L151.56,52.83L152.61,45.54L153.67,45.75L154.72,50.02L155.77,46.17L156.82,62.4L158.93,54.18L159.98,55.01L161.03,58.34L162.08,74.36L163.14,49.71L164.19,73.43L167.35,52.31L168.4,53.97L169.45,50.33L170.51,63.34L171.56,49.71L172.61,70.83L173.66,44.29L174.72,41.07L175.77,42.63L176.82,42.32L178.92,55.53L179.98,51.06L181.03,55.01L182.08,33.58L183.14,35.76L184.19,25.46L187.35,60.01L188.4,43.15L190.5,30.35L191.56,43.25L192.61,63.02L193.66,65.83L196.82,36.39L197.87,21.09L198.92,17.55L199.98,24.21L202.08,50.33L203.13,21.4L204.19,20.47L205.24,25.36L207.34,17.35L208.4,43.25L209.45,50.43L210.5,22.76L211.55,29.1L212.6,22.65L213.66,22.76L214.71,20.26L215.76,44.19L216.82,46.9L217.87,18.18L218.92,24.21L219.97,25.25L221.03,43.98L223.13,34.93L224.18,33.58L225.24,35.55L226.29,27.65L227.34,24.84L228.39,50.54L229.44,48.14L230.5,48.98L231.55,41.49L232.6,25.88L233.65,25.77L234.71,11L236.81,21.09L237.87,32.12L238.92,31.81L239.97,27.86L242.08,21.72L243.13,32.23L244.18,33.27L245.23,43.88L246.28,56.68L247.34,31.5L248.39,36.39L249.44,55.22L250.49,46.9L251.55,75.09L252.6,46.17L253.65,50.54L254.71,37.32L255.76,36.08L256.81,50.33L257.86,35.24L258.92,64.27L259.97,54.91L261.02,51.79L262.07,45.44L263.13,13.29L264.18,14.12L266.28,32.54L267.33,65.94L268.39,84.84L269.44,16.31L270.49,42.53L271.55,25.15L272.6,18.6L273.65,38.16L274.7,32.54L275.76,40.24L276.81,18.8L277.86,16.62L279.97,43.88L281.02,35.76L283.12,68.54L284.17,20.05L285.23,21.82L286.28,30.25L287.33,29.83L288.39,26.5L289.44,29.31L290.49,49.71L291.54,16.41L292.6,16.51L293.65,74.88L294.7,18.49L295.75,38.47L296.81,32.33L297.86,41.69L298.91,28.58L299.96,19.84L301.01,45.96L303.12,25.77L304.17,38.36L305.23,41.28L306.28,27.86L307.33,20.16L308.38,36.49L309.44,13.91L310.49,21.09L312.59,64.9L313.65,15.89L315.75,26.29L316.8,40.34L317.85,32.12L318.91,48.35L319.96,60.01L321.01,39.92L322.07,32.64L323.12,44.5L324.17,84.77L325.22,92.33L327.33,59.07L328.38,69.37L329.43,34.93L330.49,92.78L331.54,32.23L332.59,37.84L333.64,52.51L334.69,42.73L335.75,19.53L336.8,27.96L337.85,19.32L338.9,33.79L339.96,20.47L341.01,42.42L342.06,59.07L343.12,46.69L344.17,18.39L345.22,32.23L346.27,91.04L347.33,34.31L348.38,40.03L349.43,32.95L350.48,19.74L351.53,21.4L352.59,31.91L353.64,95.59L354.69,34.2L355.74,126.8L356.8,47.31L357.85,81.75L358.9,68.43L359.96,24.21L363.11,89.21L364.17,72.91L365.22,49.5L366.27,63.23L367.32,28.38L368.38,35.35L369.43,27.75L370.48,72.91L371.53,91.4L372.58,95.59L373.64,37.22L374.69,66.46L375.74,69.27L376.8,41.59L377.85,46.06L378.9,63.54L379.95,91.43L381.01,36.6L383.11,69.68L384.16,49.5L385.22,42.21L386.27,56.05L387.32,47.73L388.37,24.53L389.42,46.69L390.48,42.21L391.53,32.95L392.58,66.98L394.69,35.45L395.74,42.01L397.85,47.1L398.9,81.02L399.95,57.4L401,59.07L402.06,31.29L403.11,33.47L404.16,43.15L405.21,34.93L406.26,41.69L407.32,67.6L409.42,38.26L410.48,31.6L412.58,25.25L413.63,25.25L414.69,46.69L415.74,51.16L416.79,22.55L417.84,22.55L418.9,33.37L419.95,94.55L421,94.55" style="vector-effect: non-scaling-stroke; fill: none; stroke: rgb(55, 128, 191); stroke-opacity: 1; stroke-width: 1.3px; opacity: 1;"/></g><g class="points"/><g class="text"/></g><g class="trace scatter trace1a2bf1" style="stroke-miterlimit: 2; opacity: 1;"><g class="fills"/><g class="errorbars"/><g class="lines"><path class="js-line" d="M0,73.64L1.05,102.35L2.1,95.59L3.16,68.54L4.21,78.73L5.26,81.34L6.32,66.56L7.37,95.31L8.42,96.94L9.47,79.36L10.53,107.03L11.58,74.68L12.63,66.77L13.68,153.86L14.74,163.22L15.79,153.86L16.84,175.71L17.89,150.73L18.94,155.94L20,103.91L21.05,104.95L22.1,89.79L23.15,114.32L24.21,132.01L25.26,164.26L26.31,102.98L27.37,104.95L28.42,113.28L29.47,105.99L30.52,180.91L31.58,190.27L33.68,150.73L34.73,97.88L35.78,83.52L36.84,132.01L37.89,138.25L38.94,134.09L39.99,161.14L41.05,209L43.15,153.86L44.21,168.42L45.26,120.56L46.31,158.02L47.36,176.75L48.42,135.13L49.47,133.05L50.52,119.52L51.57,105.99L52.63,135.13L53.68,139.29L54.73,137.21L55.78,104.95L56.83,98.71L57.89,142.41L58.94,110.16L59.99,96.32L61.05,137.21L62.1,118.48L63.15,115.36L64.2,143.45L65.26,147.61L67.36,64.27L68.41,139.29L69.47,167.38L70.52,156.98L71.57,151.77L72.62,177.79L73.67,113.28L74.73,147.61L75.78,134.09L76.83,176.75L78.94,97.88L79.99,102.04L81.04,140.33L82.1,65.94L84.2,121.6L85.25,81.23L86.31,98.61L87.36,100.79L88.41,119.52L89.46,164.26L91.57,182.99L92.62,134.09L94.73,152.82L95.78,139.29L96.83,104.95L97.88,111.2L98.94,144.49L99.99,110.16L101.04,134.09L102.09,116.4L103.15,102.98L104.2,103.29L105.25,98.19L106.3,136.17L107.35,102.98L108.41,95.9L109.46,96.42L110.51,99.44L111.57,98.5L112.62,176.75L113.67,133.05L114.72,127.84L115.78,92.81L116.83,97.05L117.88,128.88L118.93,126.8L119.99,107.03L121.04,134.09L122.09,107.03L123.14,111.2L124.19,87.19L125.25,84.04L126.3,87.34L127.35,109.12L128.4,151.77L129.46,111.2L131.56,80.4L132.62,84.56L133.67,107.03L134.72,112.24L136.83,88.23L137.88,177.79L139.98,104.23L141.03,89.97L142.09,114.32L143.14,116.4L145.24,67.6L146.3,126.8L147.35,139.29L148.4,95.28L149.46,136.17L150.51,136.17L152.61,103.5L153.67,102.98L154.72,111.2L155.77,95.9L156.82,142.41L157.88,132.01L158.93,105.99L159.98,119.52L162.08,178.83L163.14,116.4L164.19,170.5L165.24,127.84L166.3,125.76L167.35,112.24L168.4,116.4L169.45,101.62L170.51,134.09L171.56,142.41L172.61,192.35L173.66,153.86L175.77,98.82L176.82,109.12L177.87,163.22L178.92,151.77L179.98,145.53L181.03,182.99L183.14,112.24L184.19,62.09L186.29,93.3L187.35,102.35L188.4,135.13L189.45,93.3L192.61,142.41L193.66,150.73L194.71,108.08L195.76,104.23L196.82,71.35L197.87,69.16L198.92,56.36L199.98,75.82L201.03,116.4L202.08,113.28L203.13,83.31L204.19,78.32L205.24,92.92L206.29,85.67L207.34,80.92L208.4,96.21L209.45,102.77L210.5,71.66L211.55,92.68L212.6,76.03L213.66,113.28L214.71,64.27L216.82,121.6L217.87,79.25L222.08,160.1L223.13,73.22L225.24,109.12L226.29,96.21L227.34,135.13L228.39,133.05L229.44,123.68L230.5,143.45L231.55,144.49L232.6,152.82L233.65,142.41L234.71,103.08L235.76,76.65L236.81,81.54L237.87,96.84L238.92,92.47L241.02,127.84L242.08,84.04L244.18,129.92L245.23,84.84L246.28,94.17L247.34,79.77L248.39,136.17L249.44,150.73L250.49,155.94L251.55,148.65L252.6,91.43L253.65,108.08L254.71,78.63L255.76,89.17L256.81,109.12L257.86,91.64L258.92,133.05L259.97,117.44L261.02,120.56L262.07,158.02L263.13,73.22L264.18,61.46L266.28,77.9L267.33,149.69L268.39,161.14L269.44,125.76L270.49,78.01L271.55,78.84L272.6,68.95L273.65,102.25L274.7,100.48L275.76,78.84L276.81,65L277.86,68.54L279.97,115.36L281.02,121.6L282.07,117.44L283.12,138.25L285.23,82.27L286.28,67.71L288.39,122.64L289.44,68.75L290.49,133.05L291.54,147.61L293.65,134.09L294.7,139.29L295.75,119.52L296.81,82.69L297.86,73.01L298.91,101.42L299.96,126.8L301.01,125.76L302.07,84.49L303.12,92.08L304.17,91.53L305.23,141.37L306.28,83.1L307.33,81.13L308.38,79.98L309.44,76.34L310.49,58.76L311.54,79.88L312.59,108.08L313.65,75.82L315.75,65.21L316.8,89.79L317.85,123.68L318.91,110.16L319.96,112.24L321.01,89.94L322.07,85.26L323.12,127.84L324.17,164.26L325.22,167.38L326.28,121.6L327.33,172.58L329.43,139.29L330.49,160.1L331.54,146.57L332.59,148.65L334.69,130.97L335.75,67.91L337.85,70.72L338.9,84.25L339.96,83L341.01,74.05L343.12,133.05L344.17,78.21L346.27,159.06L347.33,116.4L348.38,103.08L349.43,68.02L351.53,65.62L352.59,144.49L354.69,159.06L355.74,177.79L357.85,156.98L358.9,154.9L359.96,158.02L361.01,102.04L362.06,154.9L363.11,163.22L365.22,164.26L366.27,153.86L368.38,121.6L369.43,159.06L370.48,169.46L371.53,160.1L372.58,144.49L373.64,153.86L374.69,143.45L375.74,167.38L376.8,142.41L377.85,185.07L378.9,148.65L379.95,150.73L381.01,143.45L382.06,168.42L383.11,151.77L384.16,167.38L385.22,101.42L386.27,154.9L387.32,134.09L388.37,80.5L390.48,113.28L391.53,105.99L392.58,126.8L393.64,117.44L394.69,87.58L395.74,149.69L396.79,116.4L397.85,125.76L398.9,169.46L399.95,148.65L402.06,123.68L403.11,69.99L404.16,150.73L405.21,160.1L406.26,109.12L407.32,181.95L408.37,186.11L409.42,102.14L410.48,95.35L411.53,97.15L413.63,105.99L414.69,130.97L415.74,135.13L416.79,68.95L417.84,97.25L418.9,94.55L421,94.55" style="vector-effect: non-scaling-stroke; fill: none; stroke: rgb(50, 171, 96); stroke-opacity: 1; stroke-width: 1.3px; opacity: 1;"/></g><g class="points"/><g class="text"/></g></g></g><g class="overplot"/><path class="xlines-above crisp" d="M0,0" style="fill: none;"/><path class="ylines-above crisp" d="M0,0" style="fill: none;"/><g class="overlines-above"/><g class="xaxislayer-above"><g class="xtick"><text text-anchor="middle" x="0" y="333" transform="translate(116.84,0)" style="font-family: 'Open Sans', verdana, arial, sans-serif; font-size: 12px; fill: rgb(42, 63, 95); fill-opacity: 1; white-space: pre; opacity: 1;">Apr 2021</text></g><g class="xtick"><text text-anchor="middle" x="0" y="333" style="font-family: 'Open Sans', verdana, arial, sans-serif; font-size: 12px; fill: rgb(42, 63, 95); fill-opacity: 1; white-space: pre; opacity: 1;" transform="translate(212.62,0)">Jul 2021</text></g><g class="xtick"><text text-anchor="middle" x="0" y="333" style="font-family: 'Open Sans', verdana, arial, sans-serif; font-size: 12px; fill: rgb(42, 63, 95); fill-opacity: 1; white-space: pre; opacity: 1;" transform="translate(309.44,0)">Oct 2021</text></g><g class="xtick"><text text-anchor="middle" x="0" y="333" style="font-family: 'Open Sans', verdana, arial, sans-serif; font-size: 12px; fill: rgb(42, 63, 95); fill-opacity: 1; white-space: pre; opacity: 1;" transform="translate(406.28,0)">Jan 2022</text></g><g class="xtick"><text text-anchor="middle" x="0" y="333" style="font-family: 'Open Sans', verdana, arial, sans-serif; font-size: 12px; fill: rgb(42, 63, 95); fill-opacity: 1; white-space: pre; opacity: 1;" transform="translate(501,0)">Apr 2022</text></g></g><g class="yaxislayer-above"><g class="ytick"><text text-anchor="end" x="79" y="4.199999999999999" transform="translate(0,298.6)" style="font-family: 'Open Sans', verdana, arial, sans-serif; font-size: 12px; fill: rgb(42, 63, 95); fill-opacity: 1; white-space: pre; opacity: 1;">−10</text></g><g class="ytick"><text text-anchor="end" x="79" y="4.199999999999999" style="font-family: 'Open Sans', verdana, arial, sans-serif; font-size: 12px; fill: rgb(42, 63, 95); fill-opacity: 1; white-space: pre; opacity: 1;" transform="translate(0,246.57)">−5</text></g><g class="ytick"><text text-anchor="end" x="79" y="4.199999999999999" style="font-family: 'Open Sans', verdana, arial, sans-serif; font-size: 12px; fill: rgb(42, 63, 95); fill-opacity: 1; white-space: pre; opacity: 1;" transform="translate(0,194.55)">0</text></g><g class="ytick"><text text-anchor="end" x="79" y="4.199999999999999" style="font-family: 'Open Sans', verdana, arial, sans-serif; font-size: 12px; fill: rgb(42, 63, 95); fill-opacity: 1; white-space: pre; opacity: 1;" transform="translate(0,142.53)">5</text></g></g><g class="overaxes-above"/></g></g><g class="polarlayer"/><g class="smithlayer"/><g class="ternarylayer"/><g class="geolayer"/><g class="funnelarealayer"/><g class="pielayer"/><g class="iciclelayer"/><g class="treemaplayer"/><g class="sunburstlayer"/><g class="glimages"/><defs id="topdefs-fad5b7"><g class="clips"/><clipPath id="legendfad5b7"><rect width="79" height="67" x="0" y="0"/></clipPath></defs><g class="layer-above"><g class="imagelayer"/><g class="shapelayer"/></g><g class="infolayer"><g class="legend" pointer-events="all" transform="translate(509.42,100)"><rect class="bg" shape-rendering="crispEdges" style="stroke: rgb(68, 68, 68); stroke-opacity: 1; fill: rgb(255, 255, 255); fill-opacity: 1; stroke-width: 0px;" width="79" height="67" x="0" y="0"/><g class="scrollbox" transform="" clip-path="url(#legendfad5b7)"><g class="groups"><g class="traces" transform="translate(0,14.5)" style="opacity: 1;"><text class="legendtext" text-anchor="start" x="40" y="4.680000000000001" style="font-family: 'Open Sans', verdana, arial, sans-serif; font-size: 12px; fill: rgb(42, 63, 95); fill-opacity: 1; white-space: pre;">mean</text><g class="layers" style="opacity: 1;"><g class="legendfill"/><g class="legendlines"><path class="js-line" d="M5,0h30" style="fill: none; stroke: rgb(255, 153, 51); stroke-opacity: 1; stroke-width: 1.3px;"/></g><g class="legendsymbols"><g class="legendpoints"/></g></g><rect class="legendtoggle" x="0" y="-9.5" width="73.625" height="19" style="fill: rgb(0, 0, 0); fill-opacity: 0;"/></g><g class="traces" transform="translate(0,33.5)" style="opacity: 1;"><text class="legendtext" text-anchor="start" x="40" y="4.680000000000001" style="font-family: 'Open Sans', verdana, arial, sans-serif; font-size: 12px; fill: rgb(42, 63, 95); fill-opacity: 1; white-space: pre;">max</text><g class="layers" style="opacity: 1;"><g class="legendfill"/><g class="legendlines"><path class="js-line" d="M5,0h30" style="fill: none; stroke: rgb(55, 128, 191); stroke-opacity: 1; stroke-width: 1.3px;"/></g><g class="legendsymbols"><g class="legendpoints"/></g></g><rect class="legendtoggle" x="0" y="-9.5" width="73.625" height="19" style="fill: rgb(0, 0, 0); fill-opacity: 0;"/></g><g class="traces" transform="translate(0,52.5)" style="opacity: 1;"><text class="legendtext" text-anchor="start" x="40" y="4.680000000000001" style="font-family: 'Open Sans', verdana, arial, sans-serif; font-size: 12px; fill: rgb(42, 63, 95); fill-opacity: 1; white-space: pre;">min</text><g class="layers" style="opacity: 1;"><g class="legendfill"/><g class="legendlines"><path class="js-line" d="M5,0h30" style="fill: none; stroke: rgb(50, 171, 96); stroke-opacity: 1; stroke-width: 1.3px;"/></g><g class="legendsymbols"><g class="legendpoints"/></g></g><rect class="legendtoggle" x="0" y="-9.5" width="73.625" height="19" style="fill: rgb(0, 0, 0); fill-opacity: 0;"/></g></g></g><rect class="scrollbar" rx="20" ry="3" width="0" height="0" style="fill: rgb(128, 139, 164); fill-opacity: 1;" x="0" y="0"/></g><g class="g-gtitle"/><g class="g-xtitle"/><g class="g-ytitle"><text class="ytitle" transform="rotate(-90,29.121875000000003,210)" x="29.121875000000003" y="210" text-anchor="middle" style="font-family: 'Open Sans', verdana, arial, sans-serif; font-size: 14px; fill: rgb(42, 63, 95); opacity: 1; font-weight: normal; white-space: pre;">Daily load [MW]</text></g></g></svg>