<svg class="main-svg" xmlns="http://www.w3.org/2000/svg" xmlns:xlink="http://www.w3.org/1999/xlink" width="300" height="200" style="" viewBox="0 0 300 200"><rect x="0" y="0" width="300" height="200" style="fill: rgb(255, 255, 255); fill-opacity: 1;"/><defs id="defs-5a4663"><g class="clips"><clipPath id="clip5a4663xyplot" class="plotclip"><rect width="181" height="159"/></clipPath><clipPath class="axesclip" id="clip5a4663x"><rect x="44" y="0" width="181" height="200"/></clipPath><clipPath class="axesclip" id="clip5a4663y"><rect x="0" y="0" width="300" height="159"/></clipPath><clipPath class="axesclip" id="clip5a4663xy"><rect x="44" y="0" width="181" height="159"/></clipPath></g><g class="gradients"/><g class="patterns"/></defs><g class="bglayer"/><g class="layer-below"><g class="imagelayer"/><g class="shapelayer"/></g><g class="cartesianlayer"><g class="subplot xy"><g class="layer-subplot"><g class="shapelayer"/><g class="imagelayer"/></g><g class="minor-gridlayer"><g class="x"/><g class="y"/></g><g class="gridlayer"><g class="x"><path class="xgrid crisp" transform="translate(46.51,0)" d="M0,0v159" style="stroke: rgb(235, 240, 248); stroke-opacity: 1; stroke-width: 1px;"/><path class="xgrid crisp" transform="translate(93.00999999999999,0)" d="M0,0v159" style="stroke: rgb(235, 240, 248); stroke-opacity: 1; stroke-width: 1px;"/><path class="xgrid crisp" transform="translate(139.51,0)" d="M0,0v159" style="stroke: rgb(235, 240, 248); stroke-opacity: 1; stroke-width: 1px;"/><path class="xgrid crisp" transform="translate(186,0)" d="M0,0v159" style="stroke: rgb(235, 240, 248); stroke-opacity: 1; stroke-width: 1px;"/></g><g class="y"><path class="ygrid crisp" transform="translate(0,113.25)" d="M44,0h181" style="stroke: rgb(235, 240, 248); stroke-opacity: 1; stroke-width: 1px;"/><path class="ygrid crisp" transform="translate(0,75.45)" d="M44,0h181" style="stroke: rgb(235, 240, 248); stroke-opacity: 1; stroke-width: 1px;"/><path class="ygrid crisp" transform="translate(0,37.65)" d="M44,0h181" style="stroke: rgb(235, 240, 248); stroke-opacity: 1; stroke-width: 1px;"/></g></g><g class="zerolinelayer"><path class="yzl zl crisp" transform="translate(0,151.05)" d="M44,0h181" style="stroke: rgb(235, 240, 248); stroke-opacity: 1; stroke-width: 2px;"/></g><path class="xlines-below"/><path class="ylines-below"/><g class="overlines-below"/><g class="xaxislayer-below"/><g class="yaxislayer-below"/><g class="overaxes-below"/><g class="plot" transform="translate(44,0)" clip-path="url(#clip5a4663xyplot)"><g class="scatterlayer mlayer"><g class="trace scatter tracebbd725" style="stroke-miterlimit: 2; opacity: 1;"><g class="fills"/><g class="errorbars"/><g class="lines"><path class="js-line" d="M0,151.03L46.14,150.32L46.49,150.28L57.42,148.26L57.77,148.15L61.18,146.23L61.53,145.95L69.04,139.02L69.39,138.5L76.22,126.9L76.56,125.97L79.64,115.26L79.98,113.75L83.4,94.77L83.74,92.45L87.84,58.43L88.19,55.28L93.31,13.29L93.65,11.77L95.36,7.95L95.71,8.15L96.73,11.06L97.07,12.79L99.47,31.13L99.81,34.14L106.99,93.08L107.33,95.19L110.75,111.39L111.09,112.64L116.56,130.01L116.9,130.71L120.66,136.46L121,136.91L126.81,143.39L127.15,143.7L131.25,146.41L131.6,146.57L139.8,149.94L140.14,149.98L160.31,151.01L160.65,151.01L170.56,151.01" style="vector-effect: non-scaling-stroke; fill: none; stroke: rgb(31, 119, 180); stroke-opacity: 1; stroke-width: 2px; opacity: 1;"/></g><g class="points"/><g class="text"/></g><g class="trace scatter tracede6460" style="stroke-miterlimit: 2; opacity: 1;"><g class="fills"/><g class="errorbars"/><g class="lines"><path class="js-line" d="M11.62,150.73L18.41,150.22L18.75,150.27L25.54,150.52L25.88,150.52L46.92,149.79L47.26,149.75L53.03,148.36L53.37,148.22L64.24,143.34L64.58,143.09L67.97,139.64L68.31,139.17L72.72,131.77L73.06,131.05L77.13,120.54L77.47,119.4L82.23,100.27L82.57,98.65L86.98,72.65L87.32,70.54L92.75,40.7L93.09,39.79L94.78,37.91L95.12,38.02L96.48,39.7L96.82,40.39L99.2,47.39L99.54,48.7L102.25,63.14L102.59,65.36L108.02,96.6L108.36,98L112.77,112.38L113.11,113.33L116.51,120.57L116.85,121.13L128.05,137.54L128.39,137.94L133.82,143.13L134.16,143.35L143.66,148.1L144,148.21L151.81,149.97L152.15,150.01L170.14,150.96L170.48,150.96L181,151.02" style="vector-effect: non-scaling-stroke; fill: none; stroke: rgb(255, 127, 14); stroke-opacity: 1; stroke-width: 2px; opacity: 1;"/></g><g class="points"/><g class="text"/></g></g></g><g class="overplot"/><path class="xlines-above crisp" d="M0,0" style="fill: none;"/><path class="ylines-above crisp" d="M0,0" style="fill: none;"/><g class="overlines-above"/><g class="xaxislayer-above"><g class="xtick"><text text-anchor="middle" x="0" y="172" transform="translate(46.51,0)" style="font-family: 'Open Sans', verdana, arial, sans-serif; font-size: 12px; fill: rgb(42, 63, 95); fill-opacity: 1; white-space: pre; opacity: 1;">−10</text></g><g class="xtick"><text text-anchor="middle" x="0" y="172" style="font-family: 'Open Sans', verdana, arial, sans-serif; font-size: 12px; fill: rgb(42, 63, 95); fill-opacity: 1; white-space: pre; opacity: 1;" transform="translate(93.00999999999999,0)">−5</text></g><g class="xtick"><text text-anchor="middle" x="0" y="172" style="font-family: 'Open Sans', verdana, arial, sans-serif; font-size: 12px; fill: rgb(42, 63, 95); fill-opacity: 1; white-space: pre; opacity: 1;" transform="translate(139.51,0)">0</text></g><g class="xtick"><text text-anchor="middle" x="0" y="172" style="font-family: 'Open Sans', verdana, arial, sans-serif; font-size: 12px; fill: rgb(42, 63, 95); fill-opacity: 1; white-space: pre; opacity: 1;" transform="translate(186,0)">5</text></g></g><g class="yaxislayer-above"><g class="ytick"><text text-anchor="end" x="44" y="4.199999999999999" transform="translate(0,151.05)" style="font-family: 'Open Sans', verdana, arial, sans-serif; font-size: 12px; fill: rgb(42, 63, 95); fill-opacity: 1; white-space: pre; opacity: 1;">0</text></g><g class="ytick"><text text-anchor="end" x="44" y="4.199999999999999" style="font-family: 'Open Sans', verdana, arial, sans-serif; font-size: 12px; fill: rgb(42, 63, 95); fill-opacity: 1; white-space: pre; opacity: 1;" transform="translate(0,113.25)">0.1</text></g><g class="ytick"><text text-anchor="end" x="44" y="4.199999999999999" style="font-family: 'Open Sans', verdana, arial, sans-serif; font-size: 12px; fill: rgb(42, 63, 95); fill-opacity: 1; white-space: pre; opacity: 1;" transform="translate(0,75.45)">0.2</text></g><g class="ytick"><text text-anchor="end" x="44" y="4.199999999999999" style="font-family: 'Open Sans', verdana, arial, sans-serif; font-size: 12px; fill: rgb(42, 63, 95); fill-opacity: 1; white-space: pre; opacity: 1;" transform="translate(0,37.65)">0.3</text></g></g><g class="overaxes-above"/></g></g><g class="polarlayer"/><g class="smithlayer"/><g class="ternarylayer"/><g class="geolayer"/><g class="funnelarealayer"/><g class="pielayer"/><g class="iciclelayer"/><g class="treemaplayer"/><g class="sunburstlayer"/><g class="glimages"/><defs id="topdefs-5a4663"><g class="clips"/><clipPath id="legend5a4663"><rect width="147" height="48" x="0" y="0"/></clipPath></defs><g class="layer-above"><g class="imagelayer"/><g class="shapelayer"/></g><g class="infolayer"><g class="legend" pointer-events="all" transform="translate(152.6,0)"><rect class="bg" shape-rendering="crispEdges" style="stroke: rgb(68, 68, 68); stroke-opacity: 1; fill: rgb(255, 255, 255); fill-opacity: 1; stroke-width: 0px;" width="147" height="48" x="0" y="0"/><g class="scrollbox" transform="" clip-path="url(#legend5a4663)"><g class="groups"><g class="traces" transform="translate(0,14.5)" style="opacity: 1;"><text class="legendtext" text-anchor="start" x="40" y="4.680000000000001" style="font-family: 'Open Sans', verdana, arial, sans-serif; font-size: 12px; fill: rgb(42, 63, 95); fill-opacity: 1; white-space: pre;">original_weather</text><g class="layers" style="opacity: 1;"><g class="legendfill"/><g class="legendlines"><path class="js-line" d="M5,0h30" style="fill: none; stroke: rgb(31, 119, 180); stroke-opacity: 1; stroke-width: 2px;"/></g><g class="legendsymbols"><g class="legendpoints"/></g></g><rect class="legendtoggle" x="0" y="-9.5" width="141.84375" height="19" style="fill: rgb(0, 0, 0); fill-opacity: 0;"/></g><g class="traces" transform="translate(0,33.5)" style="opacity: 1;"><text class="legendtext" text-anchor="start" x="40" y="4.680000000000001" style="font-family: 'Open Sans', verdana, arial, sans-serif; font-size: 12px; fill: rgb(42, 63, 95); fill-opacity: 1; white-space: pre;">operational</text><g class="layers" style="opacity: 1;"><g class="legendfill"/><g class="legendlines"><path class="js-line" d="M5,0h30" style="fill: none; stroke: rgb(255, 127, 14); stroke-opacity: 1; stroke-width: 2px;"/></g><g class="legendsymbols"><g class="legendpoints"/></g></g><rect class="legendtoggle" x="0" y="-9.5" width="141.84375" height="19" style="fill: rgb(0, 0, 0); fill-opacity: 0;"/></g></g></g><rect class="scrollbar" rx="20" ry="3" width="0" height="0" style="fill: rgb(128, 139, 164); fill-opacity: 1;" x="0" y="0"/></g><g class="g-gtitle"/><g class="g-xtitle" transform="translate(0,-2.8000000000000114)"><text class="xtitle" x="134.5" y="199.8" text-anchor="middle" style="font-family: 'Open Sans', verdana, arial, sans-serif; font-size: 14px; fill: rgb(42, 63, 95); opacity: 1; font-weight: normal; white-space: pre;">Error [MW]</text></g><g class="g-ytitle" transform="translate(14.4248046875,0)"><text class="ytitle" transform="rotate(-90,-0.42499999999999716,79.5)" x="-0.42499999999999716" y="79.5" text-anchor="middle" style="font-family: 'Open Sans', verdana, arial, sans-serif; font-size: 14px; fill: rgb(42, 63, 95); opacity: 1; font-weight: normal; white-space: pre;">Probability denisty [-]</text></g></g></svg>
