<svg class="main-svg" xmlns="http://www.w3.org/2000/svg" xmlns:xlink="http://www.w3.org/1999/xlink" width="500" height="200" style="" viewBox="0 0 500 200"><rect x="0" y="0" width="500" height="200" style="fill: rgb(255, 255, 255); fill-opacity: 1;"/><defs id="defs-c39220"><g class="clips"><clipPath id="clipc39220xyplot" class="plotclip"><rect width="288" height="157"/></clipPath><clipPath class="axesclip" id="clipc39220x"><rect x="45" y="0" width="288" height="200"/></clipPath><clipPath class="axesclip" id="clipc39220y"><rect x="0" y="0" width="500" height="157"/></clipPath><clipPath class="axesclip" id="clipc39220xy"><rect x="45" y="0" width="288" height="157"/></clipPath></g><g class="gradients"/><g class="patterns"/></defs><g class="bglayer"/><g class="layer-below"><g class="imagelayer"/><g class="shapelayer"/></g><g class="cartesianlayer"><g class="subplot xy"><g class="layer-subplot"><g class="shapelayer"/><g class="imagelayer"/></g><g class="minor-gridlayer"><g class="x"/><g class="y"/></g><g class="gridlayer"><g class="x"><path class="xgrid crisp" transform="translate(81.38,0)" d="M0,0v157" style="stroke: rgb(235, 240, 248); stroke-opacity: 1; stroke-width: 1px;"/><path class="xgrid crisp" transform="translate(117.76,0)" d="M0,0v157" style="stroke: rgb(235, 240, 248); stroke-opacity: 1; stroke-width: 1px;"/><path class="xgrid crisp" transform="translate(154.14,0)" d="M0,0v157" style="stroke: rgb(235, 240, 248); stroke-opacity: 1; stroke-width: 1px;"/><path class="xgrid crisp" transform="translate(190.52,0)" d="M0,0v157" style="stroke: rgb(235, 240, 248); stroke-opacity: 1; stroke-width: 1px;"/><path class="xgrid crisp" transform="translate(226.89,0)" d="M0,0v157" style="stroke: rgb(235, 240, 248); stroke-opacity: 1; stroke-width: 1px;"/><path class="xgrid crisp" transform="translate(263.27,0)" d="M0,0v157" style="stroke: rgb(235, 240, 248); stroke-opacity: 1; stroke-width: 1px;"/><path class="xgrid crisp" transform="translate(299.65,0)" d="M0,0v157" style="stroke: rgb(235, 240, 248); stroke-opacity: 1; stroke-width: 1px;"/></g><g class="y"><path class="ygrid crisp" transform="translate(0,135.38)" d="M45,0h288" style="stroke: rgb(235, 240, 248); stroke-opacity: 1; stroke-width: 1px;"/><path class="ygrid crisp" transform="translate(0,93.79)" d="M45,0h288" style="stroke: rgb(235, 240, 248); stroke-opacity: 1; stroke-width: 1px;"/><path class="ygrid crisp" transform="translate(0,52.19)" d="M45,0h288" style="stroke: rgb(235, 240, 248); stroke-opacity: 1; stroke-width: 1px;"/><path class="ygrid crisp" transform="translate(0,10.6)" d="M45,0h288" style="stroke: rgb(235, 240, 248); stroke-opacity: 1; stroke-width: 1px;"/></g></g><g class="zerolinelayer"/><path class="xlines-below"/><path class="ylines-below"/><g class="overlines-below"/><g class="xaxislayer-below"/><g class="yaxislayer-below"/><g class="overaxes-below"/><g class="plot" transform="translate(45,0)" clip-path="url(#clipc39220xyplot)"><g class="scatterlayer mlayer"><g class="trace scatter trace481511" style="stroke-miterlimit: 2; opacity: 1;"><g class="fills"/><g class="errorbars"/><g class="lines"><path class="js-line" d="M0,98.64L3.03,95.14L6.06,97.6L12.13,90.88L15.16,94.56L18.19,100.29L21.22,101.23L30.32,98.76L33.35,100.29L36.38,97.48L39.41,101.23L42.44,94.4L45.47,91.79L48.51,88.65L51.54,87.87L60.63,78.68L63.66,74.19L69.73,60.72L72.76,57.12L75.79,53.2L78.82,51.38L81.85,51.15L84.88,54.39L87.92,58.92L90.95,57.27L93.98,52.82L97.01,38.03L100.04,37.12L103.07,34.44L109.14,43.01L112.17,45.14L115.2,37.99L118.23,35.26L121.26,30.57L124.29,18.5L127.33,16.17L130.36,12.72L133.39,23.84L136.42,25.88L142.48,11.59L145.52,10.67L148.55,13.53L151.58,8.65L154.61,7.87L157.64,9.22L160.67,13L163.71,10.85L166.74,8.03L169.77,11L172.8,19.64L175.83,10.42L178.86,19L181.89,13.63L184.93,7.85L187.96,16.96L190.99,19.92L194.02,27.41L206.15,64.4L209.18,65.06L215.24,72.13L218.27,77.36L221.31,77.33L224.34,76.37L227.37,83.74L230.4,84.91L233.43,85.35L236.46,84.95L239.49,86.26L242.53,91.22L245.56,92.58L248.59,95.31L251.62,96.01L254.65,97.72L257.68,89.76L260.72,97L263.75,99.31L266.78,99.17L269.81,102.51L272.84,95.96L278.91,98.39L281.94,98.05L284.97,97.17L288,99.33" style="vector-effect: non-scaling-stroke; fill: none; stroke: rgb(255, 153, 51); stroke-opacity: 1; stroke-width: 1.3px; opacity: 1;"/></g><g class="points"/><g class="text"/></g><g class="trace scatter traceef829d" style="stroke-miterlimit: 2; opacity: 1;"><g class="fills"/><g class="errorbars"/><g class="lines"><path class="js-line" d="M0,125.69L3.03,118.95L6.06,115.78L9.09,116.02L12.13,113.31L15.16,113.35L18.19,115.28L21.22,116.38L24.25,119.79L27.28,114.13L30.32,111.8L33.35,113.11L36.38,112.72L39.41,117.78L42.44,118.15L45.47,122.79L48.51,117.77L51.54,115.62L54.57,112.44L57.6,109L60.63,107.39L63.66,108.52L66.69,103.72L69.73,98.38L72.76,96.53L75.79,92.82L78.82,96.31L81.85,98.24L84.88,93.46L87.92,91.84L90.95,86.11L97.01,73.85L100.04,71.89L103.07,66.56L106.11,67.87L109.14,60.68L112.17,64.13L121.26,49.35L124.29,46.09L127.33,41.94L130.36,39.65L133.39,43.48L136.42,51.77L139.45,50.81L142.48,51.44L145.52,47.44L148.55,48.95L151.58,45.82L154.61,50.03L157.64,41.14L160.67,37.36L166.74,40.68L169.77,40.6L172.8,47.81L175.83,46.38L178.86,48.83L181.89,48.95L187.96,57.37L190.99,65.65L197.05,67.82L200.08,74.41L206.15,84.28L209.18,87.07L215.24,95.37L218.27,98.16L221.31,102.35L224.34,102.84L227.37,111.2L230.4,107.93L233.43,109.91L236.46,113.33L239.49,111.68L242.53,111.8L245.56,113.32L248.59,116.68L251.62,115.95L254.65,119.7L257.68,118.63L260.72,121.29L263.75,120.56L266.78,117.71L272.84,123.3L275.87,119.9L278.91,121L281.94,121.19L284.97,122.71L288,122.71" style="vector-effect: non-scaling-stroke; fill: none; stroke: rgb(55, 128, 191); stroke-opacity: 1; stroke-width: 1.3px; opacity: 1;"/></g><g class="points"/><g class="text"/></g><g class="trace scatter trace4fe50c" style="stroke-miterlimit: 2; opacity: 1;"><g class="fills"/><g class="errorbars"/><g class="lines"><path class="js-line" d="M0,124.23L3.03,120.24L6.06,118.21L9.09,116.02L12.13,114.95L18.19,117L21.22,120.32L24.25,120.4L27.28,118.35L30.32,117L33.35,114.63L36.38,114.37L39.41,119.28L42.44,121.86L45.47,121.65L48.51,121.5L51.54,123.03L54.57,117.25L57.6,113.16L60.63,108.93L63.66,109.88L66.69,110.75L69.73,103.64L72.76,101.63L75.79,103.57L78.82,102.24L81.85,103.48L84.88,98.62L87.92,101.03L90.95,96.67L93.98,96.24L97.01,92.96L100.04,96.34L103.07,84.6L106.11,83.78L109.14,76.06L112.17,81.06L115.2,79.82L118.23,79.55L121.26,79.1L124.29,72.24L127.33,69.63L130.36,70.4L133.39,64.13L136.42,72.71L139.45,73.28L142.48,69.39L145.52,72.32L148.55,68.36L151.58,67.8L154.61,71.61L157.64,69.13L160.67,60.52L163.71,77.44L166.74,66.7L169.77,66.84L172.8,79.38L175.83,74.06L178.86,77.22L181.89,75.06L184.93,80.25L190.99,87.89L194.02,86.55L197.05,92.86L200.08,93.67L203.12,94.85L206.15,101.6L215.24,100.78L218.27,103.97L221.31,109.74L224.34,112.69L227.37,117.58L230.4,116.19L236.46,117.98L239.49,117.32L242.53,116.01L245.56,116.55L248.59,114.6L251.62,117.93L254.65,117.39L257.68,118.53L260.72,122.25L263.75,122.82L266.78,115.62L269.81,117.5L272.84,122.97L275.87,122.69L278.91,123.35L281.94,120.12L284.97,120.5L288,122.21" style="vector-effect: non-scaling-stroke; fill: none; stroke: rgb(50, 171, 96); stroke-opacity: 1; stroke-width: 1.3px; opacity: 1;"/></g><g class="points"/><g class="text"/></g><g class="trace scatter trace87a010" style="stroke-miterlimit: 2; opacity: 1;"><g class="fills"/><g class="errorbars"/><g class="lines"><path class="js-line" d="M0,142.65L3.03,145.35L6.06,144.6L9.09,146.79L12.13,144.16L15.16,144.8L18.19,142.67L24.25,143.22L27.28,140.75L30.32,140.99L33.35,139.24L36.38,143.15L39.41,143.62L45.47,139.43L48.51,141.05L54.57,136.15L57.6,131.79L60.63,134.02L63.66,127.84L69.73,120.91L72.76,119.85L78.82,113.74L81.85,112.13L84.88,101.49L87.92,98.61L93.98,95.5L97.01,86.28L100.04,87.05L103.07,80.43L106.11,79.96L109.14,76.74L112.17,73.94L115.2,74.94L118.23,72.7L121.26,63.14L124.29,65.42L127.33,59.02L130.36,57.16L133.39,61.25L136.42,64.48L139.45,62.38L142.48,61.89L145.52,55.91L148.55,59.96L151.58,61.09L154.61,66.13L157.64,59.14L160.67,61.28L163.71,56.09L166.74,54.73L169.77,60.31L172.8,69.78L175.83,65.77L178.86,73.08L181.89,69.82L184.93,72.36L187.96,79.92L190.99,81.03L194.02,87.7L197.05,91.79L200.08,100.66L203.12,100.92L206.15,103.01L209.18,110.34L212.21,115.7L218.27,125.23L221.31,127.82L224.34,129.94L227.37,127.41L230.4,124.93L233.43,130.95L239.49,129.41L242.53,134.6L245.56,135.44L248.59,140.38L251.62,134.53L254.65,135.97L257.68,133.43L260.72,137.33L269.81,140.69L272.84,143.67L278.91,143.07L281.94,143.35L288,146.22" style="vector-effect: non-scaling-stroke; fill: none; stroke: rgb(128, 0, 128); stroke-opacity: 1; stroke-width: 1.3px; opacity: 1;"/></g><g class="points"/><g class="text"/></g><g class="trace scatter tracea0bb8a" style="stroke-miterlimit: 2; opacity: 1;"><g class="fills"/><g class="errorbars"/><g class="lines"><path class="js-line" d="M0,147.47L3.03,147.42L6.06,148.8L12.13,148.81L15.16,146.34L18.19,147.14L21.22,146.89L24.25,148.23L27.28,145.88L30.32,145.78L33.35,144.92L36.38,146.7L39.41,146.5L42.44,147.6L45.47,141.85L51.54,140.87L54.57,141L57.6,137.1L60.63,136.7L66.69,133.6L69.73,132.05L72.76,132.29L75.79,130.83L78.82,124.1L81.85,124.56L84.88,117.02L87.92,117.52L90.95,114.22L93.98,114.79L97.01,107.21L100.04,107.33L103.07,108.52L106.11,98.89L109.14,95.48L112.17,97.01L115.2,95.56L118.23,90.26L124.29,89.39L127.33,94.19L130.36,87.54L133.39,83.17L136.42,91.64L139.45,94.77L142.48,90.31L145.52,91L148.55,87L151.58,85.76L154.61,90.3L157.64,86.45L160.67,90.84L163.71,92.43L166.74,89.05L169.77,93.64L172.8,93.04L175.83,85.06L178.86,94.24L181.89,98.72L184.93,107.29L187.96,103.15L190.99,101.72L194.02,101.52L197.05,107.51L200.08,110.61L203.12,111.78L206.15,117.94L209.18,129.21L212.21,127.84L218.27,131.25L221.31,132.05L224.34,133.91L227.37,133.33L230.4,131.55L233.43,134.07L236.46,132.35L239.49,134.2L245.56,139.95L248.59,140.37L251.62,138.95L254.65,140.36L257.68,140.45L260.72,139.52L266.78,142.43L269.81,142.1L272.84,144.3L275.87,144.69L278.91,145.9L281.94,143.79L284.97,144.47L288,146.71" style="vector-effect: non-scaling-stroke; fill: none; stroke: rgb(219, 64, 82); stroke-opacity: 1; stroke-width: 1.3px; opacity: 1;"/></g><g class="points"/><g class="text"/></g></g></g><g class="overplot"/><path class="xlines-above crisp" d="M0,0" style="fill: none;"/><path class="ylines-above crisp" d="M0,0" style="fill: none;"/><g class="overlines-above"/><g class="xaxislayer-above"><g class="xtick"><text text-anchor="start" x="0" y="170" transform="translate(45,0) rotate(30,0,164)" style="font-family: 'Open Sans', verdana, arial, sans-serif; font-size: 12px; fill: rgb(42, 63, 95); fill-opacity: 1; white-space: pre; opacity: 1;">00:00:00</text></g><g class="xtick"><text text-anchor="start" x="0" y="170" transform="translate(81.38,0) rotate(30,0,164)" style="font-family: 'Open Sans', verdana, arial, sans-serif; font-size: 12px; fill: rgb(42, 63, 95); fill-opacity: 1; white-space: pre; opacity: 1;">03:00:00</text></g><g class="xtick"><text text-anchor="start" x="0" y="170" transform="translate(117.76,0) rotate(30,0,164)" style="font-family: 'Open Sans', verdana, arial, sans-serif; font-size: 12px; fill: rgb(42, 63, 95); fill-opacity: 1; white-space: pre; opacity: 1;">06:00:00</text></g><g class="xtick"><text text-anchor="start" x="0" y="170" transform="translate(154.14,0) rotate(30,0,164)" style="font-family: 'Open Sans', verdana, arial, sans-serif; font-size: 12px; fill: rgb(42, 63, 95); fill-opacity: 1; white-space: pre; opacity: 1;">09:00:00</text></g><g class="xtick"><text text-anchor="start" x="0" y="170" transform="translate(190.52,0) rotate(30,0,164)" style="font-family: 'Open Sans', verdana, arial, sans-serif; font-size: 12px; fill: rgb(42, 63, 95); fill-opacity: 1; white-space: pre; opacity: 1;">12:00:00</text></g><g class="xtick"><text text-anchor="start" x="0" y="170" transform="translate(226.89,0) rotate(30,0,164)" style="font-family: 'Open Sans', verdana, arial, sans-serif; font-size: 12px; fill: rgb(42, 63, 95); fill-opacity: 1; white-space: pre; opacity: 1;">15:00:00</text></g><g class="xtick"><text text-anchor="start" x="0" y="170" transform="translate(263.27,0) rotate(30,0,164)" style="font-family: 'Open Sans', verdana, arial, sans-serif; font-size: 12px; fill: rgb(42, 63, 95); fill-opacity: 1; white-space: pre; opacity: 1;">18:00:00</text></g><g class="xtick"><text text-anchor="start" x="0" y="170" transform="translate(299.65,0) rotate(30,0,164)" style="font-family: 'Open Sans', verdana, arial, sans-serif; font-size: 12px; fill: rgb(42, 63, 95); fill-opacity: 1; white-space: pre; opacity: 1;">21:00:00</text></g></g><g class="yaxislayer-above"><g class="ytick"><text text-anchor="end" x="44" y="4.199999999999999" transform="translate(0,135.38)" style="font-family: 'Open Sans', verdana, arial, sans-serif; font-size: 12px; fill: rgb(42, 63, 95); fill-opacity: 1; white-space: pre; opacity: 1;">0.5</text></g><g class="ytick"><text text-anchor="end" x="44" y="4.199999999999999" style="font-family: 'Open Sans', verdana, arial, sans-serif; font-size: 12px; fill: rgb(42, 63, 95); fill-opacity: 1; white-space: pre; opacity: 1;" transform="translate(0,93.79)">1</text></g><g class="ytick"><text text-anchor="end" x="44" y="4.199999999999999" style="font-family: 'Open Sans', verdana, arial, sans-serif; font-size: 12px; fill: rgb(42, 63, 95); fill-opacity: 1; white-space: pre; opacity: 1;" transform="translate(0,52.19)">1.5</text></g><g class="ytick"><text text-anchor="end" x="44" y="4.199999999999999" style="font-family: 'Open Sans', verdana, arial, sans-serif; font-size: 12px; fill: rgb(42, 63, 95); fill-opacity: 1; white-space: pre; opacity: 1;" transform="translate(0,10.6)">2</text></g></g><g class="overaxes-above"/></g></g><g class="polarlayer"/><g class="smithlayer"/><g class="ternarylayer"/><g class="geolayer"/><g class="funnelarealayer"/><g class="pielayer"/><g class="iciclelayer"/><g class="treemaplayer"/><g class="sunburstlayer"/><g class="glimages"/><defs id="topdefs-c39220"><g class="clips"/><clipPath id="legendc39220"><rect width="161" height="105" x="0" y="0"/></clipPath></defs><g class="layer-above"><g class="imagelayer"/><g class="shapelayer"/></g><g class="infolayer"><g class="legend" pointer-events="all" transform="translate(338.76,0)"><rect class="bg" shape-rendering="crispEdges" width="161" height="105" x="0" y="0" style="stroke: rgb(68, 68, 68); stroke-opacity: 1; fill: rgb(255, 255, 255); fill-opacity: 1; stroke-width: 0px;"/><g class="scrollbox" transform="" clip-path="url(#legendc39220)"><g class="groups"><g class="traces" transform="translate(0,14.5)" style="opacity: 1;"><text class="legendtext" text-anchor="start" x="40" y="4.680000000000001" style="font-family: 'Open Sans', verdana, arial, sans-serif; font-size: 12px; fill: rgb(42, 63, 95); fill-opacity: 1; white-space: pre;">operational</text><g class="layers" style="opacity: 1;"><g class="legendfill"/><g class="legendlines"><path class="js-line" d="M5,0h30" style="fill: none; stroke: rgb(255, 153, 51); stroke-opacity: 1; stroke-width: 1.3px;"/></g><g class="legendsymbols"><g class="legendpoints"/></g></g><rect class="legendtoggle" x="0" y="-9.5" width="155.578125" height="19" style="fill: rgb(0, 0, 0); fill-opacity: 0;"/></g><g class="traces" transform="translate(0,33.5)" style="opacity: 1;"><text class="legendtext" text-anchor="start" x="40" y="4.680000000000001" style="font-family: 'Open Sans', verdana, arial, sans-serif; font-size: 12px; fill: rgb(42, 63, 95); fill-opacity: 1; white-space: pre;">original_weather</text><g class="layers" style="opacity: 1;"><g class="legendfill"/><g class="legendlines"><path class="js-line" d="M5,0h30" style="fill: none; stroke: rgb(55, 128, 191); stroke-opacity: 1; stroke-width: 1.3px;"/></g><g class="legendsymbols"><g class="legendpoints"/></g></g><rect class="legendtoggle" x="0" y="-9.5" width="155.578125" height="19" style="fill: rgb(0, 0, 0); fill-opacity: 0;"/></g><g class="traces" transform="translate(0,52.5)" style="opacity: 1;"><text class="legendtext" text-anchor="start" x="40" y="4.680000000000001" style="font-family: 'Open Sans', verdana, arial, sans-serif; font-size: 12px; fill: rgb(42, 63, 95); fill-opacity: 1; white-space: pre;">perfect_solar</text><g class="layers" style="opacity: 1;"><g class="legendfill"/><g class="legendlines"><path class="js-line" d="M5,0h30" style="fill: none; stroke: rgb(50, 171, 96); stroke-opacity: 1; stroke-width: 1.3px;"/></g><g class="legendsymbols"><g class="legendpoints"/></g></g><rect class="legendtoggle" x="0" y="-9.5" width="155.578125" height="19" style="fill: rgb(0, 0, 0); fill-opacity: 0;"/></g><g class="traces" transform="translate(0,71.5)" style="opacity: 1;"><text class="legendtext" text-anchor="start" x="40" y="4.680000000000001" style="font-family: 'Open Sans', verdana, arial, sans-serif; font-size: 12px; fill: rgb(42, 63, 95); fill-opacity: 1; white-space: pre;">perfect_wind</text><g class="layers" style="opacity: 1;"><g class="legendfill"/><g class="legendlines"><path class="js-line" d="M5,0h30" style="fill: none; stroke: rgb(128, 0, 128); stroke-opacity: 1; stroke-width: 1.3px;"/></g><g class="legendsymbols"><g class="legendpoints"/></g></g><rect class="legendtoggle" x="0" y="-9.5" width="155.578125" height="19" style="fill: rgb(0, 0, 0); fill-opacity: 0;"/></g><g class="traces" transform="translate(0,90.5)" style="opacity: 1;"><text class="legendtext" text-anchor="start" x="40" y="4.680000000000001" style="font-family: 'Open Sans', verdana, arial, sans-serif; font-size: 12px; fill: rgb(42, 63, 95); fill-opacity: 1; white-space: pre;">perfect_wind_solar</text><g class="layers" style="opacity: 1;"><g class="legendfill"/><g class="legendlines"><path class="js-line" d="M5,0h30" style="fill: none; stroke: rgb(219, 64, 82); stroke-opacity: 1; stroke-width: 1.3px;"/></g><g class="legendsymbols"><g class="legendpoints"/></g></g><rect class="legendtoggle" x="0" y="-9.5" width="155.578125" height="19" style="fill: rgb(0, 0, 0); fill-opacity: 0;"/></g></g></g><rect class="scrollbar" rx="20" ry="3" width="0" height="0" x="0" y="0" style="fill: rgb(128, 139, 164); fill-opacity: 1;"/></g><g class="g-gtitle"/><g class="g-xtitle"/><g class="g-ytitle" transform="translate(14.4248046875,0)"><text class="ytitle" transform="rotate(-90,-0.42499999999999716,78.5)" x="-0.42499999999999716" y="78.5" text-anchor="middle" style="font-family: 'Open Sans', verdana, arial, sans-serif; font-size: 14px; fill: rgb(42, 63, 95); opacity: 1; font-weight: normal; white-space: pre;">MAE [MW]</text></g></g></svg>
