<?xml version="1.0" encoding="utf-8"?>
<svg viewBox="29.778 93.588 587.267 412.548" style="" xmlns="http://www.w3.org/2000/svg">
  <defs>
    <clipPath id="clip337a49xyplot" class="plotclip">
      <rect width="421" height="220"/>
    </clipPath>
    <clipPath id="legend337a49">
      <rect width="79" height="67" x="0" y="0"/>
    </clipPath>
    <clipPath id="clipdc2d05xyplot" class="plotclip">
      <rect width="440" height="120"/>
    </clipPath>
  </defs>
  <g class="cartesianlayer">
    <g class="subplot xy">
      <g class="layer-subplot">
        <g class="shapelayer"/>
        <g class="imagelayer"/>
      </g>
      <g class="minor-gridlayer">
        <g class="x"/>
        <g class="y"/>
      </g>
      <g class="gridlayer">
        <g class="x">
          <path class="xgrid crisp" transform="translate(116.84,0)" d="M0,100v220" style="stroke: rgb(235, 240, 248); stroke-opacity: 1; stroke-width: 1px;"/>
          <path class="xgrid crisp" transform="translate(212.62,0)" d="M0,100v220" style="stroke: rgb(235, 240, 248); stroke-opacity: 1; stroke-width: 1px;"/>
          <path class="xgrid crisp" transform="translate(309.44,0)" d="M0,100v220" style="stroke: rgb(235, 240, 248); stroke-opacity: 1; stroke-width: 1px;"/>
          <path class="xgrid crisp" transform="translate(406.28,0)" d="M0,100v220" style="stroke: rgb(235, 240, 248); stroke-opacity: 1; stroke-width: 1px;"/>
        </g>
        <g class="y">
          <path class="ygrid crisp" transform="translate(0,298.6)" d="M80,0h421" style="stroke: rgb(235, 240, 248); stroke-opacity: 1; stroke-width: 1px;"/>
          <path class="ygrid crisp" transform="translate(0,246.57)" d="M80,0h421" style="stroke: rgb(235, 240, 248); stroke-opacity: 1; stroke-width: 1px;"/>
          <path class="ygrid crisp" transform="translate(0,142.53)" d="M80,0h421" style="stroke: rgb(235, 240, 248); stroke-opacity: 1; stroke-width: 1px;"/>
        </g>
      </g>
      <g class="zerolinelayer">
        <path class="yzl zl crisp" transform="translate(0,194.55)" d="M80,0h421" style="stroke: rgb(235, 240, 248); stroke-opacity: 1; stroke-width: 2px;"/>
      </g>
      <path class="xlines-below"/>
      <path class="ylines-below"/>
      <g class="overlines-below"/>
      <g class="xaxislayer-below"/>
      <g class="yaxislayer-below"/>
      <g class="overaxes-below"/>
      <g class="plot" transform="translate(80,100)" clip-path="url(#clip337a49xyplot)">
        <g class="scatterlayer mlayer">
          <g class="trace scatter trace4bb82c" style="stroke-miterlimit: 2; opacity: 1;">
            <g class="fills"/>
            <g class="errorbars"/>
            <g class="lines"/>
            <g class="points"/>
            <g class="text"/>
          </g>
          <g class="trace scatter trace7b260f" style="stroke-miterlimit: 2; opacity: 1;">
            <g class="fills"/>
            <g class="errorbars"/>
            <g class="lines">
              <path class="js-line" d="M0,22.86L2.1,37.43L3.16,39.92L5.26,24.42L6.32,22.45L7.37,27.34L8.42,24.11L10.53,60.94L11.58,29.31L12.63,22.45L13.68,55.74L14.74,76.45L15.79,63.02L16.84,102.04L17.89,69.89L18.94,69.99L20,28.06L22.1,34.51L23.15,42.73L25.26,62.92L26.31,25.46L27.37,25.98L28.42,29.21L29.47,32.85L30.52,66.14L31.58,60.94L32.63,89L34.73,29.31L35.78,31.29L36.84,54.08L37.89,60.32L38.94,81.96L39.99,71.35L41.05,102.87L42.1,56.68L43.15,57.3L44.21,34.51L45.26,36.28L46.31,57.72L47.36,56.99L48.42,40.45L49.47,42.32L50.52,36.08L51.57,38.05L52.63,47.1L53.68,62.4L54.73,60.73L55.78,40.45L56.83,35.66L57.89,53.55L58.94,57.61L59.99,40.97L61.05,61.05L63.15,41.69L64.2,65.52L65.26,40.86L66.31,47.94L67.36,22.76L68.41,52.2L69.47,57.51L70.52,29.83L71.57,83.1L72.62,81.96L73.67,32.54L74.73,38.68L75.78,61.67L76.83,47.1L78.94,27.44L79.99,42.63L81.04,56.36L82.1,45.44L83.15,50.02L84.2,49.81L85.25,29.62L86.31,40.65L88.41,34.31L89.46,83.1L90.51,80.92L91.57,63.34L93.67,35.76L94.73,48.04L95.78,53.97L96.83,43.15L97.88,53.45L98.94,53.35L99.99,37.53L101.04,50.64L102.09,44.19L103.15,32.64L104.2,40.13L105.25,38.05L106.3,56.05L107.35,40.24L109.46,36.39L110.51,35.45L111.57,37.32L112.62,57.4L114.72,36.28L115.78,34.51L116.83,39.61L117.88,38.26L118.93,21.92L119.99,48.14L121.04,55.01L122.09,49.29L124.19,32.23L125.25,40.45L126.3,32.54L127.35,56.16L128.4,56.26L129.46,38.05L130.51,44.29L131.56,33.99L132.62,36.39L133.67,36.7L134.72,56.36L135.77,41.28L136.83,25.77L137.88,52.62L138.93,37.95L139.98,38.99L141.03,39.92L142.09,57.92L143.14,49.81L144.19,35.35L145.24,34.62L146.3,44.61L147.35,77.17L148.4,62.29L149.46,60.84L150.51,49.18L151.56,52.83L152.61,45.54L153.67,45.75L154.72,50.02L155.77,46.17L156.82,62.4L158.93,54.18L159.98,55.01L161.03,58.34L162.08,74.36L163.14,49.71L164.19,73.43L167.35,52.31L168.4,53.97L169.45,50.33L170.51,63.34L171.56,49.71L172.61,70.83L173.66,44.29L174.72,41.07L175.77,42.63L176.82,42.32L178.92,55.53L179.98,51.06L181.03,55.01L182.08,33.58L183.14,35.76L184.19,25.46L187.35,60.01L188.4,43.15L190.5,30.35L191.56,43.25L192.61,63.02L193.66,65.83L196.82,36.39L197.87,21.09L198.92,17.55L199.98,24.21L202.08,50.33L203.13,21.4L204.19,20.47L205.24,25.36L207.34,17.35L208.4,43.25L209.45,50.43L210.5,22.76L211.55,29.1L212.6,22.65L213.66,22.76L214.71,20.26L215.76,44.19L216.82,46.9L217.87,18.18L218.92,24.21L219.97,25.25L221.03,43.98L223.13,34.93L224.18,33.58L225.24,35.55L226.29,27.65L227.34,24.84L228.39,50.54L229.44,48.14L230.5,48.98L231.55,41.49L232.6,25.88L233.65,25.77L234.71,11L236.81,21.09L237.87,32.12L238.92,31.81L239.97,27.86L242.08,21.72L243.13,32.23L244.18,33.27L245.23,43.88L246.28,56.68L247.34,31.5L248.39,36.39L249.44,55.22L250.49,46.9L251.55,75.09L252.6,46.17L253.65,50.54L254.71,37.32L255.76,36.08L256.81,50.33L257.86,35.24L258.92,64.27L259.97,54.91L261.02,51.79L262.07,45.44L263.13,13.29L264.18,14.12L266.28,32.54L267.33,65.94L268.39,84.84L269.44,16.31L270.49,42.53L271.55,25.15L272.6,18.6L273.65,38.16L274.7,32.54L275.76,40.24L276.81,18.8L277.86,16.62L279.97,43.88L281.02,35.76L283.12,68.54L284.17,20.05L285.23,21.82L286.28,30.25L287.33,29.83L288.39,26.5L289.44,29.31L290.49,49.71L291.54,16.41L292.6,16.51L293.65,74.88L294.7,18.49L295.75,38.47L296.81,32.33L297.86,41.69L298.91,28.58L299.96,19.84L301.01,45.96L303.12,25.77L304.17,38.36L305.23,41.28L306.28,27.86L307.33,20.16L308.38,36.49L309.44,13.91L310.49,21.09L312.59,64.9L313.65,15.89L315.75,26.29L316.8,40.34L317.85,32.12L318.91,48.35L319.96,60.01L321.01,39.92L322.07,32.64L323.12,44.5L324.17,84.77L325.22,92.33L327.33,59.07L328.38,69.37L329.43,34.93L330.49,92.78L331.54,32.23L332.59,37.84L333.64,52.51L334.69,42.73L335.75,19.53L336.8,27.96L337.85,19.32L338.9,33.79L339.96,20.47L341.01,42.42L342.06,59.07L343.12,46.69L344.17,18.39L345.22,32.23L346.27,91.04L347.33,34.31L348.38,40.03L349.43,32.95L350.48,19.74L351.53,21.4L352.59,31.91L353.64,95.59L354.69,34.2L355.74,126.8L356.8,47.31L357.85,81.75L358.9,68.43L359.96,24.21L363.11,89.21L364.17,72.91L365.22,49.5L366.27,63.23L367.32,28.38L368.38,35.35L369.43,27.75L370.48,72.91L371.53,91.4L372.58,95.59L373.64,37.22L374.69,66.46L375.74,69.27L376.8,41.59L377.85,46.06L378.9,63.54L379.95,91.43L381.01,36.6L383.11,69.68L384.16,49.5L385.22,42.21L386.27,56.05L387.32,47.73L388.37,24.53L389.42,46.69L390.48,42.21L391.53,32.95L392.58,66.98L394.69,35.45L395.74,42.01L397.85,47.1L398.9,81.02L399.95,57.4L401,59.07L402.06,31.29L403.11,33.47L404.16,43.15L405.21,34.93L406.26,41.69L407.32,67.6L409.42,38.26L410.48,31.6L412.58,25.25L413.63,25.25L414.69,46.69L415.74,51.16L416.79,22.55L417.84,22.55L418.9,33.37L419.95,94.55L421,94.55" style="vector-effect: non-scaling-stroke; fill: none; stroke: rgb(55, 128, 191); stroke-opacity: 1; stroke-width: 1.3px; opacity: 1;"/>
            </g>
            <g class="points"/>
            <g class="text"/>
          </g>
          <g class="trace scatter trace5c0980" style="stroke-miterlimit: 2; opacity: 1;">
            <g class="fills"/>
            <g class="errorbars"/>
            <g class="lines">
              <path class="js-line" d="M0,73.64L1.05,102.35L2.1,95.59L3.16,68.54L4.21,78.73L5.26,81.34L6.32,66.56L7.37,95.31L8.42,96.94L9.47,79.36L10.53,107.03L11.58,74.68L12.63,66.77L13.68,153.86L14.74,163.22L15.79,153.86L16.84,175.71L17.89,150.73L18.94,155.94L20,103.91L21.05,104.95L22.1,89.79L23.15,114.32L24.21,132.01L25.26,164.26L26.31,102.98L27.37,104.95L28.42,113.28L29.47,105.99L30.52,180.91L31.58,190.27L33.68,150.73L34.73,97.88L35.78,83.52L36.84,132.01L37.89,138.25L38.94,134.09L39.99,161.14L41.05,209L43.15,153.86L44.21,168.42L45.26,120.56L46.31,158.02L47.36,176.75L48.42,135.13L49.47,133.05L50.52,119.52L51.57,105.99L52.63,135.13L53.68,139.29L54.73,137.21L55.78,104.95L56.83,98.71L57.89,142.41L58.94,110.16L59.99,96.32L61.05,137.21L62.1,118.48L63.15,115.36L64.2,143.45L65.26,147.61L67.36,64.27L68.41,139.29L69.47,167.38L70.52,156.98L71.57,151.77L72.62,177.79L73.67,113.28L74.73,147.61L75.78,134.09L76.83,176.75L78.94,97.88L79.99,102.04L81.04,140.33L82.1,65.94L84.2,121.6L85.25,81.23L86.31,98.61L87.36,100.79L88.41,119.52L89.46,164.26L91.57,182.99L92.62,134.09L94.73,152.82L95.78,139.29L96.83,104.95L97.88,111.2L98.94,144.49L99.99,110.16L101.04,134.09L102.09,116.4L103.15,102.98L104.2,103.29L105.25,98.19L106.3,136.17L107.35,102.98L108.41,95.9L109.46,96.42L110.51,99.44L111.57,98.5L112.62,176.75L113.67,133.05L114.72,127.84L115.78,92.81L116.83,97.05L117.88,128.88L118.93,126.8L119.99,107.03L121.04,134.09L122.09,107.03L123.14,111.2L124.19,87.19L125.25,84.04L126.3,87.34L127.35,109.12L128.4,151.77L129.46,111.2L131.56,80.4L132.62,84.56L133.67,107.03L134.72,112.24L136.83,88.23L137.88,177.79L139.98,104.23L141.03,89.97L142.09,114.32L143.14,116.4L145.24,67.6L146.3,126.8L147.35,139.29L148.4,95.28L149.46,136.17L150.51,136.17L152.61,103.5L153.67,102.98L154.72,111.2L155.77,95.9L156.82,142.41L157.88,132.01L158.93,105.99L159.98,119.52L162.08,178.83L163.14,116.4L164.19,170.5L165.24,127.84L166.3,125.76L167.35,112.24L168.4,116.4L169.45,101.62L170.51,134.09L171.56,142.41L172.61,192.35L173.66,153.86L175.77,98.82L176.82,109.12L177.87,163.22L178.92,151.77L179.98,145.53L181.03,182.99L183.14,112.24L184.19,62.09L186.29,93.3L187.35,102.35L188.4,135.13L189.45,93.3L192.61,142.41L193.66,150.73L194.71,108.08L195.76,104.23L196.82,71.35L197.87,69.16L198.92,56.36L199.98,75.82L201.03,116.4L202.08,113.28L203.13,83.31L204.19,78.32L205.24,92.92L206.29,85.67L207.34,80.92L208.4,96.21L209.45,102.77L210.5,71.66L211.55,92.68L212.6,76.03L213.66,113.28L214.71,64.27L216.82,121.6L217.87,79.25L222.08,160.1L223.13,73.22L225.24,109.12L226.29,96.21L227.34,135.13L228.39,133.05L229.44,123.68L230.5,143.45L231.55,144.49L232.6,152.82L233.65,142.41L234.71,103.08L235.76,76.65L236.81,81.54L237.87,96.84L238.92,92.47L241.02,127.84L242.08,84.04L244.18,129.92L245.23,84.84L246.28,94.17L247.34,79.77L248.39,136.17L249.44,150.73L250.49,155.94L251.55,148.65L252.6,91.43L253.65,108.08L254.71,78.63L255.76,89.17L256.81,109.12L257.86,91.64L258.92,133.05L259.97,117.44L261.02,120.56L262.07,158.02L263.13,73.22L264.18,61.46L266.28,77.9L267.33,149.69L268.39,161.14L269.44,125.76L270.49,78.01L271.55,78.84L272.6,68.95L273.65,102.25L274.7,100.48L275.76,78.84L276.81,65L277.86,68.54L279.97,115.36L281.02,121.6L282.07,117.44L283.12,138.25L285.23,82.27L286.28,67.71L288.39,122.64L289.44,68.75L290.49,133.05L291.54,147.61L293.65,134.09L294.7,139.29L295.75,119.52L296.81,82.69L297.86,73.01L298.91,101.42L299.96,126.8L301.01,125.76L302.07,84.49L303.12,92.08L304.17,91.53L305.23,141.37L306.28,83.1L307.33,81.13L308.38,79.98L309.44,76.34L310.49,58.76L311.54,79.88L312.59,108.08L313.65,75.82L315.75,65.21L316.8,89.79L317.85,123.68L318.91,110.16L319.96,112.24L321.01,89.94L322.07,85.26L323.12,127.84L324.17,164.26L325.22,167.38L326.28,121.6L327.33,172.58L329.43,139.29L330.49,160.1L331.54,146.57L332.59,148.65L334.69,130.97L335.75,67.91L337.85,70.72L338.9,84.25L339.96,83L341.01,74.05L343.12,133.05L344.17,78.21L346.27,159.06L347.33,116.4L348.38,103.08L349.43,68.02L351.53,65.62L352.59,144.49L354.69,159.06L355.74,177.79L357.85,156.98L358.9,154.9L359.96,158.02L361.01,102.04L362.06,154.9L363.11,163.22L365.22,164.26L366.27,153.86L368.38,121.6L369.43,159.06L370.48,169.46L371.53,160.1L372.58,144.49L373.64,153.86L374.69,143.45L375.74,167.38L376.8,142.41L377.85,185.07L378.9,148.65L379.95,150.73L381.01,143.45L382.06,168.42L383.11,151.77L384.16,167.38L385.22,101.42L386.27,154.9L387.32,134.09L388.37,80.5L390.48,113.28L391.53,105.99L392.58,126.8L393.64,117.44L394.69,87.58L395.74,149.69L396.79,116.4L397.85,125.76L398.9,169.46L399.95,148.65L402.06,123.68L403.11,69.99L404.16,150.73L405.21,160.1L406.26,109.12L407.32,181.95L408.37,186.11L409.42,102.14L410.48,95.35L411.53,97.15L413.63,105.99L414.69,130.97L415.74,135.13L416.79,68.95L417.84,97.25L418.9,94.55L421,94.55" style="vector-effect: non-scaling-stroke; fill: none; stroke: rgb(50, 171, 96); stroke-opacity: 1; stroke-width: 1.3px; opacity: 1;"/>
            </g>
            <g class="points"/>
            <g class="text"/>
          </g>
        </g>
      </g>
      <g class="overplot"/>
      <path class="xlines-above crisp" d="M0,0" style="fill: none;"/>
      <path class="ylines-above crisp" d="M0,0" style="fill: none;"/>
      <g class="overlines-above"/>
      <g class="xaxislayer-above">
        <g class="xtick">
          <text text-anchor="middle" x="0" y="333" transform="translate(116.84,0)" style="font-family: 'Open Sans', verdana, arial, sans-serif; font-size: 12px; fill: rgb(42, 63, 95); fill-opacity: 1; white-space: pre; opacity: 1;">Apr 2021</text>
        </g>
        <g class="xtick">
          <text text-anchor="middle" x="0" y="333" style="font-family: 'Open Sans', verdana, arial, sans-serif; font-size: 12px; fill: rgb(42, 63, 95); fill-opacity: 1; white-space: pre; opacity: 1;" transform="translate(212.62,0)">Jul 2021</text>
        </g>
        <g class="xtick">
          <text text-anchor="middle" x="0" y="333" style="font-family: 'Open Sans', verdana, arial, sans-serif; font-size: 12px; fill: rgb(42, 63, 95); fill-opacity: 1; white-space: pre; opacity: 1;" transform="translate(309.44,0)">Oct 2021</text>
        </g>
        <g class="xtick">
          <text text-anchor="middle" x="0" y="333" style="font-family: 'Open Sans', verdana, arial, sans-serif; font-size: 12px; fill: rgb(42, 63, 95); fill-opacity: 1; white-space: pre; opacity: 1;" transform="translate(406.28,0)">Jan 2022</text>
        </g>
        <g class="xtick">
          <text text-anchor="middle" x="0" y="333" style="font-family: 'Open Sans', verdana, arial, sans-serif; font-size: 12px; fill: rgb(42, 63, 95); fill-opacity: 1; white-space: pre; opacity: 1;" transform="translate(501,0)">Apr 2022</text>
        </g>
      </g>
      <g class="yaxislayer-above">
        <g class="ytick">
          <text text-anchor="end" x="79" y="4.199999999999999" transform="translate(0,298.6)" style="font-family: 'Open Sans', verdana, arial, sans-serif; font-size: 12px; fill: rgb(42, 63, 95); fill-opacity: 1; white-space: pre; opacity: 1;">−10</text>
        </g>
        <g class="ytick">
          <text text-anchor="end" x="79" y="4.199999999999999" style="font-family: 'Open Sans', verdana, arial, sans-serif; font-size: 12px; fill: rgb(42, 63, 95); fill-opacity: 1; white-space: pre; opacity: 1;" transform="translate(0,246.57)">−5</text>
        </g>
        <g class="ytick">
          <text text-anchor="end" x="79" y="4.199999999999999" style="font-family: 'Open Sans', verdana, arial, sans-serif; font-size: 12px; fill: rgb(42, 63, 95); fill-opacity: 1; white-space: pre; opacity: 1;" transform="translate(0,194.55)">0</text>
        </g>
        <g class="ytick">
          <text text-anchor="end" x="79" y="4.199999999999999" style="font-family: 'Open Sans', verdana, arial, sans-serif; font-size: 12px; fill: rgb(42, 63, 95); fill-opacity: 1; white-space: pre; opacity: 1;" transform="translate(0,142.53)">5</text>
        </g>
      </g>
      <g class="overaxes-above"/>
    </g>
  </g>
  <g class="infolayer">
    <g class="legend" pointer-events="all" transform="translate(509.42,100)">
      <rect class="bg" shape-rendering="crispEdges" style="stroke: rgb(68, 68, 68); stroke-opacity: 1; fill: rgb(255, 255, 255); fill-opacity: 1; stroke-width: 0px;" width="79" height="67" x="0" y="0"/>
      <g class="scrollbox" transform="" clip-path="url(#legend337a49)">
        <g class="groups">
          <g class="traces" transform="translate(0,33.5)" style="opacity: 1;">
            <text class="legendtext" text-anchor="start" x="40" y="4.680000000000001" style="font-family: 'Open Sans', verdana, arial, sans-serif; font-size: 12px; fill: rgb(42, 63, 95); fill-opacity: 1; white-space: pre;">max</text>
            <g class="layers" style="opacity: 1;">
              <g class="legendfill"/>
              <g class="legendlines">
                <path class="js-line" d="M5,0h30" style="fill: none; stroke: rgb(55, 128, 191); stroke-opacity: 1; stroke-width: 1.3px;"/>
              </g>
              <g class="legendsymbols">
                <g class="legendpoints"/>
              </g>
            </g>
            <rect class="legendtoggle" x="0" y="-9.5" width="73.625" height="19" style="fill: rgb(0, 0, 0); fill-opacity: 0;"/>
          </g>
          <g class="traces" transform="translate(0,52.5)" style="opacity: 1;">
            <text class="legendtext" text-anchor="start" x="40" y="4.680000000000001" style="font-family: 'Open Sans', verdana, arial, sans-serif; font-size: 12px; fill: rgb(42, 63, 95); fill-opacity: 1; white-space: pre;">min</text>
            <g class="layers" style="opacity: 1;">
              <g class="legendfill"/>
              <g class="legendlines">
                <path class="js-line" d="M5,0h30" style="fill: none; stroke: rgb(50, 171, 96); stroke-opacity: 1; stroke-width: 1.3px;"/>
              </g>
              <g class="legendsymbols">
                <g class="legendpoints"/>
              </g>
            </g>
            <rect class="legendtoggle" x="0" y="-9.5" width="73.625" height="19" style="fill: rgb(0, 0, 0); fill-opacity: 0;"/>
          </g>
          <g class="traces" transform="matrix(1, 0, 0, 1, -208.781819, 196.04193)" style="opacity: 1;">
            <text class="legendtext" text-anchor="start" x="40" y="4.680000000000001" style="font-family: 'Open Sans', verdana, arial, sans-serif; font-size: 12px; fill: rgb(42, 63, 95); fill-opacity: 1; white-space: pre;">mean</text>
            <g class="layers" style="opacity: 1;">
              <g class="legendfill"/>
              <g class="legendlines">
                <path class="js-line" d="M5,0h30" style="fill: none; stroke: rgb(255, 153, 51); stroke-opacity: 1; stroke-width: 1.3px;"/>
              </g>
              <g class="legendsymbols">
                <g class="legendpoints"/>
              </g>
            </g>
            <rect class="legendtoggle" x="0" y="-9.5" width="73.625" height="19" style="fill: rgb(0, 0, 0); fill-opacity: 0;"/>
          </g>
        </g>
      </g>
      <rect class="scrollbar" rx="20" ry="3" width="0" height="0" style="fill: rgb(128, 139, 164); fill-opacity: 1;" x="0" y="0"/>
    </g>
    <g class="g-gtitle"/>
    <g class="g-xtitle"/>
    <g class="g-ytitle" transform="matrix(1, 0, 0, 1, 16.165266, 2.55241)">
      <text class="ytitle" transform="rotate(-90,29.121875000000003,210)" x="29.121875000000003" y="210" text-anchor="middle" style="font-family: 'Open Sans', verdana, arial, sans-serif; font-size: 14px; fill: rgb(42, 63, 95); opacity: 1; font-weight: normal; white-space: pre;">Daily load [MW]</text>
    </g>
  </g>
  <g class="cartesianlayer" transform="matrix(0.954188, 0, 0, 1, -0.732107, 255.818146)" style="">
    <g class="subplot xy">
      <g class="layer-subplot">
        <g class="shapelayer"/>
        <g class="imagelayer"/>
      </g>
      <g class="minor-gridlayer">
        <g class="x"/>
        <g class="y"/>
      </g>
      <g class="gridlayer">
        <g class="x">
          <path class="xgrid crisp" transform="translate(135.07,0)" d="M0,100v120" style="stroke: rgb(235, 240, 248); stroke-opacity: 1; stroke-width: 1px;"/>
          <path class="xgrid crisp" transform="translate(245.22,0)" d="M0,100v120" style="stroke: rgb(235, 240, 248); stroke-opacity: 1; stroke-width: 1px;"/>
          <path class="xgrid crisp" transform="translate(355.36,0)" d="M0,100v120" style="stroke: rgb(235, 240, 248); stroke-opacity: 1; stroke-width: 1px;"/>
          <path class="xgrid crisp" transform="translate(465.5,0)" d="M0,100v120" style="stroke: rgb(235, 240, 248); stroke-opacity: 1; stroke-width: 1px;"/>
        </g>
        <g class="y">
          <path class="ygrid crisp" transform="translate(0,207.56)" d="M80,0h440" style="stroke: rgb(235, 240, 248); stroke-opacity: 1; stroke-width: 1px;"/>
          <path class="ygrid crisp" transform="translate(0,175.36)" d="M80,0h440" style="stroke: rgb(235, 240, 248); stroke-opacity: 1; stroke-width: 1px;"/>
          <path class="ygrid crisp" transform="translate(0,110.96000000000001)" d="M80,0h440" style="stroke: rgb(235, 240, 248); stroke-opacity: 1; stroke-width: 1px;"/>
        </g>
      </g>
      <g class="zerolinelayer">
        <path class="yzl zl crisp" transform="translate(0,143.16)" d="M80,0h440" style="stroke: rgb(235, 240, 248); stroke-opacity: 1; stroke-width: 2px;"/>
      </g>
      <path class="xlines-below"/>
      <path class="ylines-below"/>
      <g class="overlines-below"/>
      <g class="xaxislayer-below"/>
      <g class="yaxislayer-below"/>
      <g class="overaxes-below"/>
      <g class="plot" transform="translate(80,100)" clip-path="url(#clipdc2d05xyplot)">
        <g class="scatterlayer mlayer">
          <g class="trace scatter tracecbfd9b" style="stroke-miterlimit: 2; opacity: 1;">
            <g class="fills"/>
            <g class="errorbars"/>
            <g class="lines">
              <path class="js-line" d="M0,36.8L0.57,38.95L1.15,35.82L2.29,36.59L2.87,34.53L3.44,34.66L4.02,33.43L4.59,34.79L5.16,41.36L6.31,37.96L6.88,39.6L8.03,38.22L8.6,33.63L9.18,37.41L9.75,29.18L10.33,36.2L10.9,29.83L11.47,31.37L12.05,25.06L13.19,29.57L13.77,21.97L14.34,22.29L14.92,26.42L15.49,25.77L16.06,28.03L16.64,28.28L17.21,26.61L17.78,25L18.36,28.28L19.5,28.73L20.08,33.89L20.65,35.11L21.23,42.71L22.37,43.09L22.95,47.54L24.09,48.12L24.67,45.61L26.39,51.53L26.96,56.04L27.54,56.04L28.11,66.34L30.4,61.84L30.98,61.19L32.13,66.99L32.7,62.48L33.27,63.77L33.85,63.12L34.99,60.55L35.57,60.55L37.29,54.11L37.86,48.89L38.44,54.75L39.01,48.31L39.58,45.86L40.16,50.24L40.73,42.86L41.3,47.54L41.88,44.7L42.45,48.83L43.02,50.24L43.6,48.12L44.17,57.97L44.75,56.04L45.32,53.46L45.89,57.33L46.47,56.04L47.61,68.28L48.19,63.77L48.76,61.19L49.34,62.48L49.91,70.21L50.48,65.7L51.06,66.99L51.63,66.34L52.2,68.28L52.78,66.34L53.35,67.63L53.92,66.99L55.07,67.63L55.65,65.7L57.94,58.62L58.51,60.55L60.23,57.33L60.81,58.62L61.96,60.55L62.53,59.26L64.25,54.75L64.82,52.82L65.4,52.82L65.97,51.53L67.12,49.47L67.69,48.96L68.84,45.48L69.41,47.6L69.99,42.58L70.56,43.14L71.13,41.12L71.71,42.45L72.28,39.98L72.86,40.13L73.43,38.99L74,39.53L74.58,46.77L75.15,46.77L75.72,48.96L76.87,46.96L77.44,50.24L78.02,46.7L78.59,51.53L79.17,56.68L79.74,53.46L81.46,59.9L82.03,58.62L83.18,66.99L83.75,63.77L85.48,52.82L86.05,50.89L86.62,56.04L87.2,52.82L87.77,54.11L88.34,50.24L90.07,40.07L90.64,43.37L91.21,46.31L91.79,38.73L92.36,37.96L92.93,39.53L94.08,43.44L94.65,39.19L95.8,36.46L96.38,38.2L96.95,37.67L97.52,39.87L98.1,35.37L98.67,38.54L99.24,40.69L99.82,38.57L100.39,36.59L100.96,41.01L101.54,36.72L102.11,40.31L103.26,37.58L103.83,38.61L104.41,37.56L104.98,39.21L106.13,40.02L106.7,38.26L107.85,44.9L108.42,39.87L109,40.26L109.57,41.74L110.14,38.22L110.72,39.17L111.29,39.75L112.44,40.22L113.01,39.55L114.73,31.95L115.31,33.63L115.88,35.75L116.45,32.28L117.03,34.98L117.6,32.98L118.17,33.95L118.75,31.44L119.32,31.31L119.9,32.4L121.62,28.8L122.19,30.6L123.34,31.82L123.91,30.09L125.06,32.6L125.63,31.63L126.21,30.47L126.78,32.08L127.35,32.21L127.93,36.08L129.65,31.12L130.22,34.53L131.37,39.12L131.94,39.44L132.52,36.2L133.09,37.86L133.66,38.12L134.24,39.49L134.81,39.68L135.38,41.98L135.96,43.18L136.53,46.38L139.4,57.97L139.97,65.06L142.84,81.8L143.42,84.38L145.14,78.58L145.71,80.51L146.86,71.5L147.43,74.07L148.01,71.5L148.58,74.07L150.87,50.24L151.45,50.89L153.17,54.75L153.74,61.19L154.32,58.62L154.89,59.26L155.46,59.9L156.04,60.55L156.61,59.9L157.18,57.33L157.76,57.97L158.33,61.19L158.9,61.19L159.48,65.06L160.05,61.84L160.63,63.12L161.77,70.21L162.35,78.58L163.49,81.8L164.07,81.16L165.22,77.29L165.79,81.8L166.36,81.8L166.94,83.09L169.8,89.53L170.38,88.88L172.1,86.95L172.67,85.02L173.25,86.31L173.82,85.66L174.39,81.8L174.97,82.44L175.54,83.09L176.69,88.24L177.26,84.38L178.41,87.6L178.98,84.38L179.56,84.38L180.13,79.87L181.28,86.31L181.85,72.14L183.57,88.88L184.15,81.16L184.72,96.61L185.29,88.88L187.01,107.56L187.59,105.63L188.16,107.56L188.74,106.27L189.31,106.27L189.88,92.1L190.46,107.56L191.03,106.27L191.6,98.54L192.18,100.48L192.75,107.56L193.32,107.56L193.9,87.6L195.05,61.19L195.62,81.8L196.19,114L196.77,107.56L197.34,97.9L197.91,79.87L198.49,93.39L199.63,50.89L200.21,54.75L201.93,83.73L202.5,69.56L203.08,69.56L203.65,64.41L204.22,49.34L204.8,59.9L207.67,70.21L208.24,66.34L208.81,63.77L209.39,71.5L210.53,72.78L211.11,68.92L212.83,73.43L213.4,72.14L213.98,66.99L214.55,72.78L215.12,72.78L215.7,77.29L216.27,79.22L216.84,75.36L219.14,48.31L219.71,64.41L220.86,79.22L221.43,76L222.01,79.22L222.58,78.58L223.16,79.22L223.73,74.72L224.3,78.58L226.6,73.43L227.17,70.85L227.74,68.92L228.32,73.43L229.47,66.99L230.04,49.53L231.19,39.73L231.76,50.89L232.33,49.6L232.91,36.89L233.48,46.57L234.05,32.21L234.63,46.83L235.2,37.69L235.78,42.52L236.35,34.66L238.07,22.36L238.64,19.72L239.22,42.21L239.79,29.7L241.51,76L242.09,75.36L242.66,75.36L243.23,72.14L243.81,61.84L244.95,70.85L245.53,67.63L246.1,64.41L246.68,56.68L247.82,74.72L248.4,70.85L248.97,74.07L249.54,54.75L250.12,52.18L250.69,59.26L251.26,62.48L251.84,88.88L252.41,83.73L252.99,68.92L253.56,56.04L254.13,66.99L254.71,67.63L255.28,75.36L255.85,75.36L256.43,65.06L258.15,40.56L258.72,44.58L259.3,61.19L259.87,49.41L260.44,54.11L261.02,46.64L262.16,45.22L262.74,35.24L264.46,49.6L265.03,41.81L266.18,64.41L266.75,60.55L267.33,55.4L267.9,59.9L268.47,64.41L269.05,61.19L269.62,58.62L270.2,59.9L270.77,57.97L271.34,69.56L273.06,39.28L273.64,28.8L274.78,62.48L275.36,43.59L275.93,29.38L276.51,45.28L277.65,31.7L278.23,45.09L278.8,47.6L279.37,43.78L280.52,77.29L281.1,74.07L281.67,72.14L282.24,74.72L285.11,20.1L285.68,22.29L286.26,44.13L286.83,39.04L287.41,36.08L288.55,30.79L289.13,31.89L290.27,52.82L290.85,40.58L291.42,54.75L291.99,51.53L292.57,62.48L293.14,63.77L293.72,68.28L296.01,79.87L296.58,74.72L297.73,72.78L298.31,63.12L298.88,76.65L299.45,66.99L300.6,79.87L301.17,73.43L301.75,63.12L302.32,72.78L302.89,74.07L303.47,65.7L304.04,74.07L304.62,65.06L305.19,50.89L305.76,57.33L306.34,57.33L306.91,49.41L308.06,68.92L308.63,57.97L309.2,60.55L309.78,68.28L310.35,55.4L310.93,72.78L311.5,75.36L312.07,72.78L312.65,72.78L313.22,68.92L313.79,69.56L314.37,68.28L315.51,43.37L316.09,42.69L316.66,56.04L317.24,48.5L317.81,56.04L318.38,45.22L318.96,34.66L319.53,35.56L320.1,52.18L321.25,44.45L321.83,32.98L322.4,44L322.97,28.67L324.12,54.75L324.69,47.86L325.84,34.59L326.41,40.89L328.14,51.53L328.71,51.53L329.86,57.33L330.43,52.82L331.58,62.48L332.15,33.89L333.3,24.35L333.87,35.11L334.45,36.2L335.02,31.82L336.17,39.02L336.74,41.36L337.31,42.67L337.89,30.47L338.46,28.15L339.04,30.86L339.61,28.86L340.18,41.25L341.33,25.84L341.9,29.89L344.2,6L344.77,7.29L346.49,17.85L347.07,16.05L347.64,16.75L348.21,15.27L348.79,16.88L349.36,14.76L350.51,26.22L351.08,27.96L353.38,56.68L353.95,57.97L354.52,60.55L355.1,70.21L355.67,88.88L356.25,85.66L356.82,83.09L357.39,77.94L357.97,80.51L358.54,81.16L359.11,77.94L360.26,74.72L360.83,77.29L361.98,79.22L362.56,79.22L363.7,69.56L364.28,71.5L365.42,68.28L366,58.62L366.57,58.62L367.14,56.68L368.29,55.4L368.87,54.75L370.01,52.82L370.59,48.5L371.16,49.21L371.73,46.77L372.88,38.72L373.46,40.47L374.03,41.36L374.6,44.96L376.9,57.33L377.47,55.4L378.62,51.53L379.19,56.04L380.34,60.55L380.91,59.9L381.49,60.55L382.06,63.77L383.21,64.41L383.78,63.12L384.93,57.33L385.5,59.26L386.65,55.4L387.22,52.18L388.37,49.28L388.94,48.7L389.52,50.89L390.09,48.63L391.81,55.4L392.39,55.4L394.68,49.21L395.25,44.51L396.4,39.23L396.98,34.92L398.12,29.64L398.7,32.34L400.99,29.89L401.56,34.92L403.29,31.05L403.86,32.47L405.01,37.12L405.58,36.14L406.15,39.92L406.73,49.6L407.3,48.38L407.87,51.53L408.45,54.75L409.02,49.6L410.74,30.21L411.32,18.69L411.89,24.1L412.46,13.99L413.04,7.09L413.61,7.67L414.19,7.87L415.33,13.6L415.91,15.21L417.05,16.18L417.63,21.46L418.77,25.64L419.35,24.48L421.64,13.92L422.22,14.24L423.36,15.02L423.94,13.66L424.51,13.28L425.08,11.54L426.81,10.57L427.38,11.15L429.1,8.51L429.67,10.44L430.82,13.41L431.4,12.44L431.97,11.99L432.54,13.08L433.12,15.21L433.69,14.44L434.84,15.92L435.41,17.08L437.71,20.55L438.28,19.2L439.43,20.75L440,20.49" style="vector-effect: non-scaling-stroke; fill: none; stroke: rgb(255, 153, 51); stroke-opacity: 1; stroke-width: 1.3px; opacity: 1;"/>
            </g>
            <g class="points"/>
            <g class="text"/>
          </g>
        </g>
      </g>
      <g class="overplot"/>
      <path class="xlines-above crisp" d="M0,0" style="fill: none;"/>
      <path class="ylines-above crisp" d="M0,0" style="fill: none;"/>
      <g class="overlines-above"/>
      <g class="xaxislayer-above">
        <g class="xtick">
          <text text-anchor="middle" x="0" y="233" transform="translate(135.07,0)" style="font-family: 'Open Sans', verdana, arial, sans-serif; font-size: 12px; fill: rgb(42, 63, 95); fill-opacity: 1; white-space: pre; opacity: 1;"><tspan class="line" dy="0em" x="0" y="233">Apr 3</tspan><tspan class="line" dy="1.3em" x="0" y="233">2021</tspan></text>
        </g>
        <g class="xtick">
          <text text-anchor="middle" x="0" y="233" style="font-family: 'Open Sans', verdana, arial, sans-serif; font-size: 12px; fill: rgb(42, 63, 95); fill-opacity: 1; white-space: pre; opacity: 1;" transform="translate(245.22,0)">Apr 5</text>
        </g>
        <g class="xtick">
          <text text-anchor="middle" x="0" y="233" style="font-family: 'Open Sans', verdana, arial, sans-serif; font-size: 12px; fill: rgb(42, 63, 95); fill-opacity: 1; white-space: pre; opacity: 1;" transform="translate(355.36,0)">Apr 7</text>
        </g>
        <g class="xtick">
          <text text-anchor="middle" x="0" y="233" style="font-family: 'Open Sans', verdana, arial, sans-serif; font-size: 12px; fill: rgb(42, 63, 95); fill-opacity: 1; white-space: pre; opacity: 1;" transform="translate(465.5,0)">Apr 9</text>
        </g>
      </g>
      <g class="yaxislayer-above">
        <g class="ytick">
          <text text-anchor="end" x="79" y="4.199999999999999" transform="translate(0,207.56)" style="font-family: 'Open Sans', verdana, arial, sans-serif; font-size: 12px; fill: rgb(42, 63, 95); fill-opacity: 1; white-space: pre; opacity: 1;">−10</text>
        </g>
        <g class="ytick">
          <text text-anchor="end" x="79" y="4.199999999999999" style="font-family: 'Open Sans', verdana, arial, sans-serif; font-size: 12px; fill: rgb(42, 63, 95); fill-opacity: 1; white-space: pre; opacity: 1;" transform="translate(0,175.36)">−5</text>
        </g>
        <g class="ytick">
          <text text-anchor="end" x="79" y="4.199999999999999" style="font-family: 'Open Sans', verdana, arial, sans-serif; font-size: 12px; fill: rgb(42, 63, 95); fill-opacity: 1; white-space: pre; opacity: 1;" transform="translate(0,143.16)">0</text>
        </g>
        <g class="ytick">
          <text text-anchor="end" x="79" y="4.199999999999999" style="font-family: 'Open Sans', verdana, arial, sans-serif; font-size: 12px; fill: rgb(42, 63, 95); fill-opacity: 1; white-space: pre; opacity: 1;" transform="translate(0,110.96000000000001)">5</text>
        </g>
      </g>
      <g class="overaxes-above"/>
    </g>
  </g>
  <g class="infolayer" transform="matrix(1, 0, 0, 1, 13.731551, 257.519745)">
    <g class="g-gtitle"/>
    <g class="g-xtitle"/>
    <g class="g-ytitle">
      <text class="ytitle" transform="rotate(-90,29.121875000000003,160)" x="29.121875000000003" y="160" text-anchor="middle" style="font-family: 'Open Sans', verdana, arial, sans-serif; font-size: 14px; fill: rgb(42, 63, 95); opacity: 1; font-weight: normal; white-space: pre;">Load [MW]</text>
    </g>
  </g>
  <g class="traces" transform="matrix(1, 0, 0, 1, 512.913635, 372.614258)" style="opacity: 1;">
    <text class="legendtext" text-anchor="start" x="40" y="4.680000000000001" style="font-family: 'Open Sans', verdana, arial, sans-serif; font-size: 12px; fill: rgb(42, 63, 95); fill-opacity: 1; white-space: pre;">15 minute</text>
    <g class="layers" style="opacity: 1;">
      <g class="legendfill"/>
      <g class="legendlines">
        <path class="js-line" d="M5,0h30" style="fill: none; stroke: rgb(255, 153, 51); stroke-opacity: 1; stroke-width: 1.3px;"/>
      </g>
      <g class="legendsymbols">
        <g class="legendpoints"/>
      </g>
    </g>
    <text style="white-space: pre; fill: rgb(51, 51, 51); font-family: Arial, sans-serif; font-size: 13px;" x="1.954" y="-250.218">Daily</text>
  </g>
  <rect x="113.264" y="97.805" width="13.613" height="224.612" style="fill: rgb(216, 216, 216); stroke: rgb(0, 0, 0); fill-opacity: 0;"/>
  <line style="fill: rgb(216, 216, 216); stroke: rgb(0, 0, 0);" x1="113.075" y1="322.086" x2="80.933" y2="355.598"/>
  <line style="fill: rgb(216, 216, 216); stroke: rgb(0, 0, 0);" x1="126.689" y1="322.259" x2="496.126" y2="361.554"/>
</svg>