<svg class="main-svg" xmlns="http://www.w3.org/2000/svg" xmlns:xlink="http://www.w3.org/1999/xlink" width="450" height="200" style="" viewBox="0 0 450 200"><rect x="0" y="0" width="450" height="200" style="fill: rgb(255, 255, 255); fill-opacity: 1;"/><defs id="defs-cc8344"><g class="clips"><clipPath id="clipcc8344xyplot" class="plotclip"><rect width="279" height="168"/></clipPath><clipPath class="axesclip" id="clipcc8344x"><rect x="18" y="0" width="279" height="200"/></clipPath><clipPath class="axesclip" id="clipcc8344y"><rect x="0" y="0" width="450" height="168"/></clipPath><clipPath class="axesclip" id="clipcc8344xy"><rect x="18" y="0" width="279" height="168"/></clipPath></g><g class="gradients"/><g class="patterns"/></defs><g class="bglayer"/><g class="layer-below"><g class="imagelayer"/><g class="shapelayer"/></g><g class="cartesianlayer"><g class="subplot xy"><g class="layer-subplot"><g class="shapelayer"/><g class="imagelayer"/></g><g class="minor-gridlayer"><g class="x"/><g class="y"/></g><g class="gridlayer"><g class="x"><path class="xgrid crisp" transform="translate(64.5,0)" d="M0,0v168" style="stroke: rgb(235, 240, 248); stroke-opacity: 1; stroke-width: 1px;"/><path class="xgrid crisp" transform="translate(157.5,0)" d="M0,0v168" style="stroke: rgb(235, 240, 248); stroke-opacity: 1; stroke-width: 1px;"/><path class="xgrid crisp" transform="translate(250.5,0)" d="M0,0v168" style="stroke: rgb(235, 240, 248); stroke-opacity: 1; stroke-width: 1px;"/></g><g class="y"><path class="ygrid crisp" transform="translate(0,126)" d="M18,0h279" style="stroke: rgb(235, 240, 248); stroke-opacity: 1; stroke-width: 1px;"/><path class="ygrid crisp" transform="translate(0,21)" d="M18,0h279" style="stroke: rgb(235, 240, 248); stroke-opacity: 1; stroke-width: 1px;"/></g></g><g class="zerolinelayer"><path class="yzl zl crisp" transform="translate(0,73.5)" d="M18,0h279" style="stroke: rgb(235, 240, 248); stroke-opacity: 1; stroke-width: 2px;"/></g><path class="xlines-below"/><path class="ylines-below"/><g class="overlines-below"/><g class="xaxislayer-below"/><g class="yaxislayer-below"/><g class="overaxes-below"/><g class="plot" transform="translate(18,0)" clip-path="url(#clipcc8344xyplot)"><g class="scatterlayer mlayer"><g class="trace scatter trace2448cf" style="stroke-miterlimit: 2; opacity: 1;"><g class="fills"/><g class="errorbars"/><g class="lines"><path class="js-line" d="M-998.3,49.25L-987.64,15.43L-972.14,43.89L-971.66,45.26L-961.48,25.2L-953.25,48.3L-952.77,50.51L-941.14,14.38L-930.97,41.58L-930.48,46.52L-903.84,64L-899.48,45.99L-899,41.16L-896.58,24.67L-879.62,48.3L-875.75,47.25L-875.27,46.83L-849.11,24.67L-844.75,32.34L-844.27,33.07L-812.78,59.22L-812.3,57.44L-803.58,22.05L-792.44,48.72L-791.95,51.56L-754.66,8.19L-752.23,19.63L-751.75,22.78L-738.19,43.89L-731.41,21.32L-730.92,21.74L-720.75,45.99L-710.58,11.76L-710.09,10.18L-686.36,39.69L-685.87,35.49L-685.39,24.47L-682,20.16L-676.67,47.67L-676.19,48.3L-653.42,29.92L-651.97,37.28L-651.48,37.07L-647.12,42.42L-639.86,23.73L-639.37,24.78L-638.89,16.38L-633.08,50.51L-631.14,46.1L-630.66,46.31L-622.42,32.34L-621.94,24.05L-615.64,8.08L-607.89,29.61L-607.41,29.92L-576.41,62.9L-574.95,55.44L-574.47,53.97L-567.69,30.56L-558.48,47.04L-558,46.83L-543.47,54.81L-542.98,62.69L-531.84,78.75L-528.94,67.88L-528.45,62.37L-521.19,27.41L-509.08,36.85L-508.59,36.44L-501.33,24.25L-500.84,23.1L-497.45,12.18L-491.16,32.34L-487.77,32.03L-487.28,32.03L-477.59,9.87L-471.78,23.42L-471.3,26.78L-462.58,41.48L-457.25,38.64L-456.77,36.65L-450.47,14.7L-443.69,24.57L-443.2,27.41L-440.3,29.92L-434.97,19.11L-434.48,14.49L-428.19,5.77L-423.83,17.33L-423.34,21.95L-407.36,39.38L-406.87,37.59L-406.39,35.18L-399.61,54.71L-399.12,69.15L-387.5,106.05L-385.56,97.65L-385.08,90.3L-383.14,85.05L-378.78,103.95L-378.3,106.05L-363.28,121.8L-362.8,120.75L-362.31,115.5L-352.14,110.25L-350.69,112.35L-350.2,112.35L-337.12,69.99L-336.16,72.36L-335.67,73.44L-331.31,63.98L-325.98,108.15L-321.14,105L-320.66,105L-313.87,93.45L-313.39,92.4L-310.97,83.69L-306.61,98.7L-304.19,89.25L-303.7,103.95L-301.28,105L-292.08,73.74L-291.59,74.48L-289.66,40.74L-284.33,57.96L-283.84,63.18L-279.97,97.65L-275.61,76.97L-275.12,77.7L-266.89,119.7L-265.92,114.45L-265.44,113.4L-263.5,102.9L-260.59,117.6L-260.11,117.6L-259.62,118.65L-248,100.8L-247.52,96.6L-246.55,102.9L-239.77,85.05L-239.28,87.15L-238.8,85.05L-237.34,97.65L-236.37,91.35L-235.89,107.1L-232.98,108.15L-227.17,74.12L-226.69,75.81L-226.2,73.51L-225.23,74.47L-223.3,68.96L-222.33,69.1L-221.84,67.36L-218.45,78.12L-217.97,60.69L-217,76.33L-216.52,79.17L-215.06,78.65L-210.7,85.05L-209.25,83.16L-208.77,83.9L-206.83,88.2L-202.47,83.37L-201.98,82.32L-195.69,39.8L-194.72,47.36L-194.23,50.19L-191.81,47.99L-187.94,72.49L-187.45,72.81L-181.64,55.76L-181.16,62.16L-180.19,61.32L-179.7,62.27L-179.22,81.06L-176.8,103.95L-173.41,91.35L-172.92,91.35L-171.95,78.96L-167.59,82.22L-167.11,86.1L-162.75,113.4L-161.3,110.25L-160.81,109.2L-153.55,55.02L-151.12,62.37L-150.64,70.75L-149.19,72.45L-148.7,61.74L-148.22,33.07L-144.34,63.68L-143.86,65.92L-137.56,69.91L-137.08,70.44L-136.59,71.36L-135.14,64.8L-134.66,64.09L-134.17,66.53L-132.72,53.66L-132.23,50.3L-130.78,45.47L-130.3,45.26L-129.33,47.36L-128.84,39.38L-123.52,25.1L-123.03,26.88L-117.22,34.76L-116.25,32.03L-115.77,31.5L-110.92,29.61L-110.44,34.23L-104.14,22.05L-103.66,23L-102.69,30.35L-102.2,26.15L-101.72,21.95L-99.3,24.67L-98.81,25.83L-92.52,41.37L-92.03,41.16L-91.55,41.48L-89.12,41.06L-88.64,40.22L-84.77,39.27L-84.28,42.84L-83.31,46.62L-82.34,44.94L-81.86,47.57L-81.37,46.52L-80.89,51.66L-80.41,54.39L-79.44,52.61L-77.98,55.65L-77.5,57.12L-73.62,35.6L-72.66,41.27L-72.17,43.79L-71.69,45.36L-70.72,42.53L-70.23,38.01L-68.78,40.85L-68.3,35.91L-67.33,36.23L-66.84,36.02L-65.39,36.33L-64.91,32.87L-62.97,39.69L-62.48,38.32L-62,36.54L-57.16,14.91L-56.67,13.86L-55.22,13.02L-54.73,14.7L-54.25,15.33L-53.77,15.02L-53.28,17.75L-50.37,32.66L-49.89,33.18L-45.53,37.17L-45.05,36.12L-42.62,39.06L-42.14,38.74L-41.17,39.06L-40.69,36.75L-39.72,35.49L-39.23,37.49L-34.87,19.63L-34.39,23.63L-32.94,26.99L-32.45,23.83L-31,18.9L-30.52,19.42L-30.03,22.89L-28.09,23.52L-27.61,24.99L-26.64,22.89L-26.16,25.62L-23.73,37.59L-23.25,32.97L-21.8,25.73L-21.31,26.46L-20.83,26.04L-18.41,49.88L-17.92,38.43L-15.98,32.03L-15.5,37.17L-15.02,35.81L-14.53,30.66L-13.08,20.68L-12.59,20.48L-11.14,23.21L-10.66,22.68L-9.69,23.83L-9.2,26.57L-7.75,29.5L-7.27,30.77L-6.78,24.78L-6.3,27.2L-5.81,33.6L-5.33,34.44L-4.84,33.39L-3.87,30.35L-3.39,31.08L-2.91,31.4L-2.42,35.49L-0.97,37.8L-0.48,36.33L0,37.7L0.48,34.34L1.45,35.39L1.94,36.23L3.88,38.53L4.36,35.91L5.33,36.33L5.81,39.27L6.3,37.07L6.78,38.12L7.27,38.53L8.23,36.12L8.72,37.49L9.69,40.11L10.17,38.12L10.66,36.02L11.14,29.4L12.11,28.77L12.59,35.49L13.56,44.52L14.05,44.1L14.53,40.43L16.47,60.17L16.95,58.8L17.44,54.81L17.92,56.39L18.41,57.33L18.89,56.49L19.38,53.86L20.34,52.08L20.83,55.55L22.28,64.17L22.77,61.85L24.22,62.16L24.7,59.33L25.19,66.98L25.67,66.39L26.16,65.13L28.09,66.08L28.58,58.91L32.45,30.14L32.94,24.78L33.91,20.79L34.39,15.65L35.84,14.7L36.33,14.38L38.27,16.38L38.75,15.54L40.69,28.98L41.17,28.77L42.14,27.41L42.63,28.67L43.59,33.71L44.08,35.6L45.05,34.76L45.53,37.07L46.02,37.91L46.5,44.31L48.44,45.15L48.92,44.84L50.38,44.31L50.86,45.68L51.34,44.84L51.83,45.57L53.28,44L53.77,43.89L54.25,44L54.73,42.84L55.22,42.21L55.7,42.84L56.67,41.58L57.16,41.48L58.13,52.4L58.61,53.03L59.09,50.19L59.58,52.08L60.55,59.75L61.03,60.06L62.48,73.58L62.97,72.16L63.45,73.28L63.94,76.44L64.42,83.48L64.91,82.85L65.39,83.37L66.36,75.08L66.84,80.22L67.33,81.8L67.81,80.75L68.3,81.59L68.78,75.92L69.27,68.95L69.75,69.75L70.23,69.83L71.2,75.92L71.69,76.44L72.66,73.78L73.14,75.71L73.63,74.4L74.11,77.91L75.08,69.58L75.56,69.42L76.05,70.83L76.53,62.06L77.02,61.01L77.5,55.86L79.44,43.89L79.92,45.78L80.89,44.42L81.38,45.26L82.34,45.47L82.83,44.52L83.8,43.89L84.28,45.57L84.77,45.47L85.25,46.94L88.16,63.09L88.64,65.33L89.13,64.17L89.61,65.43L90.09,66.68L90.58,64.75L91.55,74.15L92.03,80.85L93,103.95L93.48,105L93.97,105L94.45,106.05L94.94,106.05L95.42,107.1L95.91,112.35L96.39,111.3L96.88,111.3L97.84,115.5L98.33,108.15L99.3,108.15L99.78,106.05L100.75,106.05L101.23,105L101.72,103.95L102.2,105L103.17,102.9L103.66,99.75L104.14,97.65L104.63,98.7L105.11,102.9L106.08,106.05L106.56,97.65L107.53,84L108.02,85.05L109.47,87.15L109.95,87.15L110.44,87.15L110.92,86.1L111.89,87.15L112.38,87.15L112.86,88.2L113.34,87.15L113.83,87.15L114.31,88.2L116.25,106.05L116.73,92.4L117.7,87.15L118.19,88.2L119.64,86.1L120.13,86.1L121.09,86.1L121.58,87.15L122.55,84L123.03,86.1L124,84L124.48,85.05L127.39,48.83L127.88,49.56L128.36,48.51L129.33,45.47L129.81,45.89L130.3,46.41L130.78,43.16L131.75,41.06L132.23,44.52L133.69,50.4L134.17,58.38L134.66,65.88L135.14,63.04L135.63,61.74L136.59,69.9L137.08,67.92L137.56,64.71L138.05,64.87L138.53,67.75L139.02,69.78L139.5,66.74L140.47,73.82L140.95,73.59L141.44,74.76L141.92,71.66L142.41,59.75L143.86,55.23L144.34,55.76L144.83,57.44L145.31,53.45L146.77,50.3L147.25,47.57L149.67,38.85L150.16,37.8L151.13,32.13L151.61,33.71L152.58,32.87L153.06,33.71L153.55,33.28L154.03,30.56L155.48,31.92L155.97,32.55L156.45,32.34L156.94,33.92L157.42,33.18L157.91,35.91L158.39,40.11L158.88,39.38L159.36,40.85L159.84,40.64L160.33,44.84L160.81,39.17L161.3,48.2L162.27,49.98L162.75,48.3L163.23,47.67L163.72,43.68L164.2,40.22L164.69,41.79L165.17,46.2L167.11,50.19L167.59,47.99L168.56,44.42L169.05,44.1L170.5,40.74L170.98,26.88L171.95,25.62L172.44,26.15L172.92,24.25L173.41,23.94L173.89,17.12L175.34,12.81L175.83,13.33L176.31,14.38L176.8,15.12L177.28,18.06L177.77,18.06L178.25,19.32L179.22,22.05L179.7,24.99L180.19,26.78L180.67,33.81L183.58,36.12L184.06,38.53L184.55,37.8L185.03,41.58L185.52,41.27L186,42.84L187.45,44.21L187.94,44.52L188.91,44.84L189.39,44.1L189.88,42.63L190.36,43.05L190.84,44.63L191.81,45.89L192.3,44.63L192.78,38.74L193.27,38.96L193.75,38.01L194.72,38.22L195.2,36.65L195.69,36.54L196.17,33.39L196.66,33.6L197.14,32.55L197.63,31.71L198.11,33.49L198.59,35.07L199.08,32.24L199.56,33.39L200.05,31.29L201.98,39.48L202.47,49.56L203.92,57.12L204.41,61.53L205.38,51.35L205.86,56.6L207.31,60.9L207.8,60.9L208.28,61.01L208.77,63L209.73,65.87L210.22,65.5L210.7,62.79L211.19,66.21L211.67,65.99L212.16,58.8L213.13,60.8L213.61,63.07L216.03,50.4L216.52,46.62L217.97,39.48L218.45,34.97L218.94,36.75L219.42,35.18L221.84,28.77L222.33,27.83L223.78,31.4L224.27,30.98L224.75,31.29L225.23,33.6L226.2,35.7L226.69,41.69L227.17,41.69L227.66,45.89L228.63,46.62L229.11,48.41L231.53,53.97L232.02,56.91L232.5,55.13L232.98,58.8L233.95,59.22L234.44,60.17L235.41,58.28L235.89,54.39L236.38,54.29L236.86,55.13L237.34,55.44L237.83,52.08L239.28,50.93L239.77,49.35L240.25,45.05L240.73,45.26L241.22,45.05L241.7,44.73L242.19,45.47L243.16,46.83L243.64,44.21L246.06,35.07L246.55,36.96L247.52,35.18L248,44L249.94,56.7L250.42,59.01L251.88,60.9L252.36,65.32L253.81,67.11L254.3,70.4L255.75,84L256.23,83.58L256.72,83.37L257.2,71.53L259.63,81.69L260.11,76.55L261.08,63.9L261.56,57.65L262.53,45.47L263.02,44.73L264.47,42.42L264.95,38.12L266.89,26.25L267.38,25.83L268.83,18.38L269.31,18.58L269.8,22.16L270.28,20.68L270.77,21.21L271.25,23L273.67,27.62L274.16,30.14L275.13,35.07L275.61,31.08L276.09,32.24L276.58,38.43L277.06,39.06L277.55,38.64L278.03,38.85L279.97,41.27L280.45,40.74L281.42,40.95L281.91,40.32L284.81,39.27L285.3,38.22L286.75,38.64L287.23,37.49L288.69,30.77L289.17,24.99L290.14,23.1L290.63,21L292.08,14.91L292.56,15.54L293.05,21.74L295.47,38.43L295.95,35.18L296.44,34.97L296.92,43.36L298.86,60.59L299.34,58.8L300.31,50.19L300.8,50.72L301.28,53.66L302.25,57.86L302.73,56.07L303.22,54.18L303.7,54.81L304.19,53.76L304.67,62.06L305.64,52.19L306.61,52.82L307.09,52.82L308.55,44.52L309.03,38.22L310.97,27.3L311.45,27.3L313.88,25.83L314.36,28.25L314.84,26.67L315.81,28.14L316.3,28.46L316.78,27.62L317.27,31.5L319.2,44.63L319.69,59.43L321.63,59.64L322.11,61.95L323.56,63.69L324.53,62.79L325.02,63.38L326.47,62.58L326.95,61.53L327.44,60.9L327.92,61.32L328.41,63.13L330.34,63.7L330.83,66.87L331.8,64.74L332.28,58.49L333.25,56.81L333.73,57.75L334.22,75.81L334.7,78.86L336.16,73.46L336.64,69.54L337.13,56.7L338.58,69.56L339.06,70.16L339.55,73.14L340.03,65.89L340.52,66.18L341,70.31L345.84,88.2L346.33,87.15L346.81,89.25L347.3,106.05L348.75,105L349.23,109.2L350.69,105L351.17,86.1L351.66,85.05L352.14,77.18L355.53,55.55L356.02,55.34L356.5,56.07L356.98,52.19L357.47,48.93L359.41,39.59L360.38,40.43L360.86,56.91L362.31,75.39L362.8,60.27L363.28,72.15L363.77,71.16L364.25,74.54L364.73,71.79L365.22,53.24L366.19,55.65L366.67,50.51L367.16,50.3L367.64,51.14L368.61,47.88L369.58,53.86L370.06,59.96L371.03,84L371.52,86.1L373.45,98.7L373.94,96.6L374.42,93.45L374.91,62.79L375.39,84L377.33,97.65L377.81,96.6L378.78,86.1L379.27,86.1L379.75,90.3L380.23,68.39L380.72,67.74L381.2,68.6L381.69,64.14L382.66,65.06L383.14,66.76L384.59,96.6L385.08,100.8L385.56,98.7L386.53,106.05L387.5,105L387.98,112.35L388.95,110.25L390.41,117.6L390.89,117.6L396.22,111.3L396.7,113.4L397.67,111.3L398.16,97.65L399.61,99.75L401.06,92.4L401.55,91.35L403,88.2L403.48,69.99L406.88,55.65L407.36,46.83L408.81,46.2L409.3,51.24L409.78,53.55L411.72,51.98L412.2,56.81L412.69,60.59L413.17,59.01L415.59,65.71L416.08,68.19L416.56,67.33L417.05,74.01L417.53,76.13L418.02,75.29L418.5,76.02L418.98,87.15L421.41,77.39L423.83,94.5L424.31,92.4L425.77,101.85L426.25,110.25L426.73,117.6L431.09,115.5L431.58,114.45L436.91,120.75L438.84,119.7L439.33,117.6L445.63,114.45L446.11,117.6L454.34,86.1L455.8,96.6L456.28,98.7L460.16,112.35L461.13,95.55L461.61,92.4L467.91,111.3L470.33,105L470.81,96.6L472.27,114.45L475.66,90.3L476.14,82.22L480.5,79.38L480.98,83.27L487.77,116.55L488.73,115.5L489.22,115.5L491.16,119.7L493.58,100.8L494.06,98.7L501.81,26.46L502.78,27.51L503.27,29.3L510.53,51.87L513.44,49.46L513.92,45.57L523.13,29.19L524.58,34.34L525.06,37.59L534.27,63.39L537.17,54.81L537.66,56.07L546.86,8.3L549.77,12.5L550.25,15.43L554.13,32.03L554.61,34.55L558,43.79L563.81,40.01L564.3,38.12L565.27,39.8L568.66,28.67L569.14,29.61L569.63,29.08L571.08,24.67L573.5,50.19L573.98,51.14L578.34,59.64L582.22,50.4L582.7,47.46L584.16,55.13L589.97,32.13L590.45,23.42L593.36,11.13L599.17,24.57L599.66,26.04L619.52,81.69L620,75.18L624.36,76.23L630.17,67.63L630.66,68.29L637.92,37.8L638.41,29.92L640.83,26.99L643.25,39.69L643.73,38.74L644.22,43.26L656.81,56.49L657.3,55.02L657.78,47.78L658.75,43.36L663.11,71.62L663.59,85.05L669.89,72.72L673.77,108.15L676.67,105L677.16,98.7L680.55,106.05L682.48,91.35L682.97,86.1L685.39,67.29L689.27,85.05L689.75,91.35L697.5,97.65L706.22,54.39L707.19,55.34L707.67,57.75L723.17,83.27L725.11,77.7L725.59,71.44L732.86,41.9L740.13,57.65L740.61,57.65L759.02,48.83L759.98,51.98L760.47,59.54L778.88,110.25L779.36,109.2L784.2,100.8L784.69,91.35L801.16,130.2L801.64,121.8L802.13,107.1L815.2,130.2L817.14,124.95L817.63,111.3L818.11,117.6L825.38,78.02L832.64,103.95L833.13,106.05L842.33,124.95L845.72,103.95L846.2,97.65L848.63,79.17L860.25,130.2L863.16,123.9L863.64,115.5L865.58,118.65L867.03,93.45L869.94,99.75L870.42,90.3L871.39,85.05L880.59,120.75L884.47,107.1L884.95,127.05L896.09,107.1L901.91,137.55L902.39,136.5L926.61,52.4L931.45,65.39L931.94,65.06L939.2,47.25L943.56,70.97L944.05,74.28L950.83,133.35L961.48,103.95L961.97,99.75L964.88,76.44L971.17,115.5L980.38,91.35L980.86,95.55L1009.44,45.89L1009.92,47.88L1010.41,48.09L1025.91,59.11L1030.75,48.93L1032.2,51.66L1032.69,52.5L1041.89,45.89L1049.16,78.54L1052.06,74.5L1052.55,78.12L1053.03,70.2L1069.5,122.85L1071.92,118.65L1072.41,120.75L1106.8,48.83L1108.25,54.29L1108.73,55.97L1137.8,81.38L1145.06,66.52L1145.55,61.43L1151.36,38.96L1156.69,87.15L1166.86,82.74L1167.34,82.85L1172.19,87.15L1178,58.17L1179.45,91.35L1179.94,113.4L1202.7,28.77L1206.58,40.11L1207.06,40.22L1233.7,68.67L1238.06,41.9L1238.55,38.64L1244.84,22.37L1267.61,34.97L1268.09,38.22L1288.92,17.22L1298.13,59.33L1298.61,51.24L1312.17,34.23L1321.38,79.28L1326.7,62.9L1327.19,58.91L1335.42,25.93L1356.73,57.44L1357.22,61.01L1375.63,77.81L1382.41,45.36L1382.89,45.36L1383.38,44.52L1416.8,63.07L1417.28,65.88L1417.77,66.85L1453.13,30.24L1459.91,50.61L1460.39,53.24L1467.17,57.54L1479.77,18.69L1498.66,27.2L1499.14,26.78L1512.7,62.27L1525.3,17.53L1536.92,48.93L1537.41,46.2L1544.19,40.11L1555.33,111.3L1578.09,71.38L1578.58,71.39L1602.31,108.15L1611.03,63.69L1611.52,62.58L1637.67,31.18L1645.42,66.01L1645.91,69.1L1665.28,22.37L1685.63,60.48L1686.11,61.64L1698.7,112.35L1726.8,78.75L1727.28,79.07L1745.2,106.05L1762.16,49.35L1765.06,49.56L1765.55,49.04L1786.38,75.5L1803.81,19.42L1814.95,38.32L1815.44,38.85L1824.16,20.16L1829,78.33L1829.48,81.9L1840.63,114.45L1848.86,33.81L1863.39,60.27L1863.88,56.28L1868.72,40.11L1885.67,108.15L1890.52,88.2L1891,103.95L1920.06,48.51L1932.66,114.45L1941.38,54.6L1941.86,51.45L1975.77,70.93L1991.27,18.27L1993.2,26.57L1993.69,28.14L2059.56,103.95L2062.95,94.5L2063.44,88.2L2069.25,113.4L2098.8,25.1L2099.28,25.52L2099.77,24.99L2157.41,136.5L2174.36,119.7L2174.84,115.5L2215.05,121.8L2219.89,90.3L2220.38,80.96L2289.16,39.8L2294,72.08L2294.48,75.29L2313.86,25.1L2350.67,108.15L2354.06,87.15L2354.55,84L2393.78,101.85L2404.92,52.08L2418.97,60.9L2419.45,67.75L2439.31,111.3L2474.67,29.4L2479.03,53.86L2479.52,67.07L2480,86.1L2497.92,26.99L2540.06,43.36L2540.55,34.65L2579.78,71.86L2595.28,23.52L2608.84,33.6L2609.33,35.49L2679.56,65.83L2685.86,46.83L2686.34,41.27L2723.16,106.05L2731.88,39.8L2732.36,37.07L2816.64,83.9L2820.03,46.1L2820.52,39.38L2858.78,73.97L2894.14,23.83L2896.08,28.88L2896.56,32.66L2915.94,27.3L2949.36,115.5L2973.09,82.01L2973.58,85.05L3016.69,52.92L3049.14,93.45L3052.05,65.72L3052.53,61.74L3078.69,78.65L3128.09,18.58L3133.42,43.05L3133.91,43.68L3149.41,22.68L3184.28,100.8L3215.28,68.08L3215.77,62.48L3243.38,28.25L3280.19,73.14L3288.42,22.58L3288.91,21.95L3375.61,101.85L3394.02,45.26L3394.5,40.01L3559.19,88.2L3564.03,31.29L3564.52,27.93L3653.64,80.96L3663.81,13.55L3664.3,12.08L3745.19,82.01L3771.83,40.53L3772.31,38.12L3804.28,11.02L3880.81,131.25L3906.48,115.5L3906.97,33.92L4024.19,109.2L4031.94,42.11L4032.42,42.11L4069.72,90.3L4129.3,12.08L4138.5,33.39L4138.98,34.13L4259.11,81.59L4271.22,32.45L4271.7,30.45L4315.3,12.92L4341.94,90.3L4393.77,72.29L4394.25,64.63L4446.56,106.05L4522.61,0.21L4525.52,36.12L4526,53.66L4539.56,106.05L4597.69,22.78L4644.19,38.22L4644.67,52.61L4797.73,51.56L4798.22,43.89L5014.73,26.46L5019.58,33.6L5020.06,36.12L5141.64,77.6L5168.77,33.39L5169.25,28.46L5276.3,71.59L5317.47,53.45L5317.95,53.24L5325.7,87.15L5384.31,21.74L5460.84,52.29L5461.33,52.61L5840.59,72.95L5845.92,38.74L5846.41,38.12L5859,39.491600151724526L5859,79.59" style="vector-effect: non-scaling-stroke; fill: none; stroke: rgb(255, 153, 51); stroke-opacity: 1; stroke-width: 1.3px; opacity: 1;"/></g><g class="points"/><g class="text"/></g><g class="trace scatter trace69b566" style="stroke-miterlimit: 2; opacity: 1;"><g class="fills"/><g class="errorbars"/><g class="lines"><path class="js-line" d="M-998.3,36.96L-997.81,47.08L-989.58,1.54L-971.17,42.97L-970.69,42.97L-961.97,13.66L-950.34,58.74L-945.5,35.94L-945.02,31.03L-936.78,8.07L-924.67,44.47L-924.19,48.55L-914.02,24.53L-903.36,55.53L-902.87,54.53L-895.61,17.95L-876.72,39.74L-876.23,39.74L-870.42,24.95L-858.8,49.97L-858.31,49.97L-857.83,61.41L-849.59,14.04L-831.19,34.63L-830.7,34.63L-823.44,18.34L-818.11,29.32L-817.62,46.43L-811.81,59.71L-802.61,14.89L-795.34,33.21L-794.86,35.59L-788.08,66.8L-778.39,9.91L-777.42,15.35L-776.94,13.72L-769.19,52.26L-759.5,21.89L-759.02,19.19L-753.69,2.82L-744.48,33.98L-741.09,32.02L-740.61,32.02L-725.11,25.14L-724.62,33.65L-724.14,35.81L-720.75,48.7L-709.61,7.25L-707.67,7.84L-707.19,8.63L-693.14,35.47L-685.87,18.71L-685.39,14.5L-682.97,6.13L-674.73,54.15L-671.83,52.68L-671.34,52.58L-655.36,43.46L-653.91,54.17L-653.42,56.92L-645.19,69.22L-638.41,23.91L-637.92,23.74L-636.47,19.9L-630.66,51.99L-629.69,48.83L-629.2,53.55L-626.3,76.38L-614.67,9.44L-613.7,12.15L-613.22,11.63L-597.23,47.57L-591.42,40.03L-590.94,37.73L-586.09,31.25L-574.95,61.68L-572.53,44.8L-572.05,38.58L-567.69,27.58L-557.52,46.29L-557.03,47.57L-540.08,53.95L-539.59,56.2L-532.81,73.39L-526.03,43.46L-525.55,35.97L-521.67,31.42L-514.41,49.87L-510.53,37.95L-510.05,38.86L-499.87,20.27L-499.39,16.31L-496.48,14.84L-494.55,25.06L-494.06,30.16L-490.67,37.41L-485.83,20.3L-481.47,24.04L-480.98,16.31L-476.14,12.36L-465.97,38.1L-465.48,38.38L-465,43.56L-453.86,25.62L-453.37,22.49L-450.47,10.4L-445.62,32.69L-445.14,32.66L-444.66,35.63L-432.06,10.63L-430.61,13.78L-430.12,16.68L-426.25,9.52L-422.86,19.84L-422.37,30.47L-411.72,45.19L-409.3,34.24L-408.81,33.47L-405.42,30.62L-388.47,92.92L-387.98,91.1L-385.08,79.42L-378.78,98.72L-377.33,89.69L-376.84,95L-366.19,119.1L-363.77,115.62L-363.28,110.61L-361.34,113.32L-358.44,102.08L-357.95,103.2L-357.47,95.4L-349.23,118.53L-345.36,115.83L-344.87,116.16L-343.91,125.31L-340.03,97.44L-339.55,85.84L-335.19,38.37L-331.8,74.22L-331.31,94.33L-321.14,129.96L-320.66,121.95L-309.52,86.96L-307.09,94.12L-306.61,93.88L-302.25,114.07L-296.44,110.41L-295.95,100.75L-282.87,54.78L-282.39,69.61L-279,87.52L-275.61,75.46L-275.12,71.47L-263.02,123.38L-262.53,122.13L-260.59,139.71L-258.17,115.05L-255.27,119.55L-254.78,122.01L-249.94,123.81L-245.58,105.64L-245.09,108.94L-241.7,103L-239.77,113.12L-239.28,114.86L-237.34,116.98L-234.92,94.54L-232.98,105.25L-232.5,108.63L-231.53,114.66L-229.11,100.34L-228.62,88.34L-228.14,90.93L-225.72,74.59L-224.75,77.23L-224.27,72.99L-217.48,64.23L-217,74.61L-213.12,64.83L-212.64,77.86L-212.16,77.6L-211.67,98.16L-210.7,115.89L-208.28,78.57L-204.89,115.15L-204.41,106.48L-202.95,107.52L-201.98,103.19L-201.5,96.16L-195.69,50.88L-194.23,55.67L-193.75,62.14L-189.87,57.95L-187.94,94.37L-186.48,76.56L-186,70.74L-182.12,72.97L-181.16,64.75L-180.19,67.31L-179.7,72.81L-178.73,71.57L-177.28,76.81L-176.8,83.62L-175.83,82.98L-175.34,89.43L-168.56,112.8L-168.08,110.86L-167.59,105.02L-167.11,110.22L-164.69,93.46L-164.2,98.29L-163.72,83.96L-158.39,121.07L-157.42,115.97L-156.94,104.21L-156.45,105.52L-155.97,98.43L-155.48,99.29L-155,93.67L-154.52,94.87L-154.03,88.36L-153.55,80.59L-152.58,82.54L-151.61,76.56L-151.12,74.53L-148.7,70.9L-148.22,76.3L-147.73,68.61L-145.8,70.46L-145.31,66.73L-144.83,67.26L-144.34,64.28L-142.89,62.67L-139.98,68.08L-139.5,67.73L-139.02,68.7L-134.66,74.92L-134.17,74.91L-130.3,62.43L-129.81,56.43L-127.39,41.05L-126.91,32.98L-126.42,27.24L-124,34.47L-123.52,34.47L-123.03,36.45L-122.55,46.62L-120.61,29.47L-120.12,30.74L-117.7,28.72L-117.22,34.82L-115.77,32.58L-115.28,30.26L-114.31,26.7L-113.34,32.17L-112.37,28.21L-111.89,33.46L-110.92,32.65L-109.47,41.75L-108.98,41L-108.5,46.83L-103.66,18.39L-103.17,15.77L-96.87,40.26L-96.39,39.31L-95.91,42.6L-91.06,57.86L-90.58,55.2L-88.16,56.31L-87.67,57.36L-87.19,56.22L-85.73,59.57L-85.25,60.39L-84.28,59.85L-83.8,62.97L-83.31,66.62L-82.34,67.87L-81.37,62.08L-80.89,74.82L-80.41,70.16L-79.44,83.4L-78.95,82.49L-78.47,82.49L-77.98,83.44L-77.5,80.36L-77.02,82.04L-76.53,82.99L-74.59,54.34L-74.11,56.75L-73.62,59.3L-73.14,53.73L-72.66,45.97L-72.17,43.35L-71.2,50.94L-70.72,56.81L-69.75,86.23L-68.3,71.32L-67.81,69.73L-66.84,63.85L-66.36,71.14L-65.39,64.87L-64.91,68.25L-64.42,69.24L-63.94,67.2L-62.48,53.77L-62,47.8L-59.58,24.06L-59.09,25.78L-58.61,26.91L-57.64,13.42L-56.19,21.34L-55.7,19.02L-52.31,39.89L-51.34,36.31L-50.86,33.07L-50.37,36.2L-49.41,29.15L-48.92,33.47L-48.44,33.18L-47.47,33.14L-46.98,35.95L-44.08,40.04L-43.59,39.61L-43.11,38.28L-41.66,38.29L-41.17,41.7L-38.27,35.37L-37.78,36.17L-37.3,39.76L-36.81,43.8L-35.84,38.89L-35.36,31.88L-32.94,21.56L-32.45,24.62L-29.55,26.06L-29.06,23.96L-28.58,24.13L-28.09,22.49L-27.12,22.68L-26.64,27.09L-24.7,44.49L-24.22,42.53L-22.77,32.1L-22.28,33.42L-21.8,32.11L-21.31,35.97L-20.83,32.21L-20.34,40.54L-19.86,42.44L-19.37,41.01L-18.89,38.84L-18.41,38.79L-17.92,47.34L-16.95,45.79L-16.47,40.51L-15.02,45.34L-14.53,32.49L-12.59,16.83L-12.11,17.38L-10.66,17.77L-10.17,22.15L-8.23,39.27L-7.75,40.11L-7.27,39.2L-6.78,40.89L-4.84,47.75L-4.36,58.71L-3.39,56.29L-2.91,56.46L-1.45,51.28L-0.97,51.28L0.48,58.29L0.97,58.74L1.45,57.66L1.94,59.02L2.91,60.52L3.39,60.52L4.36,57.39L4.84,58.99L5.33,58.83L5.81,56.99L6.3,55.97L6.78,56.59L7.27,56.59L7.75,56.33L8.23,54.47L8.72,55.04L9.2,51.59L9.69,45.43L10.17,49.05L10.66,48.56L11.14,37.86L11.63,41.92L12.11,38.8L12.59,38.53L13.08,32.73L15.02,43.86L15.5,45.79L15.98,41.98L16.47,46.8L16.95,47.06L17.44,61.47L18.89,78.41L19.38,78.78L19.86,79.48L20.34,90.72L20.83,86.97L21.31,70.29L21.8,76L22.28,92.42L23.25,83.29L23.73,95.44L25.19,80.55L25.67,87.78L26.16,85.52L26.64,71.88L27.61,93.56L28.09,89.93L30.03,78.53L30.52,77.14L31.48,67.7L31.97,46.07L33.91,28.24L34.39,27.89L34.88,28.35L35.36,31.68L35.84,28.56L36.33,30.9L36.81,28.22L37.3,29.81L38.27,31.4L38.75,34.34L40.69,26.13L41.17,26.15L42.14,28.99L42.63,27.39L43.11,27.39L43.59,32.18L44.08,31.91L44.56,29.8L45.05,27.91L45.53,33L46.02,33.49L46.5,38.37L46.98,38.37L47.47,39.65L48.44,42.62L48.92,42.05L49.89,41.65L50.38,42.47L51.34,42.4L51.83,42.31L52.31,47.34L52.8,45.01L53.28,45.42L53.77,47.41L54.25,43.95L55.22,40.45L55.7,42.64L56.67,42.25L57.16,43.13L58.61,39.67L59.09,43.95L60.06,37.64L60.55,37.24L61.03,37.77L61.52,42.13L63.94,58.93L64.42,66.05L64.91,68.24L65.39,62.99L65.88,64.53L66.36,63.14L66.84,62.84L67.33,61.4L67.81,60.54L68.3,61.58L68.78,61.63L69.27,43.59L69.75,47.12L70.23,77.88L71.2,81.08L71.69,78.71L72.17,78.06L72.66,78.74L73.63,85.35L74.11,83.43L74.59,78.89L75.08,88.14L75.56,86.19L76.05,79.28L77.02,88.57L77.5,86.77L77.98,91.11L78.47,70.89L78.95,51.88L79.44,55.66L79.92,53.56L81.86,38.92L82.34,42.89L83.8,53.21L84.28,48.62L85.25,55.44L85.73,56.15L86.22,59.04L86.7,51.91L87.19,56.78L87.67,54.91L88.16,68.01L88.64,66.42L89.13,71.5L89.61,70.97L90.09,69.13L90.58,65.8L91.06,70.4L91.55,68.76L92.03,74.55L93,66.09L93.48,76.63L94.94,108.67L95.42,101.31L95.91,101.31L96.39,94.81L97.84,90.82L98.33,106.83L98.81,106.32L99.3,110.3L100.27,110.3L100.75,108.62L101.72,110.04L102.2,108.88L102.69,114.48L103.17,113.97L103.66,113.5L104.63,105.41L105.11,105.3L105.59,102.22L106.08,104.06L106.56,103.98L107.05,98.16L108.5,103.84L108.98,103.51L109.95,105.3L110.44,108.57L110.92,107.97L111.41,110.3L111.89,111.18L112.38,105.99L113.34,120.57L113.83,113.08L114.31,124.51L114.8,121.85L115.28,118.66L115.77,118.9L116.25,106.71L117.22,92.52L117.7,100.64L118.19,100.64L118.67,97.53L120.13,97.03L120.61,99.35L121.09,101.03L121.58,94.51L122.55,87.68L123.03,86.67L123.52,86.67L124,89.77L125.45,96.48L125.94,87.07L126.42,80.03L126.91,59.15L127.39,60.71L127.88,57.79L128.84,58.71L129.33,58.71L129.81,59.51L130.3,62.37L131.75,61.64L132.23,65.47L132.72,61.46L133.2,62.07L133.69,62.07L134.66,61.58L135.14,62.56L137.08,74.76L137.56,75.06L138.05,71.43L138.53,74.15L139.02,72.66L139.5,64.25L139.98,64.25L140.47,65.25L140.95,63.22L141.44,64.49L141.92,65.1L142.41,67.33L142.89,67.33L143.38,64.37L143.86,62.92L144.34,63.87L145.31,69.78L145.8,66.97L146.77,66.91L147.25,60.48L148.22,54.18L148.7,55.4L150.16,46.54L150.64,43.17L152.09,33.08L152.58,31.56L153.06,35.45L153.55,33.32L154.03,34.81L155,39.03L155.48,38.96L155.97,39.08L156.45,40.67L156.94,36.96L157.42,37.03L157.91,37.04L158.39,34.75L158.88,40.77L160.81,59.65L161.3,60.43L162.27,68.17L162.75,63.93L163.23,72.26L163.72,66.91L164.69,68.87L165.17,62.76L165.66,61.58L166.14,61.94L166.63,66.38L167.59,65.48L168.08,63.31L169.05,66.01L169.53,60.14L171.47,31.41L171.95,33.14L172.44,32.05L172.92,32.85L175.34,12.18L175.83,12.18L176.31,12.75L176.8,16.22L177.28,20.39L177.77,19.57L178.25,21.83L178.73,19.7L179.22,21.5L180.67,30.68L181.16,29.16L183.09,35.43L183.58,46.58L184.06,57.69L184.55,55.12L185.03,58.52L186,58.03L186.48,59.34L186.97,47.09L187.45,48.4L187.94,48.4L188.42,44.5L188.91,47.81L189.88,49.19L190.36,43.32L191.33,40.37L191.81,41.42L192.3,41.19L192.78,39.3L194.23,34.54L194.72,32.8L195.2,32.8L195.69,31.21L196.17,32.48L196.66,26.84L197.14,28.88L197.63,24.11L199.56,10.79L200.05,19.26L200.53,16.48L201.02,25.01L201.98,24.32L202.47,32.79L202.95,36.32L203.44,26.38L203.92,29.82L204.41,29.33L204.89,30.99L205.86,40.36L206.34,43.25L206.83,43.66L207.31,51.85L208.28,58.96L208.77,60.56L209.25,60L209.73,58.01L210.7,60.9L211.19,61.33L211.67,61.16L212.16,60.02L213.61,74.01L214.09,70.6L215.06,58.69L215.55,61.16L216.03,62.03L216.52,58.03L217,59.73L217.48,54.39L218.45,30.75L218.94,28.96L219.42,30.85L219.91,27.14L220.39,27.21L220.88,24.09L221.36,25.36L221.84,17.81L225.23,24.21L225.72,23.98L226.2,23.79L226.69,24.86L227.17,26.81L227.66,35.57L228.14,34.81L228.63,43.51L229.11,41.97L229.59,43.27L231.05,53.14L231.53,51.93L232.98,52.17L233.47,51.78L234.92,51.78L235.41,55.59L235.89,59.6L236.38,57.61L236.86,53.58L237.34,53.3L237.83,55.29L238.31,55.68L238.8,58.95L239.77,53.13L240.25,53.13L240.73,50.89L241.22,52.88L241.7,51.74L242.19,39.46L243.16,35.89L243.64,28.87L245.58,23.55L246.06,24.39L246.55,24.6L247.03,28.53L247.52,30.76L248,39.95L248.97,39.72L249.45,43.27L250.91,66.3L251.39,69.34L252.84,83.12L253.33,82.75L254.3,90.16L254.78,92.95L255.75,102.9L256.23,99.38L257.69,90.99L258.17,93.85L258.66,94.4L259.14,93.85L259.63,97.86L263.02,79.47L263.5,85.68L264.47,55.01L264.95,52.5L266.41,26.44L266.89,23.75L267.38,22.97L267.86,25.46L269.31,16.83L269.8,19.11L270.77,19.77L271.25,18.31L272.22,18.56L272.7,19.87L273.19,18.2L273.67,19.11L274.16,19.1L275.13,26.71L275.61,28.79L276.09,28.79L276.58,35.29L277.06,34.25L277.55,34.55L278.03,34.16L279.48,40.52L279.97,39.43L280.94,39.32L281.42,38.58L282.39,44.47L282.88,35.99L284.33,39.27L284.81,42.07L285.78,34.13L286.27,37.32L287.72,40.11L288.2,38.26L288.69,38.26L289.17,33.96L292.08,17.84L292.56,17.31L293.05,17.37L293.53,15.33L294.02,14.52L294.5,15.78L294.98,21.95L295.47,22.42L295.95,25.79L296.44,25.22L296.92,22.47L297.89,24.19L298.38,34.6L299.34,46.32L299.83,39.65L300.31,40.15L300.8,46.11L301.28,71.15L301.77,71.43L302.25,72.57L304.67,105.66L305.16,100.14L305.64,97.13L306.13,99.68L306.61,86.92L308.55,80.09L309.03,78.15L311.45,55.75L311.94,47.45L312.42,48.71L312.91,42.94L314.84,23.7L315.33,21.03L315.81,17.26L316.78,21.55L317.27,20.28L317.75,19.98L318.23,24.63L318.72,23.08L319.2,37.87L323.56,55.41L324.05,55.83L324.53,56.65L325.02,54.57L325.5,54.92L325.98,61.45L328.41,61.62L328.89,63.95L330.83,59.99L331.31,61.82L331.8,62.02L332.28,61.28L332.77,66.68L334.22,59.51L334.7,67.09L335.19,62.23L335.67,59.34L339.06,38.4L339.55,46.1L340.03,51.82L340.52,55.14L341.48,51.92L341.97,56.76L343.42,72.97L343.91,98.42L348.27,120.14L348.75,109.13L349.23,124.45L349.72,101.53L350.2,105.93L350.69,102.48L351.17,99.7L351.66,88.26L352.63,99.26L353.59,93.16L354.08,94.6L355.05,79.36L355.53,79.06L361.34,35.03L361.83,42.32L362.8,45.07L363.28,43.27L363.77,41.5L365.22,38.35L365.7,43.85L366.19,48.81L367.16,55.3L367.64,69.25L368.13,82.48L368.61,71.73L369.58,82.81L370.55,69.17L371.03,70.59L371.52,58.51L372.97,66.97L373.45,73.31L376.36,123.97L376.84,119.91L378.78,117.08L379.75,128.14L380.23,122.32L380.72,100.19L388.47,142.15L389.92,141.63L390.41,135.8L390.89,145.14L394.28,142.43L394.77,140.4L396.7,133.12L398.16,145.1L398.64,133.35L399.13,143L401.55,129.14L402.03,114.97L403,122.15L403.97,112.94L404.45,106.23L405.91,83.31L406.39,84.31L406.88,78.99L409.3,53.42L411.72,60.25L412.2,61.47L412.69,74.97L413.17,67.15L414.63,56.28L415.59,59.76L416.08,80.27L418.5,85.17L418.98,74.13L419.95,68.99L422.38,81.53L422.86,89.47L427.22,109.86L429.64,102.91L430.13,101.11L430.61,98.65L433.03,110.23L433.52,111.38L436.91,119.81L438.36,102.26L438.84,105.42L439.33,115.91L441.75,104.2L442.23,116.15L442.72,125.96L443.69,105.18L446.11,124.01L446.59,127.44L450.47,100.74L453.86,108.15L454.34,112.28L464.52,130.33L465,122.49L466.45,124.44L467.42,119.66L469.36,119.18L469.84,116.67L470.81,124.31L474.2,108.11L474.69,97.3L475.66,100.44L478.08,88.61L478.56,89.83L479.05,88.88L489.7,137.09L492.13,125.49L492.61,118.73L503.27,40.27L505.69,47.02L506.17,51.48L514.41,61.93L514.89,55.64L515.38,52.23L524.09,18.11L526.52,32.43L527,38.08L527.97,37L533.78,80.67L534.27,70.96L534.75,87.74L545.89,21.95L546.38,22.79L547.34,19.3L552.19,29.47L552.67,30.95L564.78,39.21L565.27,37.11L565.75,36.58L568.66,23.25L573.98,35.68L574.47,36.93L579.8,98.67L586.09,84.08L586.58,71.97L596.27,20.23L598.2,26.62L598.69,25.01L613.7,74.93L614.67,64.37L615.16,58.26L617.09,44.26L620.97,89.82L623.39,80.92L623.88,91.57L627.75,94.19L631.14,77.43L631.63,78.35L632.11,83.13L637.92,40.83L638.41,38.73L651.97,63.41L652.45,59.52L652.94,51.12L660.2,37.74L668.44,94.27L669.89,93.1L670.38,80.03L678.13,132.84L682.48,109.91L682.97,107.79L685.88,82.28L695.08,101.2L695.56,115.14L696.53,123.03L700.89,70.31L702.34,75.53L702.83,72.17L707.19,58.65L711.06,71.84L711.55,78.62L726.08,121.46L727.05,113.89L727.53,103.48L735.77,51.27L744,60.09L744.48,59.24L756.59,48.66L759.02,57.44L759.5,63.08L771.61,148.12L776.45,100.4L776.94,96.84L790.02,126.53L791.95,122.5L792.44,120.94L798.25,130.25L803.58,110.58L807.94,118.56L808.42,127.22L810.36,118.36L818.11,157.36L821.5,128.11L821.98,141.71L827.8,108.89L836.52,149.86L837.48,143.14L837.97,141.26L850.08,72L855.41,118.78L855.89,118.21L862.19,143.86L869.94,84.42L870.42,74.82L871.88,16.15L881.56,118.53L887.38,69.11L887.86,69.11L889.31,59.76L899,127.7L900.45,126.48L900.94,135.64L902.88,137.2L940.66,40.83L945.5,59.9L945.98,75.88L954.22,135.68L963.91,91.93L964.39,81.86L966.33,78.32L970.2,105.14L970.69,123.34L972.14,127.95L986.19,87.81L986.67,81.98L993.94,84.33L1012.83,28.01L1018.64,36.34L1019.13,38.1L1046.25,72.77L1048.67,68.37L1049.16,64.07L1058.84,57.46L1072.89,107.36L1073.38,107.36L1085.97,79.33L1087.91,109.49L1088.39,115.82L1089.36,122.33L1104.38,42.66L1106.31,49.57L1106.8,46.79L1120.36,58.28L1126.17,35.37L1130.05,42.61L1130.53,61.72L1140.22,107.12L1151.84,27.97L1153.78,47.99L1154.27,49.01L1166.86,80.19L1180.42,73.04L1180.91,75.13L1187.2,95.29L1198.34,20.28L1204.16,38.44L1204.64,39.07L1225.47,56.28L1225.95,63.28L1234.67,89.92L1238.55,71.61L1239.03,55.5L1265.19,17.26L1267.13,29.75L1267.61,31.8L1275.84,91.48L1292.8,24.98L1297.16,52.73L1297.64,52.73L1311.69,26.46L1317.02,53.18L1317.5,69.06L1328.64,90.33L1334.94,32.18L1338.33,33.43L1338.81,28.8L1365.94,104.79L1379.98,60.91L1380.47,59.57L1388.7,34.23L1411.47,56.11L1411.95,60.65L1418.73,100.11L1432.3,34.46L1443.44,46.3L1443.92,46.3L1454.58,16.42L1458.94,58.45L1461.36,56.06L1461.84,68.82L1477.34,18.37L1496.72,30.24L1497.2,26.56L1510.77,79.94L1524.33,18.28L1530.63,34.52L1531.11,35.34L1548.55,56.88L1549.03,63.16L1561.63,109.23L1568.41,52.41L1584.88,71.84L1585.36,71.84L1602.8,96.61L1629.44,47.61L1629.92,48.86L1630.41,49.01L1648.33,77.98L1665.77,19.23L1673.03,39.14L1673.52,39.41L1700.64,115.95L1721.47,74.17L1721.95,74.01L1747.14,118.41L1752.95,62.16L1753.44,61.26L1777.66,16.99L1788.8,87.35L1789.28,86.73L1789.77,85.96L1824.64,26.6L1826.58,38.14L1827.06,59.72L1843.05,115.96L1851.77,38.57L1867.27,48.35L1867.75,44.25L1872.11,34.72L1880.34,105.22L1909.41,59.16L1909.89,59.16L1929.75,94.72L1962.2,28.42L1962.69,28.4L1965.59,15.41L1976.25,61.73L2009.19,35.48L2009.67,35.07L2072.64,112.06L2077.48,72.4L2077.97,62.92L2106.06,21.8L2115.75,107.37L2120.11,84.42L2120.59,94.21L2127.38,24.92L2162.25,142.7L2167.09,136.86L2167.58,136.22L2205.84,148.04L2237.81,46.21L2238.3,46.56L2251.86,70.48L2290.61,22.7L2292.55,43.49L2293.03,52.54L2319.19,21.92L2349.22,139.52L2356.48,107.89L2356.97,101.1L2395.72,143.78L2410.25,26.45L2416.06,48.05L2416.55,50.62L2441.25,135.55L2454.33,16.94L2478.06,30.99L2478.55,40.51L2502.28,18.89L2532.31,86.8L2540.55,53.71L2541.03,53.26L2546.36,12.92L2575.42,99.91L2604.97,34.43L2605.45,36.05L2711.53,50.08L2712.5,60.65L2712.98,77.51L2717.34,104.74L2777.89,21.01L2778.86,22.54L2779.34,22.52L2857.81,67.67L2866.53,44.88L2867.02,42.02L2894.63,18.18L2926.59,108.94L2933.86,95.14L2934.34,95.23L2940.16,73.77L2955.17,138.27L3001.19,122.84L3001.67,130.45L3058.83,39.41L3089.83,54.82L3090.31,73.69L3096.13,98.09L3153.28,21.87L3173.14,47.34L3173.63,50.08L3180.41,108.92L3244.34,21.74L3253.55,42.29L3254.03,42.29L3276.31,77.49L3295.69,19.95L3326.69,85.46L3327.17,88.07L3404.67,32.08L3416.78,69.42L3417.27,75.8L3468.61,103.73L3496.7,23.56L3505.42,65.97L3505.91,83.67L3618.77,17.78L3626.52,44.11L3627,49.73L3747.61,73.34L3756.81,30.23L3757.3,22.84L3884.2,82.46L3889.05,51.02L3889.53,44.7L3944.27,18.39L3972.36,110.49L3973.33,107.11L3973.81,111.47L3977.69,138.65L4056.64,23.05L4073.11,83.09L4073.59,82.86L4176.77,20.82L4183.06,33.59L4183.55,33.97L4253.78,92.8L4271.7,37.91L4272.19,29.47L4347.27,104.29L4401.03,68.19L4401.52,63.4L4438.33,86.29L4521.16,11.85L4523.58,17.25L4524.06,26.75L4548.77,15.57L4576.38,78.97L4643.7,40.5L4644.19,41.92L4770.13,86L4779.33,48.8L4779.81,46.72L4938.69,30.8L4946.92,69.84L4947.41,71.85L5059.78,16.5L5086.42,70.84L5086.91,82.4L5091.75,128.01L5198.8,13.55L5218.17,21.55L5218.66,22.06L5324.25,104.56L5358.64,25.75L5359.13,25.3L5385.77,12.18L5507.83,112.65L5515.58,74.99L5516.06,71.64L5778.11,24.96L5781.5,49.36L5781.98,59.41L5859,51.99904668683631L5859,77.32" style="vector-effect: non-scaling-stroke; fill: none; stroke: rgb(55, 128, 191); stroke-opacity: 1; stroke-width: 1.3px; opacity: 1;"/></g><g class="points"/><g class="text"/></g><g class="trace scatter traced6a187" style="stroke-miterlimit: 2; opacity: 1;"><g class="fills"/><g class="errorbars"/><g class="lines"><path class="js-line" d="M-998.3,51.56L-988.61,0.94L-971.66,44.94L-971.17,44.63L-962.94,19.42L-957.12,59.75L-956.64,61.85L-954.22,81.9L-941.62,9.34L-936.3,21.21L-935.81,24.67L-905.3,75.5L-904.33,74.34L-903.84,72.77L-895.12,15.65L-880.11,45.26L-879.62,45.36L-849.59,20.37L-849.11,19.32L-832.64,41.48L-826.83,21L-826.34,17.75L-811.81,56.91L-804.55,13.75L-803.58,16.17L-803.09,18.58L-784.69,49.67L-780.81,35.6L-780.33,30.87L-775.48,15.54L-767.73,59.01L-767.25,60.17L-755.14,2.83L-743.03,40.53L-742.55,40.85L-738.19,44.94L-733.83,22.68L-733.34,18.38L-719.3,24.05L-711.06,1.78L-710.09,2.31L-709.61,0.94L-692.66,44.31L-686.84,21L-686.36,18.58L-684.42,6.61L-676.67,57.54L-675.7,55.97L-675.22,77.39L-664.56,16.17L-655.36,42.63L-654.87,43.79L-649.06,78.12L-638.89,16.91L-638.41,13.86L-632.11,44L-631.62,49.56L-627.75,67.31L-618.06,15.65L-617.58,13.65L-615.64,2.52L-605.47,34.44L-604.02,34.23L-603.53,34.86L-576.41,57.65L-575.44,50.72L-574.95,45.26L-573.02,52.4L-568.17,23.21L-567.69,22.47L-549.28,66.78L-545.89,54.18L-545.41,50.09L-542.02,43.05L-537.17,71.51L-536.69,77.81L-531.36,84.84L-524.58,54.18L-524.09,48.83L-512.47,52.92L-508.11,38.32L-507.62,38.43L-500.84,22.78L-500.36,19.42L-496.48,6.83L-489.7,29.08L-486.8,18.69L-486.31,19.85L-477.59,10.92L-473.72,24.15L-473.23,28.25L-471.78,24.25L-467.42,50.61L-466.94,53.55L-449.98,7.56L-445.62,19.63L-445.14,20.68L-442.72,32.76L-436.42,15.12L-435.45,17.64L-434.97,15.65L-429.64,0.11L-423.83,18.48L-423.34,20.79L-412.69,42.74L-407.84,41.16L-407.36,35.91L-397.67,35.81L-396.7,45.36L-396.22,52.82L-376.36,119.6L-375.87,121.07L-368.12,135.45L-364.25,129.89L-363.77,124.95L-358.44,104.37L-356.5,118.97L-356.02,124.53L-350.2,101.43L-348.27,117.39L-347.78,129.05L-344.39,146.37L-341,118.65L-340.52,101.96L-332.77,53.66L-329.86,76.23L-329.37,84.42L-323.08,133.04L-319.2,122.75L-318.72,123.69L-312.42,84.53L-308.06,99.85L-307.58,106.37L-305.64,69.41L-303.7,122.96L-298.86,92.51L-298.37,105.74L-294.02,125.48L-291.59,92.51L-291.11,82.53L-289.17,42.32L-286.27,102.8L-282.39,53.34L-281.91,57.54L-266.41,135.03L-265.92,130.62L-265.44,127.05L-254.78,156.45L-254.3,137.24L-252.36,131.67L-249.45,141.01L-248,133.98L-247.52,132.51L-243.16,118.44L-239.77,120.85L-239.28,125.06L-238.8,129.68L-237.34,117.39L-232.5,123.9L-232.02,118.02L-221.84,64.79L-221.36,64.58L-217.48,70.88L-217,78.12L-208.77,127.68L-207.8,107.52L-207.31,108.47L-204.89,126.42L-201.5,113.3L-201.02,106.16L-196.66,49.04L-192.78,58.07L-192.3,60.27L-190.36,57.02L-188.42,85.47L-186.48,63.74L-186,53.13L-184.55,48.83L-182.12,66.99L-181.64,72.24L-180.67,86.42L-176.31,79.38L-175.83,78.54L-171.95,89.99L-171.47,93.98L-169.53,112.77L-169.05,129.47L-167.59,101.54L-165.66,130.83L-164.2,126.63L-163.72,127.05L-163.23,135.98L-162.27,106.26L-160.33,111.51L-159.84,104.9L-158.87,121.91L-155,114.66L-154.52,112.98L-150.16,81.9L-148.22,87.89L-147.73,91.67L-143.86,76.33L-143.37,85.47L-142.89,88.73L-140.47,90.62L-136.59,75.29L-136.11,79.91L-135.14,66.78L-134.66,59.85L-132.23,61.64L-131.27,58.59L-130.78,61.01L-130.3,56.49L-125.45,29.4L-124,32.34L-123.52,33.49L-121.09,39.69L-120.61,48.93L-120.12,53.45L-119.64,47.46L-119.16,45.15L-118.67,46.2L-118.19,35.28L-115.77,66.47L-114.31,37.28L-113.83,31.71L-113.34,28.14L-111.89,38.32L-111.41,50.3L-105.11,11.45L-104.62,12.92L-103.66,6.41L-101.72,15.43L-101.23,15.23L-99.3,25.62L-98.81,30.66L-97.36,33.71L-96.87,38.32L-89.12,69.61L-88.64,63.74L-87.67,70.14L-86.7,65.63L-86.22,57.65L-85.25,72.56L-83.8,52.08L-83.31,51.87L-82.34,70.88L-81.86,51.35L-80.41,70.46L-79.92,46.52L-78.95,65.1L-77.02,55.23L-76.53,62.16L-76.05,68.04L-75.56,83.69L-75.08,69.83L-73.62,76.55L-73.14,68.88L-72.17,84.95L-71.2,63.42L-70.72,58.8L-69.75,59.75L-67.81,38.74L-67.33,50.61L-66.84,53.24L-66.36,46.83L-65.87,47.46L-64.91,58.8L-63.94,45.89L-63.45,46.2L-62.97,45.99L-62.48,57.54L-62,66.05L-61.03,46.73L-60.55,35.81L-58.12,11.66L-57.64,12.08L-57.16,10.29L-50.37,32.13L-49.89,30.35L-49.41,28.14L-45.05,40.43L-44.56,38.53L-43.59,38.96L-42.14,36.85L-41.66,36.33L-39.72,42L-39.23,37.38L-37.3,34.97L-36.81,32.24L-33.42,12.92L-32.94,13.33L-32.45,14.28L-27.12,37.59L-26.64,34.65L-24.22,51.45L-23.73,44.84L-23.25,43.89L-22.77,51.77L-22.28,56.7L-21.8,56.18L-21.31,46.62L-20.34,48.09L-19.86,43.58L-18.89,64.58L-18.41,63.63L-17.92,55.76L-16.47,67.72L-15.98,60.59L-14.05,45.47L-13.56,45.99L-10.66,29.61L-10.17,32.13L-9.2,40.53L-8.72,37.7L-8.23,30.35L-7.75,35.91L-7.27,43.79L-6.3,60.59L-5.81,56.07L-4.36,34.86L-3.87,36.02L-0.97,48.3L-0.48,47.57L0,48.3L0.48,47.88L0.97,45.99L1.45,45.89L1.94,43.68L3.88,49.25L4.36,47.04L5.81,50.93L6.3,51.45L7.27,55.44L7.75,52.5L9.69,49.14L10.17,42.95L11.14,37.8L11.63,37.8L12.59,31.08L13.08,31.82L13.56,31.29L14.05,28.88L14.53,34.44L17.44,65.1L17.92,65.73L18.89,66.68L19.38,69.83L19.86,68.57L20.34,71.82L20.83,70.56L21.31,77.07L21.8,79.17L22.28,85.79L23.25,93.56L23.73,86.1L24.22,79.59L24.7,80.22L25.19,82.43L25.67,79.17L26.16,79.59L26.64,79.28L27.61,86.42L28.09,80.11L28.58,72.56L29.06,73.19L29.55,78.44L31,68.36L31.48,67.62L31.97,62.16L32.45,44.84L34.39,29.72L34.88,32.34L35.36,33.92L35.84,29.08L36.81,21.32L37.3,21.42L37.78,23.31L38.27,23.94L38.75,26.78L39.23,26.78L39.72,25.62L41.17,29.08L41.66,29.82L42.14,31.71L42.63,31.29L43.11,30.35L45.53,33.81L46.02,36.96L46.98,37.49L47.47,36.65L47.95,38.43L48.44,37.38L48.92,38.43L49.41,38.32L49.89,39.48L51.83,41.06L52.31,41.16L53.28,41.37L53.77,41.79L54.73,41.16L55.22,41.79L56.19,45.26L56.67,45.05L57.16,44.73L57.64,43.36L58.13,43.68L58.61,45.15L59.09,44.1L59.58,45.68L60.55,54.71L61.03,53.55L61.52,56.39L62,57.22L62.48,59.85L63.94,78.02L64.42,66.36L64.91,60.59L65.39,63.74L65.88,64.36L66.36,64.36L66.84,59.54L67.81,65.41L68.3,61.22L68.78,68.99L69.27,68.88L69.75,68.99L71.2,63.53L71.69,65.73L72.17,64.26L72.66,65.94L73.14,66.15L73.63,64.47L75.08,71.4L75.56,71.4L76.53,67.31L77.02,70.46L78.95,47.88L79.44,46.83L79.92,51.56L80.41,51.24L80.89,44.31L82.34,30.87L82.83,34.55L83.31,35.6L83.8,40.85L85.25,52.08L85.73,54.18L86.22,59.01L86.7,58.38L87.19,60.38L87.67,60.8L88.16,65.1L89.61,78.54L90.09,80.75L91.55,87.57L92.03,104.79L92.52,103.64L93,110.15L93.48,107.1L93.97,110.15L94.94,105.63L95.42,109.41L95.91,110.15L96.39,100.28L96.88,98.7L97.36,107.1L98.81,115.82L99.3,108.47L99.78,110.88L100.27,123.69L100.75,121.17L101.23,114.35L101.72,116.34L102.2,121.7L102.69,109.2L103.17,111.72L103.66,123.69L104.14,121.59L104.63,115.82L105.59,138.5L106.08,135.03L106.56,127.37L107.05,137.45L107.53,136.71L108.02,139.76L108.98,130.31L109.47,136.71L109.95,134.19L110.44,123.48L110.92,123.27L111.41,125.06L111.89,139.55L112.38,134.4L112.86,132.2L113.34,133.56L113.83,128.94L114.8,100.91L115.28,116.24L116.25,140.91L116.73,119.28L117.22,110.25L117.7,124.64L118.19,128.83L118.67,127.16L119.16,141.33L119.64,113.72L120.13,117.71L120.61,112.88L121.09,116.76L121.58,127.05L122.06,142.27L122.55,131.88L123.03,138.5L123.52,128.31L124.48,118.13L124.97,108.05L126.91,71.61L127.39,68.57L128.36,41.69L128.84,44.21L129.33,47.15L129.81,51.66L130.3,50.09L130.78,51.03L132.23,44.1L132.72,52.29L133.2,48.3L133.69,53.55L134.17,53.03L134.66,47.15L135.14,50.09L135.63,60.69L136.11,55.76L136.59,57.33L137.08,62.16L138.05,55.23L138.53,66.47L139.5,62.37L139.98,59.11L140.47,63L140.95,60.8L142.41,80.85L142.89,80.22L143.38,83.69L144.34,72.97L144.83,75.71L145.31,76.23L145.8,80.43L148.22,63.11L148.7,55.76L149.19,53.97L149.67,48.41L151.13,33.81L151.61,26.04L152.09,35.49L152.58,21.42L153.55,18.69L154.03,9.98L154.52,8.4L155,11.34L155.48,14.6L155.97,23.31L157.42,29.3L157.91,27.62L158.39,23.1L158.88,26.46L160.33,38.53L160.81,36.02L161.78,35.28L162.27,35.91L163.23,44.73L163.72,40.01L164.2,43.05L164.69,38.96L165.66,37.7L166.14,36.96L167.11,28.67L167.59,35.81L168.56,24.78L169.05,26.88L169.53,24.57L170.02,24.05L170.5,19.63L171.95,9.56L172.44,9.77L172.92,14.38L173.41,13.86L173.89,9.66L174.38,8.72L174.86,5.25L175.34,3.78L175.83,4.2L176.31,5.46L176.8,3.89L177.28,5.14L178.73,12.18L179.22,12.08L180.19,15.33L180.67,19.95L182.61,31.82L183.09,32.03L183.58,33.39L184.06,38.01L185.52,44.31L186,46.2L187.45,41.06L187.94,41.69L188.91,45.57L189.39,44.63L190.84,38.64L191.33,40.53L191.81,43.68L192.3,41.16L192.78,40.74L193.27,39.27L195.69,25.83L196.17,21.84L199.56,5.67L200.05,4.94L200.53,4.31L201.02,7.56L201.98,13.33L202.47,20.68L204.41,36.96L204.89,42.32L205.86,34.76L206.34,41.16L206.83,41.79L207.31,48.3L208.28,80.01L208.77,79.28L209.25,78.54L209.73,78.02L210.22,66.05L210.7,59.11L211.19,63.32L212.64,84.32L213.13,77.6L214.09,50.61L214.58,51.14L215.06,45.05L217,18.9L217.48,19.85L218.94,11.76L219.42,15.23L221.84,6.51L222.33,6.83L222.81,7.03L223.3,9.45L224.75,16.17L225.23,14.6L225.72,13.55L226.2,15.23L230.56,40.22L231.05,43.68L232.02,45.15L232.5,43.26L233.47,46.83L233.95,46.62L234.44,46.83L234.92,48.51L235.89,48.61L236.38,47.36L238.31,47.57L238.8,45.99L239.28,44.94L239.77,46.1L240.73,46.94L241.22,46.41L243.64,31.18L244.13,32.66L246.06,26.15L246.55,28.98L250.42,63.11L250.91,59.64L251.88,68.88L252.36,68.25L252.84,69.41L254.3,84.32L254.78,82.53L255.27,83.9L255.75,78.22L256.23,79.38L256.72,83.58L257.2,79.8L257.69,92.72L258.17,88.52L258.66,93.77L259.14,88.62L259.63,74.34L260.11,73.5L260.59,66.36L262.05,81.9L262.53,73.61L263.98,63.74L264.47,52.4L265.92,26.78L266.41,27.72L266.89,32.13L267.38,29.3L268.83,7.03L269.31,9.45L269.8,13.02L270.28,9.24L270.77,11.02L271.25,12.18L271.73,11.45L272.22,12.6L273.67,20.79L274.16,22.78L275.13,24.78L275.61,25.41L276.09,25.52L276.58,26.57L278.52,31.92L279,32.87L280.45,38.32L280.94,37.8L281.42,37.7L281.91,36.75L283.36,38.64L283.84,41.58L284.33,44.73L284.81,43.05L285.3,44L287.72,49.25L288.2,45.26L289.66,32.97L290.14,32.34L292.08,20.06L292.56,23.31L295.47,34.97L295.95,31.82L296.44,24.36L296.92,35.07L297.41,54.71L299.34,61.32L299.83,64.16L300.31,66.36L300.8,59.54L301.28,59.11L301.77,43.36L302.73,36.96L303.22,37.07L303.7,43.58L304.19,49.14L304.67,44.42L305.16,40.85L307.09,84.21L307.58,81.38L310.48,35.49L310.97,30.45L311.45,36.23L312.42,33.6L312.91,29.08L314.84,10.6L315.33,13.02L315.81,15.23L320.17,37.28L320.66,38.53L322.59,51.45L323.56,50.72L324.05,49.14L325.5,52.5L325.98,51.87L326.47,53.86L327.44,57.54L327.92,57.22L328.89,54.5L329.38,58.07L329.86,58.7L332.28,65L332.77,68.04L333.25,68.78L333.73,66.99L334.22,61.53L336.16,47.99L337.13,48.51L337.61,47.46L338.09,47.88L338.58,51.56L339.06,51.66L339.55,55.55L341.48,71.08L341.97,72.97L343.42,96.6L344.88,91.25L345.36,99.85L345.84,101.96L346.33,122.12L348.75,159.92L349.72,159.71L350.2,155.93L351.66,148.26L352.63,154.04L353.11,152.77L356.02,99.02L356.5,110.04L356.98,99.02L357.95,76.65L358.44,77.07L358.92,71.72L360.86,45.89L362.31,46.41L362.8,59.96L364.25,77.07L364.73,78.65L367.64,66.47L368.13,56.81L368.61,53.97L369.09,63L369.58,71.82L370.55,96.81L371.03,87.99L372.97,55.13L373.45,45.68L373.94,40.74L374.91,50.82L375.39,64.16L377.33,88.2L377.81,105.32L378.3,101.85L379.75,108.99L380.23,96.71L380.72,79.69L381.2,80.11L381.69,79.38L382.17,83.16L382.66,77.39L383.63,120.85L384.11,124.64L385.08,104.69L387.02,132.62L387.5,136.6L389.44,130.2L391.38,156.45L391.86,145.32L393.31,93.56L393.8,126.74L394.28,137.03L395.25,193.05L396.22,123.59L397.67,165.4L398.16,124.11L398.64,162.98L402.03,148.82L402.52,144.32L405.42,92.99L405.91,95.51L409.78,46.2L410.27,46.1L411.23,39.59L413.66,52.08L414.14,51.24L414.63,50.82L422.38,85.89L424.8,82.53L425.28,80.85L431.09,104.27L432.06,98.91L432.55,97.76L435.45,141.54L438.84,130.41L439.33,126.84L445.14,152.36L446.11,143.12L446.59,139.02L447.56,140.49L454.83,108.47L455.31,110.78L455.8,114.24L456.77,111.09L460.16,117.08L460.64,115.82L461.13,116.34L463.06,111.51L467.42,132.2L467.91,127.26L468.88,127.58L475.66,95.24L476.14,88.41L477.11,81.69L479.05,99.65L479.53,101.54L481.95,122.96L486.31,119.28L486.8,114.24L490.67,91.98L493.09,117.6L493.58,121.8L502.3,28.46L506.17,40.64L506.66,42.32L511.98,50.3L514.89,46.2L515.38,43.79L519.25,36.75L519.73,30.45L522.64,19.85L526.03,32.87L526.52,36.85L527,34.55L529.91,54.18L530.39,61.11L535.72,76.33L538.63,70.67L539.11,66.78L547.34,7.35L551.22,20.37L551.7,23.1L559.45,51.77L563.81,42.21L564.3,40.01L564.78,42.74L568.17,20.48L568.66,15.12L569.14,12.5L573.5,34.23L573.98,36.23L581.25,63.11L585.13,51.66L585.61,50.19L594.33,9.77L597.72,19.95L598.2,21.95L614.19,77.7L615.16,59.75L615.64,35.18L625.33,112.04L629.69,93.35L630.17,83.58L642.28,35.28L642.77,37.59L643.25,42.21L655.84,70.98L657.3,67.2L657.78,67.1L663.11,34.86L668.92,65.83L669.41,71.51L678.13,112.35L682.97,88.94L683.45,85.37L685.88,71.4L693.63,115.5L698.95,106.05L699.44,101.64L713.48,66.05L717.36,81.69L717.84,90.72L721.72,112.98L727.05,71.93L727.53,67.83L728.02,79.17L732.86,60.48L740.61,69.41L741.09,67.41L742.06,73.4L751.75,54.08L752.23,55.02L752.72,54.5L754.17,49.98L762.41,65.36L763.86,63.8L764.34,64.4L772.58,131.37L777.42,111.2L777.91,89.04L778.88,85.37L787.11,108.99L787.59,112.56L794.86,148.79L803.09,136.82L803.58,133.88L816.17,93.99L817.63,177.6L818.59,133.65L819.08,138.26L820.05,78.9L835.06,108.57L835.55,92.93L837.48,133.14L852.5,33.71L853.95,50.82L854.44,89.04L864.13,156.03L869.45,58.17L870.91,85.58L871.39,86.52L878.17,107.94L882.53,48.72L887.38,86.42L887.86,124.01L892.22,31.82L901.42,130.94L903.84,126.84L904.33,112.77L906.75,133.45L920.8,53.55L921.28,69.19L930.97,103.43L932.42,41.9L939.2,48.51L939.69,45.47L942.11,10.6L951.8,147.42L961.97,91.98L962.45,94.08L966.33,67.2L974.56,108.05L980.86,81.69L981.34,89.36L982.8,93.45L987.64,51.77L989.09,53.86L989.58,52.08L996.36,91.77L1000.23,14.28L1007.02,28.88L1007.5,25.2L1013.31,16.49L1023,36.96L1023.48,39.17L1049.16,98.6L1054,63.74L1054.48,59.43L1072.89,144.69L1085.97,117.17L1086.45,116.46L1094.69,153.99L1101.95,64.11L1102.44,59.75L1120.84,63.42L1125.69,17.85L1127.63,33.71L1128.11,76.65L1129.08,18.9L1142.64,115.5L1152.33,40.64L1152.81,44.1L1173.16,40.85L1179.45,93.24L1179.94,89.99L1180.42,78.22L1184.3,111.51L1197.86,25.41L1198.34,25.93L1198.83,24.99L1210.45,75.5L1220.14,15.96L1224.98,35.49L1225.47,34.34L1234.67,100.28L1247.27,14.91L1253.08,50.4L1253.56,44.94L1266.64,16.91L1273.91,66.89L1274.39,69.3L1281.66,85.26L1292.8,24.89L1301.03,54.92L1301.52,54.92L1313.14,25.73L1319.44,72.14L1319.92,76.97L1326.22,114.14L1340.27,33.18L1344.63,52.92L1345.11,52.08L1364.48,89.64L1364.97,95.42L1371.75,116.49L1384.83,42L1385.31,42.84L1412.92,86.57L1413.41,93.53L1418.73,115.11L1429.88,49.04L1430.36,43.79L1446.83,56.39L1451.19,26.57L1451.67,21.32L1466.2,85.26L1476.86,30.03L1477.34,27.72L1512.22,77.7L1519.97,37.49L1520.45,34.13L1525.3,21.42L1547.09,57.44L1550,56.07L1550.48,76.65L1554.84,120.12L1573.25,59.64L1585.84,78.86L1586.33,73.4L1608.61,90.2L1616.84,35.91L1621.2,42.32L1621.69,43.68L1649.3,61.01L1649.78,58.7L1650.27,65.31L1655.59,75.5L1665.28,19.53L1683.69,45.99L1684.17,44.84L1698.7,116.39L1721.95,73.29L1722.44,55.97L1743.27,98.1L1758.77,30.14L1760.7,30.45L1761.19,30.66L1777.17,20.48L1790.25,95.03L1803.33,27.09L1803.81,23.63L1845.47,120.02L1848.86,68.46L1849.34,61.95L1871.63,21.42L1882.77,117.18L1883.25,125.58L1925.39,27.2L1933.63,57.02L1934.11,62.79L1935.08,76.02L1963.66,7.14L1976.25,7.77L1976.73,6.51L2012.09,31.18L2014.52,38.74L2015,40.43L2030.02,33.49L2071.67,143.49L2074.58,107.31L2075.06,103.83L2104.13,7.98L2117.69,135.56L2132.22,32.97L2132.7,46.73L2159.83,133.04L2186.47,124.32L2186.95,124.64L2208.75,159.81L2270.75,11.02L2275.59,28.03L2276.08,30.03L2288.67,15.85L2301.27,126.32L2335.66,57.33L2336.14,53.97L2357.45,112.44L2390.88,45.54L2391.36,34.16L2398.63,131.54L2409.28,26.04L2447.06,54.39L2447.55,43.79L2487.27,74.66L2498.41,5.67L2513.42,33.71L2513.91,34.34L2583.66,119.7L2591.41,52.19L2591.89,49.77L2642.75,24.67L2661.64,36.44L2662.13,36.12L2726.06,99.02L2731.88,40.74L2732.36,36.33L2864.59,72.56L2871.86,24.99L2872.34,19.53L3002.64,152.66L3007.48,113.22L3007.97,111.95L3051.56,153.64L3061.25,42.32L3088.38,90.09L3088.86,99.63L3131.48,14.38L3142.63,123.27L3173.63,28.25L3174.11,40.64L3182.34,131.25L3248.22,32.45L3254.52,40.74L3255,38.53L3281.16,84.74L3314.09,31.82L3324.27,78.22L3324.75,81.06L3374.64,123.59L3408.06,15.85L3417.75,78.44L3418.23,82.22L3469.09,113.19L3497.67,31.92L3507.36,69.41L3507.84,79.07L3512.69,95.97L3524.8,21.95L3586.8,31.92L3587.28,30.14L3698.69,116.09L3704.98,73.46L3705.47,69.53L3741.31,82.22L3804.77,16.07L3808.64,22.26L3809.13,24.99L3884.69,79.17L3913.75,33.07L3914.23,30.98L3978.17,155.72L4030.48,68.88L4030.97,65.21L4065.36,111.3L4130.27,13.02L4138.5,37.07L4138.98,38.53L4213.09,113.19L4244.09,0.52L4252.81,53.66L4253.3,70.98L4261.05,112.04L4267.83,6.19L4365.67,45.47L4366.16,50.3L4538.11,61.64L4544.89,30.24L4545.38,26.78L4721.69,88.73L4724.59,38.01L4725.08,32.55L4852.47,63L4870.39,19.42L4870.88,15.33L5003.11,77.6L5025.88,32.55L5026.36,32.76L5090.78,155.4L5125.17,29.08L5140.67,79.59L5141.16,103.74L5226.89,18.17L5277.75,78.02L5278.23,92.51L5430.81,12.81L5431.78,19.11L5432.27,20.58L5602.28,116.55L5611.48,80.64L5611.97,79.69L5648.3,115.29L5757.77,24.25L5765.03,35.91L5765.52,37.17L5859,85.05588387096752L5859,73.5" style="vector-effect: non-scaling-stroke; fill: none; stroke: rgb(255, 0, 0); stroke-opacity: 1; stroke-width: 1.3px; opacity: 1;"/></g><g class="points"/><g class="text"/></g></g></g><g class="overplot"/><path class="xlines-above crisp" d="M0,0" style="fill: none;"/><path class="ylines-above crisp" d="M0,0" style="fill: none;"/><g class="overlines-above"/><g class="xaxislayer-above"><g class="xtick"><text text-anchor="middle" x="0" y="181" transform="translate(64.5,0)" style="font-family: 'Open Sans', verdana, arial, sans-serif; font-size: 12px; fill: rgb(42, 63, 95); fill-opacity: 1; white-space: pre; opacity: 1;"><tspan class="line" dy="0em" x="0" y="181">Mar 20</tspan><tspan class="line" dy="1.3em" x="0" y="181">2021</tspan></text></g><g class="xtick"><text text-anchor="middle" x="0" y="181" style="font-family: 'Open Sans', verdana, arial, sans-serif; font-size: 12px; fill: rgb(42, 63, 95); fill-opacity: 1; white-space: pre; opacity: 1;" transform="translate(157.5,0)">Mar 22</text></g><g class="xtick"><text text-anchor="middle" x="0" y="181" style="font-family: 'Open Sans', verdana, arial, sans-serif; font-size: 12px; fill: rgb(42, 63, 95); fill-opacity: 1; white-space: pre; opacity: 1;" transform="translate(250.5,0)">Mar 24</text></g></g><g class="yaxislayer-above"><g class="ytick"><text text-anchor="end" x="17" y="4.199999999999999" transform="translate(0,126)" style="font-family: 'Open Sans', verdana, arial, sans-serif; font-size: 12px; fill: rgb(42, 63, 95); fill-opacity: 1; white-space: pre; opacity: 1;">5</text></g><g class="ytick"><text text-anchor="end" x="17" y="4.199999999999999" style="font-family: 'Open Sans', verdana, arial, sans-serif; font-size: 12px; fill: rgb(42, 63, 95); fill-opacity: 1; white-space: pre; opacity: 1;" transform="translate(0,73.5)">0</text></g><g class="ytick"><text text-anchor="end" x="17" y="4.199999999999999" style="font-family: 'Open Sans', verdana, arial, sans-serif; font-size: 12px; fill: rgb(42, 63, 95); fill-opacity: 1; white-space: pre; opacity: 1;" transform="translate(0,21)">5</text></g></g><g class="overaxes-above"/></g></g><g class="polarlayer"/><g class="smithlayer"/><g class="ternarylayer"/><g class="geolayer"/><g class="funnelarealayer"/><g class="pielayer"/><g class="iciclelayer"/><g class="treemaplayer"/><g class="sunburstlayer"/><g class="glimages"/><defs id="topdefs-cc8344"><g class="clips"/><clipPath id="legendcc8344"><rect width="147" height="67" x="0" y="0"/></clipPath></defs><g class="layer-above"><g class="imagelayer"/><g class="shapelayer"/></g><g class="infolayer"><g class="legend" pointer-events="all" transform="translate(302.58,0)"><rect class="bg" shape-rendering="crispEdges" width="147" height="67" x="0" y="0" style="stroke: rgb(68, 68, 68); stroke-opacity: 1; fill: rgb(255, 255, 255); fill-opacity: 1; stroke-width: 0px;"/><g class="scrollbox" transform="" clip-path="url(#legendcc8344)"><g class="groups"><g class="traces" transform="translate(0,14.5)" style="opacity: 1;"><text class="legendtext" text-anchor="start" x="40" y="4.680000000000001" style="font-family: 'Open Sans', verdana, arial, sans-serif; font-size: 12px; fill: rgb(42, 63, 95); fill-opacity: 1; white-space: pre;">operational</text><g class="layers" style="opacity: 1;"><g class="legendfill"/><g class="legendlines"><path class="js-line" d="M5,0h30" style="fill: none; stroke: rgb(255, 153, 51); stroke-opacity: 1; stroke-width: 1.3px;"/></g><g class="legendsymbols"><g class="legendpoints"/></g></g><rect class="legendtoggle" x="0" y="-9.5" width="141.84375" height="19" style="fill: rgb(0, 0, 0); fill-opacity: 0;"/></g><g class="traces" transform="translate(0,33.5)" style="opacity: 1;"><text class="legendtext" text-anchor="start" x="40" y="4.680000000000001" style="font-family: 'Open Sans', verdana, arial, sans-serif; font-size: 12px; fill: rgb(42, 63, 95); fill-opacity: 1; white-space: pre;">original_weather</text><g class="layers" style="opacity: 1;"><g class="legendfill"/><g class="legendlines"><path class="js-line" d="M5,0h30" style="fill: none; stroke: rgb(55, 128, 191); stroke-opacity: 1; stroke-width: 1.3px;"/></g><g class="legendsymbols"><g class="legendpoints"/></g></g><rect class="legendtoggle" x="0" y="-9.5" width="141.84375" height="19" style="fill: rgb(0, 0, 0); fill-opacity: 0;"/></g><g class="traces" transform="translate(0,52.5)" style="opacity: 1;"><text class="legendtext" text-anchor="start" x="40" y="4.680000000000001" style="font-family: 'Open Sans', verdana, arial, sans-serif; font-size: 12px; fill: rgb(42, 63, 95); fill-opacity: 1; white-space: pre;">realised</text><g class="layers" style="opacity: 1;"><g class="legendfill"/><g class="legendlines"><path class="js-line" d="M5,0h30" style="fill: none; stroke: rgb(255, 0, 0); stroke-opacity: 1; stroke-width: 1.3px;"/></g><g class="legendsymbols"><g class="legendpoints"/></g></g><rect class="legendtoggle" x="0" y="-9.5" width="141.84375" height="19" style="fill: rgb(0, 0, 0); fill-opacity: 0;"/></g></g></g><rect class="scrollbar" rx="20" ry="3" width="0" height="0" x="0" y="0" style="fill: rgb(128, 139, 164); fill-opacity: 1;"/></g><g class="g-gtitle"/><g class="g-xtitle"/><g class="g-ytitle"/></g></svg>
