<svg class="main-svg" xmlns="http://www.w3.org/2000/svg" xmlns:xlink="http://www.w3.org/1999/xlink" width="400" height="200" style="" viewBox="0 0 400 200"><rect x="0" y="0" width="400" height="200" style="fill: rgb(255, 255, 255); fill-opacity: 1;"/><defs id="defs-decba4"><g class="clips"><clipPath id="clipdecba4xyplot" class="plotclip"><rect width="357" height="168"/></clipPath><clipPath class="axesclip" id="clipdecba4x"><rect x="43" y="0" width="357" height="200"/></clipPath><clipPath class="axesclip" id="clipdecba4y"><rect x="0" y="0" width="400" height="168"/></clipPath><clipPath class="axesclip" id="clipdecba4xy"><rect x="43" y="0" width="357" height="168"/></clipPath></g><g class="gradients"/><g class="patterns"/></defs><g class="bglayer"/><g class="layer-below"><g class="imagelayer"/><g class="shapelayer"/></g><g class="cartesianlayer"><g class="subplot xy"><g class="layer-subplot"><g class="shapelayer"/><g class="imagelayer"/></g><g class="minor-gridlayer"><g class="x"/><g class="y"/></g><g class="gridlayer"><g class="x"><path class="xgrid crisp" transform="translate(145,0)" d="M0,0v168" style="stroke: rgb(235, 240, 248); stroke-opacity: 1; stroke-width: 1px;"/><path class="xgrid crisp" transform="translate(247,0)" d="M0,0v168" style="stroke: rgb(235, 240, 248); stroke-opacity: 1; stroke-width: 1px;"/><path class="xgrid crisp" transform="translate(349,0)" d="M0,0v168" style="stroke: rgb(235, 240, 248); stroke-opacity: 1; stroke-width: 1px;"/></g><g class="y"><path class="ygrid crisp" transform="translate(0,126)" d="M43,0h357" style="stroke: rgb(235, 240, 248); stroke-opacity: 1; stroke-width: 1px;"/><path class="ygrid crisp" transform="translate(0,21)" d="M43,0h357" style="stroke: rgb(235, 240, 248); stroke-opacity: 1; stroke-width: 1px;"/></g></g><g class="zerolinelayer"><path class="yzl zl crisp" transform="translate(0,73.5)" d="M43,0h357" style="stroke: rgb(235, 240, 248); stroke-opacity: 1; stroke-width: 2px;"/></g><path class="xlines-below"/><path class="ylines-below"/><g class="overlines-below"/><g class="xaxislayer-below"/><g class="yaxislayer-below"/><g class="overaxes-below"/><g class="plot" transform="translate(43,0)" clip-path="url(#clipdecba4xyplot)"><g class="scatterlayer mlayer"><g class="trace scatter tracee86585" style="stroke-miterlimit: 2; opacity: 1;"><g class="fills"/><g class="errorbars"/><g class="lines"><path class="js-line" d="M-5225.91,49.25L-5109.56,25.73L-5108.5,31.82L-5107.97,34.44L-4834.91,33.39L-4832.25,24.78L-4831.72,16.38L-4809.41,7.98L-4717.5,78.75L-4716.97,78.54L-4600.62,5.77L-4595.84,17.33L-4595.31,21.95L-4461.44,105L-4450.81,74.48L-4450.28,70.77L-4448.69,40.74L-4424.25,119.7L-4358.91,83.48L-4358.37,87.15L-4309.5,113.4L-4266.47,25.1L-4251.06,34.23L-4250.53,32.76L-4100.19,66.08L-4093.81,20.79L-4093.28,15.65L-4003.5,106.05L-3987.03,41.9L-3986.5,41.06L-3938.69,12.81L-3900.97,65.87L-3900.44,65.5L-3899.91,62.79L-3850.5,84L-3810.66,14.91L-3805.87,34.97L-3805.34,43.36L-3787.28,25.62L-3747.44,109.2L-3720.34,93.45L-3719.81,62.79L-3683.69,45.89L-3651.81,120.75L-3641.72,117.6L-3641.19,115.5L-3557.25,29.19L-3545.56,61.43L-3545.03,63.39L-3480.22,11.13L-3467.47,47.99L-3466.94,55.13L-3428.16,26.99L-3384.06,106.05L-3380.34,83.48L-3379.81,67.94L-3366,97.65L-3329.87,42.32L-3311.81,50.19L-3311.28,50.82L-3207.16,124.95L-3200.78,91.35L-3200.25,79.17L-3140.22,138.6L-3132.78,114.45L-3132.25,115.5L-3100.91,47.25L-3088.16,133.35L-3066.37,105L-3065.84,115.5L-2997.31,46.73L-2993.06,50.51L-2992.53,56.39L-2954.81,120.75L-2925.06,62.58L-2924.53,61.01L-2868.22,38.96L-2863.44,72.1L-2862.91,85.05L-2836.87,113.4L-2811.91,28.77L-2800.75,45.36L-2800.22,45.47L-2777.91,68.67L-2765.69,22.37L-2739.12,40.43L-2738.59,50.09L-2717.34,17.22L-2680.16,79.38L-2674.31,58.91L-2673.78,51.87L-2666.34,25.93L-2635,76.44L-2622.78,74.15L-2622.25,77.81L-2589.31,39.17L-2563.81,45.15L-2563.28,44.21L-2521.84,57.54L-2513.34,26.67L-2512.81,20.06L-2440.56,67.48L-2437.91,47.25L-2437.37,40.11L-2425.16,111.3L-2380.53,85.05L-2380,83.06L-2373.62,108.15L-2356.09,28.03L-2336.97,39.69L-2336.44,36.44L-2304.56,22.37L-2267.91,112.35L-2266.31,96.6L-2265.78,92.4L-2254.09,63L-2226.47,99.75L-2219.03,99.75L-2218.5,106.05L-2152.62,19.42L-2149.44,27.83L-2148.91,31.29L-2112.78,93.45L-2112.25,114.45L-2100.03,32.76L-2067.09,95.55L-2066.56,99.75L-2062.84,108.15L-2048.5,53.97L-2034.69,64.76L-2034.16,64.06L-2011.31,114.45L-1983.69,35.18L-1983.16,33.6L-1964.03,70.93L-1947.03,18.27L-1940.66,36.23L-1940.12,41.06L-1906.12,88.2L-1902.94,56.81L-1902.41,48.09L-1899.75,36.23L-1872.12,103.95L-1870,93.45L-1869.47,95.55L-1861.5,113.4L-1825.37,21.63L-1821.12,67.76L-1820.59,79.17L-1799.34,44L-1764.81,136.5L-1763.75,126L-1763.22,123.9L-1757.37,111.3L-1734,133.35L-1726.03,123.9L-1725.5,121.8L-1689.91,76.55L-1686.72,78.12L-1686.19,74.76L-1639.97,23.31L-1631.47,49.67L-1630.94,55.13L-1620.31,39.8L-1612.87,80.43L-1612.34,83.9L-1604.37,101.85L-1593.22,25.1L-1574.62,50.51L-1574.09,53.76L-1558.69,85.05L-1558.16,96.6L-1552.84,108.15L-1543.28,64.56L-1530,73.41L-1529.47,68.34L-1517.78,62.27L-1513,97.65L-1506.09,96.6L-1505.56,101.85L-1474.22,48.41L-1471.03,63.66L-1470.5,73.8L-1455.62,111.3L-1443.41,50.93L-1442.87,46.94L-1430.12,50.3L-1416.84,29.4L-1413.12,36.54L-1412.59,51.98L-1411,86.1L-1391.34,26.99L-1384.97,31.5L-1384.44,34.23L-1352.03,81.27L-1345.12,43.36L-1344.59,34.65L-1338.22,21.74L-1329.19,46.31L-1322.81,49.04L-1322.28,49.14L-1314.84,37.38L-1306.34,66.59L-1303.16,66.97L-1302.62,70.29L-1263.31,26.78L-1262.78,30.56L-1262.25,41.48L-1248.97,59.22L-1240.47,26.35L-1237.81,26.99L-1237.28,26.25L-1231.97,24.05L-1224,47.88L-1220.81,46.62L-1220.28,46.94L-1194.25,48.83L-1192.66,58.38L-1192.12,65.83L-1183.09,35.49L-1166.09,47.57L-1165.56,47.78L-1144.31,106.05L-1141.12,75.6L-1140.59,58.8L-1110.31,19.11L-1109.25,21.74L-1108.72,30.66L-1097.03,89.25L-1090.66,40.64L-1090.12,37.8L-1080.56,17.22L-1068.34,38.96L-1067.81,42.74L-1061.97,32.13L-1042.31,84L-1041.78,83.9L-1029.56,18.69L-1016.28,38.12L-1015.75,38.43L-1007.78,27.41L-1001.94,47.57L-1001.41,50.09L-995.56,73.97L-979.09,19.32L-969,38.96L-968.47,38.74L-953.06,44.21L-952.53,54.5L-945.09,86.1L-940.31,45.47L-939.78,48.41L-939.25,43.05L-932.87,27.3L-925.97,81.38L-922.78,73.3L-922.25,72.57L-896.22,115.5L-893.56,111.3L-893.03,103.95L-889.84,114.45L-878.16,75.39L-875.5,82.95L-874.97,79.8L-837.78,103.95L-833,94.5L-832.47,84L-831.41,90.3L-822.37,52.92L-816.53,71.17L-816,71.81L-807.5,47.15L-797.94,61.85L-797.41,60.27L-791.56,94.5L-782.53,52.08L-782,49.67L-775.62,42.21L-771.37,64.02L-770.84,62.27L-770.31,67.76L-762.87,54.92L-755.97,68.07L-755.44,72.36L-754.37,78.65L-742.69,52.19L-741.09,60.06L-740.56,56.6L-737.91,76.44L-729.94,30.66L-726.75,30.87L-726.22,31.71L-723.03,23.63L-712.94,49.04L-712.41,56.39L-711.87,61.95L-700.72,19.11L-700.19,18.58L-690.09,72.38L-682.66,56.07L-682.12,46.52L-676.81,22.68L-667.25,40.11L-666.72,42.32L-660.34,47.36L-652.91,36.33L-652.37,36.44L-642.28,90.3L-641.75,92.4L-638.56,100.8L-634.31,76.97L-629,87.15L-628.47,80.33L-618.37,60.59L-614.12,84L-613.59,84L-610.94,91.35L-605.09,71.65L-604.56,68.08L-600.31,48.3L-592.34,74.86L-591.81,72.8L-591.28,74.11L-587.03,65.07L-583.84,74.39L-581.19,68.91L-580.66,66.29L-568.97,29.08L-563.66,37.7L-563.12,37.28L-539.75,58.49L-539.22,60.27L-533.37,73.14L-529.12,57.75L-528.59,40.11L-521.69,21.1L-515.31,28.98L-514.78,32.45L-481.84,94.5L-480.78,89.25L-480.25,83.06L-465.91,41.48L-465.37,41.79L-464.84,43.05L-451.03,42.21L-450.5,43.68L-447.84,41.06L-444.66,52.61L-443.59,51.98L-443.06,54.92L-428.72,101.85L-427.66,85.05L-427.12,77.18L-415.97,36.96L-415.44,39.27L-409.06,46.62L-405.34,41.9L-404.81,41.79L-396.84,27.83L-392.59,32.76L-392.06,37.91L-377.19,72.11L-376.66,68.34L-376.12,66.89L-367.09,34.55L-365.5,36.23L-364.97,35.07L-353.81,43.26L-352.22,40.53L-351.69,39.69L-345.84,33.49L-343.72,40.53L-343.19,45.68L-326.72,93.45L-325.12,85.05L-324.59,80.75L-314.5,25.93L-311.31,35.49L-310.78,37.07L-303.87,41.79L-302.81,39.8L-302.28,39.38L-295.91,30.77L-295.37,23.73L-285.81,63.01L-285.28,60.27L-284.75,61.64L-275.72,74.47L-275.19,70.76L-264.56,22.89L-262.44,27.72L-261.91,30.45L-252.87,53.66L-251.81,44.42L-251.28,39.27L-250.22,43.58L-247.03,31.6L-246.5,32.13L-245.97,33.07L-243.84,28.77L-242.25,36.02L-241.72,40.95L-239.06,31.18L-234.81,60.9L-234.28,69.79L-227.37,88.2L-226.84,82.53L-226.31,46.62L-217.28,23.73L-216.75,26.04L-201.87,46.62L-200.81,45.57L-200.28,44L-196.03,43.68L-195.5,38.96L-193.37,25.2L-190.19,27.41L-189.66,28.67L-185.94,38.74L-184.87,36.12L-184.34,35.6L-183.81,34.13L-182.75,39.48L-182.22,38.32L-181.69,42.21L-178.5,51.45L-177.97,57.96L-176.37,73.06L-175.84,86.1L-174.78,66.91L-174.25,65.64L-167.87,36.23L-167.34,37.7L-163.09,34.13L-162.56,33.18L-162.03,12.5L-158.31,21.95L-157.78,24.05L-150.34,46.31L-149.81,47.46L-145.03,34.13L-144.5,40.64L-143.97,37.28L-141.31,28.88L-140.78,23.83L-140.25,22.78L-139.19,26.46L-138.66,28.03L-137.06,34.65L-136.53,40.43L-134.94,27.2L-133.87,41.37L-133.34,62.27L-129.09,73.85L-128.56,68.64L-128.03,65.73L-127.5,61.01L-125.91,72.66L-125.37,82.01L-124.84,76.02L-123.78,80.96L-123.25,78.33L-121.66,58.91L-121.12,53.34L-114.22,14.6L-113.69,13.55L-113.16,14.91L-111.56,11.02L-110.5,13.86L-109.97,12.81L-107.31,21.95L-106.78,24.05L-102,44.42L-100.94,43.68L-100.41,43.79L-98.28,47.46L-97.75,44.94L-97.22,41.58L-94.03,34.13L-93.5,40.64L-89.25,22.78L-88.72,24.15L-88.19,26.46L-85.53,40.43L-85,34.76L-84.47,29.3L-83.94,27.2L-83.41,38.12L-82.87,41.37L-82.34,62.27L-78.09,73.85L-77.56,68.64L-76.5,61.01L-75.97,64.75L-75.44,69.51L-74.91,72.66L-74.37,82.01L-73.84,76.02L-72.78,80.96L-72.25,78.33L-69.06,44.21L-68.53,42.63L-62.69,13.55L-62.16,14.91L-60.56,11.02L-60.03,12.5L-59.5,13.86L-58.97,12.81L-58.44,13.65L-57.91,15.33L-53.12,32.13L-52.59,31.08L-52.06,33.07L-51.53,32.34L-51,44.42L-48.87,43.68L-48.34,46.31L-47.28,47.46L-46.75,44.94L-44.62,38.12L-44.09,39.8L-43.03,34.13L-42.5,40.64L-38.25,22.78L-37.72,24.15L-34.53,40.43L-34,34.76L-32.94,27.2L-32.41,38.12L-31.87,41.37L-31.34,62.27L-29.22,69.3L-28.69,63.81L-27.09,73.85L-26.56,68.64L-25.5,61.01L-24.97,64.75L-23.37,82.01L-22.84,76.02L-22.31,76.86L-21.78,80.96L-21.25,78.33L-20.72,73.71L-17,38.85L-16.47,40.53L-15.41,37.59L-14.87,33.28L-12.22,14.6L-11.69,13.55L-11.16,14.91L-10.62,13.55L-9.56,11.02L-9.03,12.5L-8.5,13.86L-7.97,12.81L-7.44,13.65L-4.78,24.05L-4.25,27.3L-2.12,32.13L-1.59,31.08L-1.06,33.07L-0.53,32.34L0,44.42L1.06,43.68L1.59,43.79L2.13,43.68L2.66,46.31L3.72,47.46L4.25,44.94L5.31,40.22L5.84,40.53L6.38,38.12L6.91,39.8L7.97,34.13L8.5,40.64L9.56,36.75L10.09,35.91L11.16,30.45L11.69,28.88L12.75,22.78L13.28,24.15L14.88,28.46L15.41,30.03L16.47,40.43L17,34.76L18.06,27.2L18.59,38.12L19.13,41.37L19.66,62.27L21.78,69.3L22.31,63.81L22.84,65.76L23.38,72.48L23.91,73.85L24.44,68.64L25.5,61.01L26.03,64.75L27.63,82.01L28.16,76.02L28.69,76.86L29.22,80.96L30.81,69.41L31.34,58.91L34,38.85L34.53,40.53L35.59,37.59L36.13,33.28L38.25,16.07L38.78,14.6L39.31,13.55L39.84,14.91L41.44,11.02L41.97,12.5L42.5,13.86L43.03,12.81L44.09,15.33L44.63,18.17L46.22,24.05L46.75,27.3L47.28,28.67L47.81,114.45L48.88,116.55L49.41,116.55L50.47,117.6L51,117.6L53.66,117.6L54.19,116.55L55.25,112.35L55.78,112.35L57.38,112.35L57.91,111.3L58.44,111.3L58.97,109.2L60.03,111.3L60.56,107.1L61.63,109.2L62.16,107.1L63.22,109.2L63.75,109.2L64.81,109.2L65.34,107.1L66.41,110.25L66.94,111.3L67.47,111.3L68,112.35L69.06,112.35L69.59,115.5L71.19,117.6L71.72,124.95L72.78,123.9L73.31,124.95L74.38,124.95L74.91,128.1L75.97,131.25L76.5,131.25L77.03,131.25L77.56,128.1L78.09,128.1L78.63,132.3L79.16,132.3L79.69,119.7L80.22,119.7L80.75,118.65L81.28,118.65L81.81,117.6L82.88,113.4L83.41,105L83.94,105L84.47,106.05L85,103.95L85.53,106.05L86.59,106.05L87.13,105L88.72,105L89.25,106.05L91.38,106.05L91.91,103.95L93.5,106.05L94.03,106.05L94.56,106.05L95.09,109.2L95.63,109.2L96.16,112.35L97.22,112.35L97.75,114.45L98.81,114.45L99.34,115.5L100.41,118.65L100.94,118.65L102,121.8L102.53,121.8L103.06,121.8L103.59,122.85L104.66,119.7L105.19,119.7L107.84,119.7L108.38,120.75L108.91,120.75L109.44,118.65L110.5,118.65L111.03,116.55L111.56,116.55L112.09,113.4L112.63,108.15L113.16,110.25L113.69,109.2L114.22,114.45L114.75,111.3L115.81,114.45L116.34,111.3L117.41,112.35L117.94,112.35L120.06,121.8L120.59,122.85L121.13,121.8L121.66,126L122.19,126L122.72,124.95L123.78,122.85L124.31,123.9L125.38,131.25L125.91,128.1L126.44,128.1L126.97,114.45L128.03,116.55L128.56,116.55L130.16,116.55L130.69,113.4L132.28,113.4L132.81,115.5L135.47,102.9L136,102.9L137.59,102.9L138.13,101.85L138.66,101.85L139.19,99.75L140.25,101.85L140.78,101.85L141.31,101.85L141.84,105L144.5,105L145.03,107.1L146.09,107.1L146.63,108.15L147.69,109.2L148.22,109.2L148.75,111.3L149.28,108.15L149.81,114.45L150.34,113.4L150.88,113.4L151.41,113.4L151.94,114.45L152.47,116.55L153,115.5L153.53,115.5L154.06,33.92L154.59,33.92L155.13,35.6L156.72,35.7L157.25,34.86L157.78,34.23L158.31,36.75L159.91,36.44L160.44,34.76L160.97,34.76L161.5,33.18L162.56,30.14L163.09,29.4L164.69,28.88L165.22,32.45L166.28,33.49L166.81,36.44L169.47,46.94L170,54.5L170.53,55.34L171.06,59.75L172.13,61.11L172.66,59.85L173.72,65.46L174.25,64.45L174.78,64.45L175.31,62.79L176.38,63.13L176.91,62.16L177.44,59.33L177.97,59.64L178.5,63.51L179.03,62.9L179.56,65.44L180.09,66.15L180.63,64.96L181.16,58.91L181.69,60.06L182.22,58.91L184.88,49.14L185.41,43.16L186.47,42.42L187,39.69L188.59,34.02L189.13,34.44L190.19,31.5L190.72,31.6L192.31,32.03L192.84,30.35L193.38,30.24L193.91,30.98L194.44,31.5L194.97,30.77L196.03,29.92L196.56,29.92L197.09,31.82L197.63,31.18L198.16,32.76L200.81,33.18L201.34,32.24L201.88,36.33L202.41,36.23L202.94,36.12L203.47,35.7L204,39.38L205.59,38.85L206.13,39.38L206.66,38.43L207.19,39.17L207.72,41.27L208.25,40.11L209.31,38.43L209.84,38.43L210.38,38.43L210.91,36.65L212.5,37.07L213.03,38.53L214.09,39.06L214.63,45.89L216.22,48.2L216.75,46.1L217.28,53.86L217.81,53.45L218.34,56.91L219.94,52.19L220.47,58.49L222.06,85.05L222.59,89.25L223.66,107.1L224.19,108.15L224.72,106.05L225.25,107.1L225.78,107.1L226.31,106.05L226.84,106.05L227.38,121.8L228.44,121.8L228.97,124.95L230.03,128.1L230.56,126L231.63,126L232.16,118.65L232.69,117.6L233.22,114.45L234.28,110.25L234.81,110.25L236.41,101.85L236.94,96.6L237.47,96.6L238,78.22L239.06,65.15L239.59,58.91L240.13,58.17L240.66,53.24L241.19,52.4L241.72,48.61L242.25,47.57L242.78,41.58L243.31,41.58L243.84,42.95L244.38,42.42L244.91,40.22L246.5,37.07L247.03,37.07L248.63,38.85L249.16,48.2L250.22,48.2L250.75,49.46L251.81,42.53L252.34,42.42L256.59,42.53L257.13,43.26L260.31,43.05L260.84,44.1L262.44,44.52L262.97,41.79L264.03,44L264.56,43.16L265.09,43.47L265.63,47.04L266.69,46.31L267.22,49.56L268.28,61.85L268.81,61.43L269.88,63.11L270.41,69.24L272,68.15L272.53,67.95L273.06,67.95L273.59,72.78L274.66,74.36L275.19,80.64L275.72,81.9L276.25,88.2L277.31,101.85L277.84,102.9L279.44,105L279.97,105L280.5,102.9L281.03,105L282.09,106.05L282.63,109.2L283.69,93.45L284.22,94.5L284.75,95.55L285.28,93.45L285.81,88.2L287.41,80.01L287.94,73.26L290.06,44.1L290.59,44.1L292.19,40.11L292.72,39.59L294.31,36.96L294.84,37.28L295.38,36.33L295.91,12.08L296.97,36.23L297.5,36.44L298.56,34.13L299.09,35.28L299.63,37.17L300.16,42.53L300.69,41.9L301.22,24.05L301.75,27.3L302.28,38.22L303.34,38.32L303.88,40.95L305.47,42.84L306,38.53L307.06,39.48L307.59,39.48L308.66,37.49L309.19,36.96L309.72,36.96L310.25,38.12L311.31,38.43L311.84,38.43L312.91,40.95L313.44,49.46L313.97,49.77L314.5,42.21L316.09,29.92L316.63,28.25L318.22,33.81L318.75,37.28L321.41,44.42L321.94,49.35L322.47,49.35L323,50.93L323.53,52.29L324.06,55.86L324.59,59.64L325.13,68.92L325.66,70.09L326.19,68.03L327.25,79.07L327.78,78.96L328.84,79.28L329.38,83.58L329.91,83.58L330.44,82.43L330.97,82.43L331.5,87.15L332.56,90.3L333.09,89.25L336.28,67.17L336.81,68.08L337.88,49.35L338.41,47.67L340,33.92L340.53,33.92L341.06,34.76L341.59,32.03L342.13,32.03L342.66,30.56L344.25,30.24L344.78,29.4L346.38,28.88L346.91,12.08L347.97,24.36L348.5,22.89L350.63,25.73L351.16,34.34L351.69,37.07L352.22,24.05L353.81,30.87L354.34,31.71L355.41,34.23L355.94,34.97L357,34.97L357.53,33.6L358.06,33.07L358.59,35.7L359.13,37.7L359.66,37.38L360.19,36.54L361.78,34.86L362.31,34.86L363.38,34.23L363.91,35.18L366.03,32.55L366.56,34.65L367.09,33.49L367.63,34.23L368.16,33.92L369.22,34.23L369.75,32.87L370.28,33.18L370.81,35.6L371.88,35.91L372.41,40.22L374.53,46.94L375.06,49.56L377.72,67.25L378.25,67.07L378.78,67.13L379.31,71.2L380.91,71.19L381.44,71.33L385.69,72.03L386.22,69.73L388.34,61.22L388.88,46.2L389.41,45.57L389.94,38.85L392.59,29.72L393.13,27.62L393.66,26.35L394.72,27.2L395.25,26.78L397.38,26.57L397.91,12.08L400.03,29.19L400.56,28.46L402.69,30.45L403.22,33.07L408.53,34.13L409.06,35.49L410.66,35.49L411.19,36.02L415.97,35.7L416.5,32.24L418.09,32.13L418.63,29.19L421.81,33.07L422.34,35.91L424.47,45.05L425,50.3L427.66,66.62L428.19,60.8L428.72,57.86L432.97,58.7L433.5,56.6L435.63,57.02L436.16,62.27L437.22,63.92L437.75,61.43L438.28,59.11L440.41,45.47L440.94,42.11L441.47,41.16L442,46.52L442.53,47.15L444.13,45.26L444.66,45.36L445.19,44.73L445.72,37.7L446.78,38.12L448.38,34.86L448.91,12.08L451.56,29.92L452.09,28.46L452.63,28.46L453.16,44.21L455.28,34.13L455.81,34.23L461.66,38.32L462.19,37.17L462.72,37.17L466.44,40.32L467.5,38.01L468.03,35.91L468.56,38.32L469.63,32.24L470.16,32.24L470.69,32.34L472.28,34.86L472.81,35.07L473.88,34.44L474.41,39.38L478.66,71.88L479.19,67.84L479.72,65.07L480.78,62.9L482.38,67.23L482.91,66.31L485.56,64.52L486.09,72.56L488.22,81.17L488.75,75.71L489.28,68.58L490.34,61.95L490.88,47.78L497.25,27.51L497.78,26.35L499.91,12.08L500.44,24.05L500.97,24.15L503.63,26.57L504.16,33.92L505.75,27.62L507.88,30.66L508.41,30.66L517.97,32.45L518.5,30.98L521.69,32.87L522.22,28.77L530.19,66.7L530.72,67.29L531.78,65.47L532.84,67.31L533.38,75.18L536.56,72.26L538.16,74.47L538.69,75.6L540.28,81.59L541.34,78.54L541.88,72.76L548.78,30.35L549.31,33.71L549.84,34.86L550.38,38.85L554.09,30.45L554.63,27.51L555.69,43.79L559.94,41.79L560.47,41.79L571.09,88.2L571.63,84L574.81,78.65L576.41,84L576.94,85.05L580.13,88.2L582.78,71.34L583.31,65.64L585.44,59.75L585.97,54.5L591.28,62.48L592.34,55.97L592.88,52.29L595.53,44.63L598.72,45.57L599.25,46.62L601.38,49.56L601.91,12.92L606.16,75.08L608.28,61.43L608.81,61.43L614.13,82.53L614.66,78.02L615.19,70.48L617.31,74.49L620.5,43.89L621.56,60.48L622.09,64.14L631.13,90.3L632.19,85.05L632.72,79.17L633.78,82.11L636.97,66.73L637.5,66.33L641.75,82.22L642.81,73.96L643.34,64.41L649.19,43.68L650.78,44.73L651.31,46.1L652.91,12.92L657.69,75.81L658.22,33.07L664.06,76.02L666.19,66.74L666.72,71.48L678.41,55.55L680.53,60.17L681.06,61.22L682.66,54.18L686.91,68.66L687.44,72.67L699.66,38.01L700.19,36.96L704.44,21.32L708.16,27.41L708.69,36.44L712.94,39.38L718.25,27.2L718.78,28.14L720.38,29.08L722.5,23.52L723.03,19.63L727.28,0.21L728.88,8.5L729.41,22.05L737.91,66.75L738.97,48.2L739.5,49.56L745.88,106.05L748,86.1L748.53,62.37L753.31,4.09L758.63,31.71L759.16,27.41L763.94,39.38L768.19,28.03L768.72,27.62L771.38,29.08L773.5,23.52L774.03,19.63L778.28,0.21L780.41,22.05L780.94,38.43L782,53.66L785.72,25.2L787.31,51.35L787.84,52.71L789.97,48.2L796.88,106.05L799,86.1L799.53,62.37L804.31,4.09L810.69,36.44L811.22,33.07L814.94,39.38L816,27.09L820.78,28.14L821.31,28.14L827.16,10.29L827.69,7.35L829.28,0.21L831.94,38.43L832.47,36.12L833,53.66L836.72,25.2L838.84,52.71L839.38,66.68L840.97,48.2L845.22,101.85L846.81,97.65L847.34,96.6L847.88,106.05L853.72,28.03L854.25,32.24L854.78,22.78L860.63,24.57L861.16,49.14L862.75,51.77L863.28,27.83L863.81,28.35L864.34,28.77L892.5,43.26L893.03,38.85L893.56,37.38L896.22,38.12L907.91,22.68L908.44,24.15L921.72,32.97L922.25,33.07L935,44.73L935.53,46.94L945.09,62.06L945.63,65.07L961.56,36.33L962.09,37.49L962.63,38.22L963.69,52.92L976.44,49.04L976.97,44.73L991.84,97.65L992.38,99.75L1012.03,50.3L1020.53,57.75L1021.06,58.8L1031.69,30.14L1036.47,47.67L1037,52.19L1044.97,65.17L1045.5,77.49L1063.03,29.72L1065.69,39.59L1066.22,47.46L1068.88,43.16L1074.72,53.55L1081.63,44.21L1082.16,41.37L1101.28,71.67L1106.06,55.02L1106.59,52.08L1117.75,44.1L1122.53,55.65L1123.06,54.81L1150.16,46.52L1150.69,49.04L1166.63,24.89L1171.41,33.39L1171.94,32.76L1203.28,38.64L1203.81,34.76L1204.34,31.5L1211.78,20.79L1223.47,26.67L1224,27.93L1245.78,36.44L1246.31,40.85L1249.5,52.5L1263.31,22.26L1264.38,22.68L1264.91,22.68L1288.28,44.42L1288.81,47.04L1300.5,62.79L1311.13,45.99L1311.66,43.16L1319.09,29.08L1331.84,43.68L1332.38,44.31L1365.84,25.73L1366.38,26.46L1390.28,57.44L1390.81,60.8L1418.97,21.42L1423.75,28.56L1424.28,35.07L1457.22,102.9L1460.41,76.97L1460.94,76.65L1487.5,32.97L1488.56,35.91L1489.09,34.55L1508.22,77.6L1511.41,47.88L1511.94,45.89L1519.38,21.1L1525.75,49.35L1540.63,29.72L1541.16,32.24L1557.63,67.98L1566.66,26.35L1567.19,25.83L1593.22,29.4L1593.75,36.65L1594.28,42.95L1610.22,65.03L1617.66,26.78L1618.19,25.41L1626.16,46.62L1647.41,39.9L1647.94,43.36L1655.91,71.59L1670.78,32.13L1673.97,33.07L1674.5,33.6L1709.56,85.05L1710.09,87.15L1745.16,27.93L1748.88,41.37L1749.41,50.4L1756.84,61.43L1773.84,22.37L1774.38,21.74L1780.75,56.7L1809.44,46.1L1809.97,44.84L1812.09,52.92L1825.91,26.99L1842.38,45.57L1842.91,44.94L1892.31,62.27L1894.97,55.97L1895.5,51.35L1915.16,72.36L1931.63,47.15L1932.16,58.38L2010.78,80.96L2011.31,82.53L2018.22,87.15L2025.13,50.19L2025.66,49.98L2026.19,46.83L2032.03,34.34L2054.34,63.64L2054.88,68.2L2067.09,92.4L2073.47,52.71L2074,52.61L2103.22,32.45L2114.91,57.75L2115.44,60.8L2153.16,23.1L2160.06,46.41L2160.59,51.45L2171.75,65.39L2180.25,29.4L2198.31,38.96L2198.84,37.8L2234.97,34.02L2235.5,31.08L2272.69,74.29L2282.78,34.13L2283.31,33.92L2325.81,65.59L2335.38,29.61L2335.91,29.3L2375.75,78.12L2386.91,42.42L2387.44,42.42L2426.22,84L2432.59,53.66L2433.13,47.67L2456.5,30.24L2471.91,64.32L2482,42.32L2482.53,42L2511.22,30.03L2522.38,66.21L2525.03,57.65L2525.56,65.04L2537.78,29.61L2580.28,105L2582.41,88.2L2582.94,87.15L2590.91,59.01L2598.88,107.1L2631.81,85.05L2632.34,87.15L2671.13,93.45L2681.75,41.9L2684.41,62.69L2684.94,67.19L2689.72,40.22L2726.38,110.25L2736.47,82.74L2737,70.7L2781.63,88.2L2796.5,36.12L2797.03,36.33L2825.72,78.02L2852.81,41.48L2853.34,40.53L3126.94,107.1L3127.47,108.15L3208.22,43.79L3215.13,63.27L3215.66,72.9L3233.19,94.5L3277.81,36.85L3279.94,54.71L3280.47,59.75L3302.25,36.33L3337.31,81.8L3345.28,59.01L3345.81,56.49L3355.91,26.99L3389.38,117.6L3409.03,37.17L3409.56,35.7L3438.78,117.6L3487.66,79.59L3488.19,80.01L3508.91,40.32L3545.56,130.2L3556.72,80.11L3557.25,72.46L3599.22,89.25L3611.97,31.5L3612.5,29.82L3639.06,106.05L3683.16,32.45L3683.69,28.67L3745.84,75.6L3760.19,34.23L3760.72,32.66L3855.81,90.3L3872.81,61.01L3873.34,53.66L3955.69,72.71L3959.94,40.43L3960.47,33.71L4123.56,49.35L4124.09,46.1L4208.03,83.37L4214.94,69.09L4215.47,64.59L4316.94,56.49L4322.78,64.79L4323.31,67.75L4424.78,7.88L4431.69,18.17L4432.22,18.17L4516.16,68.91L4528.91,24.99L4529.44,25.62L4562.91,72.19L4623.47,24.36L4624,15.75L4772.75,66.66L4775.94,45.15L4776.47,32.13L4921.5,70.67L4934.78,25.52L4935.31,24.89L5021.38,58.17L5053.25,33.18L5053.78,30.45L5178.63,51.87L5188.72,13.97L5189.25,11.66L5276.38,76.97L5312.5,25.52L5313.03,19.42L5339.59,1.58L5431.5,60.27L5437.88,28.14L5438.41,28.14L5481.44,132.3L5546.25,29.3L5546.78,25.83L5719.44,38.64L5721.56,30.56L5722.09,16.8L5870.84,93.45L5871.38,89.25L5978.16,35.81L6003.66,75.71L6004.19,78.86L6611.94,17.95L6612.47,13.86L6706.5,86.1L6766,21.53L6766.53,19.42L6938.13,95.55L6944.5,75.71L6945.03,73.17L6979.03,33.81L7093.78,52.71L7098.03,39.17L7098.56,34.76L7450.25,68.72L7450.78,73.72L7451.31,75.92L7497,73.97003272113153L7497,79.59" style="vector-effect: non-scaling-stroke; fill: none; stroke: rgb(255, 153, 51); stroke-opacity: 1; stroke-width: 1.3px; opacity: 1;"/></g><g class="points"/><g class="text"/></g><g class="trace scatter tracef4f1c0" style="stroke-miterlimit: 2; opacity: 1;"><g class="fills"/><g class="errorbars"/><g class="lines"><path class="js-line" d="M-5225.91,36.96L-5192.44,55.37L-5158.44,8.07L-5112.22,20.57L-5111.69,21.35L-4995.34,66.8L-4985.78,22.16L-4985.25,10.96L-4959.75,2.82L-4921.5,48.7L-4880.59,9.26L-4880.06,6.13L-4817.91,76.38L-4767.97,55.7L-4767.44,56.08L-4652.69,12.48L-4646.31,27.39L-4645.78,37.76L-4575.66,30.62L-4561.31,80.1L-4560.78,85L-4456.12,110.41L-4449.22,73.75L-4448.69,68.25L-4355.72,115.15L-4350.94,81.27L-4350.41,69.75L-4304.72,121.07L-4256.37,26.7L-4252.12,34.52L-4251.59,37.19L-4218.12,83.4L-4160.75,22.68L-4158.62,38.01L-4158.09,44.49L-4104.97,95.44L-4064.59,37.24L-4062.47,44.02L-4061.94,49.19L-4041.22,38.92L-4005.62,124.51L-3975.87,64.49L-3975.34,65.1L-3887.69,17.81L-3879.19,43.27L-3878.66,49.73L-3850.5,102.9L-3808.53,14.52L-3799.5,72.57L-3798.97,81.91L-3784.62,17.26L-3717.16,125.16L-3716.09,122.67L-3715.56,117.08L-3702.28,145.14L-3682.09,53.42L-3636.41,100.85L-3635.87,101.94L-3593.91,137.09L-3582.22,43.78L-3581.69,43.48L-3556.19,18.11L-3544.5,87.74L-3503.59,27.55L-3503.06,25.75L-3480.75,20.22L-3442.5,94.19L-3431.34,40.83L-3430.81,38.73L-3334.66,121.46L-3331.47,93.61L-3330.94,88.78L-3309.16,46.56L-3284.72,148.12L-3264.53,126.53L-3264,120.89L-3176.34,74.82L-3175.81,38.77L-3174.75,16.15L-3140.75,137.2L-3110.47,65.62L-3109.94,64.02L-3097.72,41.61L-3085.5,129.59L-3084.97,133.89L-3020.16,28.01L-3002.09,45.71L-3001.56,44.69L-2936.22,122.33L-2920.81,64.55L-2920.28,58.63L-2881.5,107.12L-2867.69,27.97L-2860.25,77.23L-2859.72,78L-2819.87,34.41L-2819.34,25.72L-2776.84,89.92L-2748.69,40.18L-2748.16,35.31L-2731.69,91.48L-2692.37,26.46L-2689.19,31.58L-2688.66,35.87L-2662.09,27.55L-2632.87,104.79L-2628.62,86.85L-2628.09,86.85L-2585.59,42.08L-2581.87,65.14L-2581.34,86.75L-2574.97,100.11L-2560.09,34.46L-2543.09,42.55L-2542.56,39.37L-2527.69,68.82L-2486.25,16.89L-2484.66,21.14L-2484.12,28.52L-2459.69,18.28L-2423.56,100.24L-2423.03,99.78L-2422.5,98.61L-2418.25,109.23L-2410.81,52.41L-2385.31,61.23L-2384.78,53.15L-2373.09,96.61L-2357.16,45.34L-2338.03,42.93L-2337.5,43.16L-2323.16,77.98L-2304.03,19.23L-2289.69,52.95L-2289.16,52.95L-2265.78,115.95L-2258.34,66.31L-2257.81,60.4L-2253.03,53.25L-2216.91,118.69L-2209.47,82.43L-2208.94,62.38L-2181.31,16.99L-2169.09,87.35L-2168.56,86.73L-2129.78,26.6L-2127.12,59.72L-2126.59,64.06L-2109.59,115.96L-2100.03,38.57L-2083.56,49.05L-2083.03,48.35L-2077.72,34.72L-2068.69,105.22L-2038.94,52.88L-2038.41,54.46L-2014.5,94.72L-1998.56,28.62L-1986.87,45.7L-1986.34,45.7L-1963.5,61.73L-1947.56,22.5L-1940.66,37.7L-1940.12,38.02L-1859.37,109.97L-1858.31,105.13L-1857.78,112.06L-1821.12,21.8L-1816.87,72.28L-1816.34,73.3L-1797.75,24.92L-1774.91,127.61L-1769.59,120.75L-1769.06,115.87L-1755.25,141.85L-1730.28,121.67L-1729.75,121.25L-1720.19,110.07L-1711.69,148.04L-1706.37,146.7L-1705.84,146.7L-1673.97,34.63L-1655.91,50.52L-1655.37,58L-1618.72,22.7L-1617.12,33.97L-1616.59,43.49L-1606.5,103.73L-1587.37,21.92L-1583.12,37.86L-1582.59,34.39L-1554.44,139.52L-1542.22,61.89L-1541.69,63.67L-1516.72,59.15L-1503.44,143.78L-1502.91,99.55L-1501.84,119.48L-1487.5,26.45L-1473.16,50.63L-1472.62,42.65L-1453.5,135.55L-1442.34,35.05L-1441.81,33.01L-1439.16,16.94L-1412.59,40.51L-1412.06,51.74L-1400.37,67.74L-1386.56,18.89L-1384.44,23.56L-1383.91,22.99L-1353.62,86.8L-1346.19,41.71L-1345.66,35.63L-1345.12,54.47L-1338.75,12.92L-1317.5,33.18L-1316.97,33.82L-1306.34,99.91L-1291.47,44.88L-1290.94,38.58L-1285.09,18.3L-1263.31,32.35L-1262.78,32.35L-1248.44,61.26L-1236.22,32.69L-1235.69,27.08L-1231.97,20.28L-1221.34,42.6L-1213.91,41.13L-1213.37,41.48L-1197.97,67.73L-1184.69,47.83L-1184.16,43.7L-1180.97,29.61L-1161.31,48.27L-1159.72,46.81L-1159.19,46.81L-1150.69,104.74L-1140.59,70.49L-1140.06,56.2L-1132.62,24.93L-1112.44,33.98L-1111.91,31.57L-1101.28,32.78L-1099.16,46.1L-1098.62,46.1L-1098.09,53.41L-1097.56,60.15L-1081.09,18.42L-1076.31,33.72L-1075.78,34.84L-1070.47,47.42L-1061.44,21.79L-1060.37,22.62L-1059.84,17.17L-1042.31,72.04L-1035.94,35.98L-1035.41,34.91L-1029.56,18.71L-1021.06,38.21L-1013.62,36.9L-1013.09,35.18L-1008.31,21.81L-999.81,45.08L-999.28,44.57L-998.75,52.64L-996.62,67.67L-981.22,22.2L-980.69,22.2L-980.16,22.2L-962.62,39.84L-957.31,24.3L-956.78,18.18L-943.5,85.09L-938.19,39.95L-937.66,37.12L-932.87,24.88L-923.31,60.21L-922.78,66.99L-921.19,108.94L-902.59,98.45L-902.06,97.16L-889.84,138.27L-882.94,97.22L-882.41,95.29L-877.09,82.75L-867,109.67L-864.34,98.48L-863.81,99.54L-862.22,98.64L-848.41,123.35L-845.75,97.44L-845.22,99.17L-837.25,133.93L-828.22,84.78L-827.69,83.1L-810.16,50.81L-808.03,52.67L-807.5,53.39L-805.37,47.95L-800.06,75.26L-799.53,88.24L-796.34,77.38L-787.31,123.33L-783.06,89.17L-782.53,84.45L-777.75,39.14L-765,63.39L-764.47,64.21L-754.37,91.42L-752.78,69.93L-752.25,65.34L-747.47,74.68L-743.22,58.34L-742.69,51.26L-735.25,98.09L-731.53,43.13L-728.87,58.33L-728.34,50.19L-721.44,25.47L-713.47,48.59L-712.94,53.39L-711.87,62.86L-700.72,25.68L-699.66,37.16L-699.12,37.59L-694.87,31.7L-687.97,91.13L-681.59,54.96L-681.06,48.15L-672.56,21.87L-666.19,39.89L-665.66,46.67L-652.37,31.04L-650.78,47.34L-650.25,50.08L-642.81,108.92L-634.84,70.58L-634.31,67.53L-633.25,48.29L-627.94,81.38L-621.56,79.62L-621.03,80.31L-610.41,86.04L-608.81,75.53L-608.28,70.37L-600.84,59.47L-593.94,65.89L-593.41,65.74L-589.16,61L-585.44,79.22L-580.66,70.29L-580.12,62.16L-571.62,21.74L-567.91,32.31L-567.37,38.46L-554.62,37.77L-554.09,37.77L-547.72,31.15L-545.06,48.1L-544.53,54.23L-541.34,43.4L-540.81,67.7L-538.16,66.88L-537.62,77.49L-523.81,28.02L-522.75,28.64L-522.22,23.97L-516.37,19.95L-515.84,23.77L-515.31,32.79L-499.37,40.18L-498.84,38.07L-480.78,87.85L-476.53,85.72L-476,82.73L-465.91,36.7L-463.25,42.45L-462.72,42.45L-448.91,45.12L-447.84,43.49L-447.31,43.49L-429.25,94.94L-428.72,93.69L-428.19,94.94L-422.87,52.41L-422.34,54.85L-421.81,46.86L-417.56,39.03L-413.31,48.28L-412.78,49.92L-396.31,32.31L-394.19,34.87L-393.66,39.05L-382.5,81.94L-381.97,83.19L-379.31,87.16L-374.53,61.81L-374,52.33L-365.5,32.21L-362.84,39.31L-362.31,44.2L-354.87,55.77L-353.81,49.82L-353.28,45.32L-348.5,37.98L-347.97,34.62L-345.84,21.43L-341.06,41.41L-340.53,48.29L-340,43.76L-335.75,63.89L-335.22,78.14L-326.72,103.73L-324.06,94.41L-323.53,94.41L-313.97,42.85L-313.44,43.42L-312.91,45.02L-311.31,36.44L-310.25,45.79L-309.72,47.28L-306,40.93L-302.81,48.42L-302.28,52.92L-301.22,57.76L-297.5,42.47L-296.97,42.47L-296.44,41.28L-295.91,23.56L-290.06,53.47L-289.53,81.97L-286.87,60.56L-284.22,92.37L-283.16,84.64L-282.62,93.17L-276.78,98.96L-276.25,80.9L-275.72,82.15L-274.12,71.69L-273.59,71.69L-273.06,71.69L-262.97,31.33L-262.44,30.54L-259.78,45.76L-255,44.24L-254.47,44.97L-252.34,46.54L-250.75,42.94L-250.22,35.72L-247.56,33.97L-247.03,31.73L-246.5,29.64L-241.19,25.34L-240.66,29.95L-240.12,31.95L-232.69,62.97L-231.09,60.92L-230.56,59.18L-229.5,71.44L-226.84,57.39L-224.72,70.91L-224.19,65.49L-215.69,25.01L-215.16,24.49L-214.09,18.37L-210.91,25.14L-210.37,23.47L-209.84,24.68L-204.53,36.71L-202.94,36.01L-202.41,36.01L-197.62,34.55L-197.09,34.69L-193.91,28.49L-193.37,24.85L-191.25,16.07L-189.66,21.62L-189.12,22.75L-179.56,49.08L-179.03,45.36L-176.37,54.96L-175.31,54.62L-174.78,43.45L-170,30.28L-169.47,29.85L-167.87,30.23L-162.56,17.55L-162.03,17.78L-157.25,45.93L-154.06,44.04L-153.53,44.11L-152.47,55.35L-149.81,46.85L-149.28,45.09L-148.22,43.35L-147.16,47.73L-146.09,46.6L-145.56,51.82L-145.03,54.83L-143.44,44.45L-142.91,41.94L-139.72,39.58L-139.19,38.76L-136.53,44.67L-136,59.18L-134.94,57.28L-134.41,58.44L-133.87,64.74L-133.34,67.43L-132.28,55.42L-131.75,56.6L-128.03,39.86L-127.5,26.34L-123.25,66.57L-122.72,56.17L-122.19,61.69L-121.12,53.47L-119.53,58.34L-119,52.61L-114.75,39.85L-114.22,41.61L-113.69,41.61L-111.56,37.77L-110.5,38.86L-109.97,44.76L-107.84,47.24L-107.31,47.5L-103.06,57.24L-102.53,57.31L-100.41,57.88L-99.87,60.77L-96.69,56.18L-95.62,57.12L-95.09,57.12L-92.44,60.97L-91.91,53.31L-88.72,64.69L-88.19,59.58L-87.12,49.87L-86.59,58.3L-86.06,67.9L-85,65.15L-83.41,70.83L-82.87,78.89L-81.81,85.23L-81.28,83.53L-80.75,79.6L-80.22,78.81L-79.69,80.99L-78.62,89.07L-78.09,90.05L-77.56,79.69L-77.03,90.05L-76.5,100.25L-74.91,96.61L-74.37,98.2L-73.84,99.68L-72.25,97.96L-71.72,84.05L-71.19,90.17L-70.12,83.28L-69.59,82.04L-69.06,79.33L-68.53,72.51L-66.94,73.19L-66.41,69.57L-63.75,54.4L-63.22,50.84L-62.69,50.49L-62.16,47.32L-61.62,47.84L-61.09,45.29L-57.91,39.74L-57.37,43.92L-55.78,49.95L-54.72,48.17L-54.19,47.32L-51.53,49.24L-51,41.49L-48.87,42.67L-48.34,40.52L-46.22,39.54L-45.69,38.48L-43.56,38.47L-43.03,37.01L-42.5,36.56L-41.97,33.78L-40.91,37.97L-40.37,34.59L-39.84,33.9L-37.72,30.05L-37.19,40.38L-36.66,34.22L-35.59,37.04L-35.06,42.72L-32.94,50.27L-32.41,47.31L-29.75,59.9L-29.22,60.9L-26.56,73.68L-26.03,69.77L-25.5,68.84L-24.97,72.92L-22.84,72.44L-22.31,70.21L-21.25,69.99L-20.72,73.34L-19.66,69.25L-19.12,66.94L-17,45.91L-16.47,45.82L-15.94,45.19L-15.41,38.69L-14.34,26.57L-13.81,27.82L-13.28,27.83L-12.75,27.35L-12.22,30.89L-11.69,31.51L-11.16,30.09L-10.62,30.23L-10.09,22.84L-9.03,18.64L-8.5,19.47L-7.97,18.42L-7.44,23.68L-6.91,22.93L-6.37,24.84L-4.25,31.4L-3.72,30.58L-2.66,35.01L-2.12,35.06L-1.06,35.06L-0.53,38.62L0,38.66L0.53,35.63L1.06,35.9L1.59,38.35L2.13,36.92L2.66,38.32L3.19,38.32L3.72,39.98L4.78,35.15L5.31,36.47L5.84,36.08L6.38,37.45L7.97,32.22L8.5,31.52L10.09,29.63L10.63,30.01L11.69,24.54L12.22,23.96L12.75,22.6L13.28,23.38L13.81,21.61L14.34,32.84L15.41,38.46L15.94,37.9L16.47,39.33L17,44.16L18.06,49.44L18.59,49.44L20.19,65.11L20.72,65.36L21.25,70.46L21.78,63.38L22.84,56.19L23.38,60.35L23.91,57.84L24.44,61.04L24.97,67.44L25.5,63.74L26.56,66.11L27.09,62.36L28.16,63.32L28.69,61.59L29.75,61.22L30.28,60L30.81,61.34L31.34,58.72L31.88,59.69L32.41,52.48L32.94,49.51L33.47,49.72L34,51.07L35.59,40.66L36.13,30.05L36.66,27.92L37.19,28.28L37.72,27.71L39.31,28.72L39.84,28.34L40.38,29.47L40.91,20.61L43.03,18.18L43.56,15.67L44.09,18.16L44.63,26.34L45.69,26.22L46.22,26.87L47.28,32.02L47.81,31.97L49.94,32.33L50.47,36.43L51.53,36.26L52.06,36.96L53.13,34.98L53.66,35.85L54.19,35.89L54.72,36.72L56.84,32.73L57.38,34.95L58.97,27.95L59.5,28.53L60.03,29.65L61.09,30.78L61.63,26.63L62.69,25.9L63.22,23.71L63.75,23.85L64.28,32.7L64.81,38.37L65.34,36.67L65.88,38.94L66.41,38.86L66.94,46.24L68,52.78L68.53,49.3L69.06,49.18L69.59,50.66L71.19,66.57L71.72,64.63L72.25,65.19L72.78,63.95L73.31,62.33L73.84,63.7L74.91,63.85L75.44,62.24L76.5,67.18L77.03,65.76L78.09,67.55L78.63,65.76L79.16,65.81L79.69,63.79L80.22,62.84L80.75,64.59L81.28,64.35L81.81,66.13L83.41,62.52L83.94,56.51L85.53,49.66L86.06,48.23L87.66,29.63L88.19,29.03L88.72,28.83L89.25,30.72L89.78,29.21L90.31,22.74L91.38,22.71L91.91,15.06L92.97,12.46L93.5,16.36L94.56,21.25L95.09,23.19L98.81,33.08L99.34,31.13L99.88,34.16L100.41,33.94L100.94,33.94L102.53,34.26L103.06,33.09L104.13,31.97L104.66,35.29L105.72,35.54L106.25,34.06L107.31,33.58L107.84,32.71L108.38,34.04L108.91,32.81L109.44,33.7L109.97,33.07L111.03,30.23L111.56,28.41L112.09,29.94L112.63,25.25L114.22,29.79L114.75,28.09L115.28,32.1L115.81,27.87L117.41,37.59L117.94,39.1L118.47,41.69L119,54.17L119.53,54.17L120.06,56.54L121.13,57.96L121.66,61.45L122.19,59.96L122.72,64.92L123.78,57.35L124.31,56.83L125.91,73.83L126.44,70.62L126.97,72.23L127.5,70.72L128.56,82.57L129.09,82.46L129.63,80.56L130.16,74.32L130.69,74.6L131.22,76.41L132.28,71.57L132.81,65.96L133.34,65.08L133.88,55.67L134.94,44.7L135.47,52.17L137.59,37.4L138.13,36.51L139.72,32.35L140.25,33.62L141.84,24.51L142.38,23.4L143.44,17.91L143.97,16.99L145.03,19.28L145.56,19.01L146.09,19.01L146.63,19.69L147.16,17.98L147.69,20.36L148.22,27.16L148.75,25.06L149.28,28.53L149.81,33.42L150.34,32.39L150.88,35.11L151.41,33.49L151.94,35.21L153,33.38L153.53,34.28L154.06,34.25L154.59,35.15L155.66,36.62L156.19,35.8L157.25,36.46L157.78,35.77L158.31,41.03L158.84,40.77L159.38,39.39L159.91,39.91L160.44,31.38L161.5,35.83L162.03,36.17L163.09,39.33L163.63,26L164.16,28.79L164.69,27.9L165.22,28.27L165.75,27.95L166.28,28.81L166.81,32.57L167.34,45.93L167.88,44.46L168.41,45.56L168.94,44.71L169.47,48.58L172.13,66.08L172.66,67.47L173.19,72.03L173.72,64.68L174.25,66.83L174.78,64.02L175.31,62.91L175.84,65.08L176.38,68.95L176.91,66.9L177.44,62.09L177.97,63.61L178.5,66.53L179.03,64.57L179.56,65.34L180.09,66.88L180.63,66.88L181.16,72.33L181.69,77.8L182.22,73.12L183.28,70.88L183.81,58.67L184.88,51.79L185.41,58.29L187,48.32L187.53,48.62L188.59,46.47L189.13,42.68L189.66,46.68L190.19,45.42L190.72,43.6L191.25,41.87L191.78,28.32L192.84,25.7L193.38,22.41L194.97,18.39L195.5,22.19L196.03,22.91L196.56,19.24L198.16,26.65L198.69,29.24L199.22,27.06L199.75,31.55L200.81,33.53L201.34,32.94L202.41,37.42L202.94,37.34L203.47,36.07L204,44.64L206.13,46.25L206.66,45.04L207.72,48.26L208.25,47.78L208.78,47.27L209.84,44.28L210.38,47.41L211.44,41.94L211.97,44.07L212.5,44.05L213.03,48.16L214.09,48.37L214.63,54.06L215.16,58.62L215.69,56.75L216.22,58.54L216.75,55.22L217.28,59.57L217.81,61.79L218.34,60.57L218.88,63.59L219.41,60.15L222.06,98.67L222.59,98.57L223.13,108.32L223.66,105.1L224.19,101.31L224.72,103.24L225.25,108.61L225.78,110.49L226.31,105.54L226.84,107.11L227.38,111.47L228.44,120.16L228.97,115.06L231.63,138.65L232.16,118.41L232.69,119.1L233.22,117.81L233.75,121.73L234.28,109.51L235.88,111.35L236.41,108.12L237.47,106.65L238,90.16L238.53,70.33L239.06,72.09L239.59,67.44L241.19,63.46L241.72,63.46L243.31,51.33L243.84,50.06L245.44,36.15L245.97,37.79L247.03,43.47L247.56,42.76L249.16,45.31L249.69,45.6L250.75,45.37L251.28,46.79L251.81,46.26L252.34,46.8L253.41,48.49L253.94,46.76L255.53,50.1L256.06,49.59L256.59,49.59L257.13,48.45L258.19,49.56L258.72,48.84L259.78,48.47L260.31,48.82L261.91,47.44L262.44,48.19L262.97,47L263.5,59.97L264.03,57.84L264.56,60.41L265.09,61.34L265.63,68.06L266.16,52.23L266.69,52.38L267.22,59.82L268.28,58.72L268.81,59.43L269.88,65.74L270.41,66.68L270.94,64.47L271.47,66L272.53,80.38L273.06,81.89L274.13,91.42L274.66,94.5L275.19,97.96L275.72,97.43L276.25,97.23L276.78,90.78L277.31,96.43L278.38,97.81L278.91,101.81L279.44,102.2L279.97,104.12L281.03,98.1L281.56,96.48L282.63,97.29L283.16,98.2L284.22,98.48L284.75,104.37L285.28,103.11L285.81,98.25L286.34,96.53L286.88,92.12L287.41,91.36L287.94,81.94L291.13,55.08L291.66,55.74L292.19,55.69L292.72,43.94L293.25,44.72L293.78,42.62L294.31,42.42L294.84,44.5L295.38,44.9L295.91,40.97L296.44,42.14L296.97,38.79L298.03,39.14L298.56,36.42L299.09,35.63L299.63,37.23L300.16,37.7L300.69,39.8L301.22,37.66L301.75,40.97L302.28,40.93L302.81,38.28L303.34,37.86L303.88,38.98L304.41,47.39L304.94,44.17L305.47,45.55L306,38.63L306.53,38.71L307.06,39.35L307.59,40.56L308.13,39.87L308.66,37.42L309.19,39.39L310.25,36.97L310.78,43.28L311.31,45.01L311.84,42.75L312.38,41.58L312.91,46.94L315.56,34.38L316.09,36.23L316.63,27.41L317.16,27.61L317.69,27.07L318.22,23.05L318.75,30.35L319.81,37.8L320.34,37.25L320.88,39.65L321.41,37.75L321.94,37.9L322.47,44.9L326.19,81.37L326.72,79.62L327.25,79.19L327.78,73.51L329.38,85.24L329.91,85.24L330.44,84.13L330.97,90.4L331.5,91.14L332.03,95.14L332.56,93.66L333.09,89.29L333.63,76.88L334.16,79.11L334.69,84.14L335.75,93.44L336.28,83.09L336.81,82.86L337.34,74.13L338.94,57.84L339.47,58.48L340.53,45.32L341.06,50.41L342.13,37.39L342.66,34.51L343.19,32.4L343.72,19.51L344.25,18.28L344.78,22.65L345.84,23.65L346.38,19.58L347.97,21.76L348.5,21.15L350.09,24.14L350.63,26.46L352.75,29.69L353.28,29.69L353.81,31.27L354.34,28.41L354.88,28.31L355.41,31.65L356.47,36.54L357,38.96L358.06,36.15L358.59,37.81L359.66,35.59L360.19,36.01L360.72,36.59L361.25,36.07L361.78,34.95L362.31,36.35L362.84,34.3L363.38,33.75L363.91,36.03L365.5,31.98L366.03,24.36L367.09,22.78L367.63,24.95L369.22,19.27L369.75,19.42L370.81,17.59L371.34,27.08L375.06,51.8L375.59,48.98L376.13,53.1L376.66,48.64L377.19,48.84L378.78,56.42L379.31,54.52L380.91,68.65L381.44,66.37L381.97,55.24L383.03,57.98L383.56,54.19L384.63,53.24L385.16,61.74L385.69,61.74L386.22,59.4L386.75,59.61L387.28,57.46L388.34,56.56L388.88,41.76L392.59,32.9L393.13,24.52L393.66,26.99L394.19,22.71L394.72,23.53L396.31,20.97L396.84,23.59L397.38,23.74L397.91,21.55L398.97,23.97L399.5,24.65L400.03,22.17L401.09,23.33L401.63,25.32L403.22,27.65L403.75,31.3L404.28,32.92L404.81,31.43L405.34,30.39L405.88,28.75L406.41,30.9L406.94,31.93L410.13,39.56L410.66,37.22L411.19,42.19L412.78,40.3L413.31,42.06L414.91,41.29L415.44,38.6L415.97,37.46L416.5,37.72L417.03,31.74L418.09,24.69L419.69,26.17L420.22,29.1L421.28,29.65L421.81,34.22L427.13,69.51L427.66,68.81L428.19,67.86L429.25,66.81L430.31,71.4L430.84,75.15L432.97,81.66L433.5,75.35L434.03,71.47L435.09,80.18L435.63,79.09L437.22,84.03L437.75,79.98L438.28,77.8L440.94,55.95L441.47,56.16L442,46.94L442.53,49.59L443.59,42.27L444.13,39.53L447.31,25.38L447.84,27.23L448.38,27.68L449.97,20.82L451.03,23.24L451.56,24.71L452.09,25.24L452.63,30.86L454.75,36.03L455.28,34.02L461.66,35.91L462.19,38.36L465.38,37.65L465.91,34.9L467.5,37.95L468.03,35.57L468.56,31.35L469.63,34.97L470.69,31.47L471.22,28.69L473.34,23.47L473.88,28.82L474.41,33L476,54.92L476.53,59.77L478.13,109.96L478.66,115.43L479.19,75.06L479.72,75.54L480.25,84.09L484.5,63.82L485.03,70.35L485.56,71.33L486.09,76.44L486.63,77.68L487.16,86.31L488.22,89.13L489.28,86.65L489.81,80.54L500.44,10.65L500.97,10.83L501.5,23.62L503.09,19.28L505.22,23.84L505.75,26.53L506.28,24.32L508.94,28.66L509.47,28.6L515.31,30.25L515.84,25.06L518.5,36.2L520.09,30.6L520.63,27.34L521.69,25.97L522.22,31.83L522.75,35.71L523.28,36.88L523.81,29.43L524.34,29.43L524.88,29.43L531.78,66.92L532.31,73.21L533.38,75.59L533.91,78.21L534.44,92.8L536.56,54.51L538.16,73.76L538.69,63.4L540.81,78.94L541.88,71.99L542.41,63.22L543.47,68.14L545.06,49.43L545.59,36.41L546.13,30.87L547.72,60.19L548.25,59.11L556.22,29.83L557.28,36.99L557.81,37.99L559.94,43.23L560.47,35.67L561,40.6L561.53,46.16L568.44,66.1L568.97,70.47L569.5,77.32L571.63,61.3L574.28,74.71L574.81,74.46L575.34,59.47L577.47,89.86L580.13,72.48L580.66,65.38L581.19,63.47L583.31,74.39L584.38,68.26L584.91,79.86L592.34,61.14L592.88,73.38L600.84,35.46L601.38,39.28L610.41,61.62L612.53,57.07L613.06,52.33L613.59,49.46L617.31,60.32L617.84,60.77L618.38,63.39L621.03,48.91L621.56,47.03L623.16,42.43L625.81,53.38L626.34,64.22L636.97,104.29L637.5,94.58L638.03,88.95L652.38,35.32L653.97,36.67L654.5,37.48L657.69,41.22L658.22,46.72L667.78,66.04L668.31,68.21L668.84,75.46L673.09,43.11L673.63,49L674.16,45.52L682.13,64.21L682.66,62.88L690.09,54.73L690.63,56.14L691.16,63.39L692.22,62.12L693.28,70.4L694.34,65.45L694.88,73.29L704.97,23.28L708.69,34.93L709.22,42.38L716.13,53.83L719.31,48.89L719.84,44.52L720.38,48.79L726.22,30.18L726.75,29.43L727.81,27.86L736.84,86.29L741.09,71.29L741.63,68.14L746.41,55.18L746.94,42.35L754.91,18.08L758.09,19.83L758.63,24.95L767.66,41.9L771.38,38.04L771.91,34.06L772.97,42.98L777.75,14.95L778.81,21.13L779.34,19.26L794.22,61.91L796.34,52.21L796.88,32.59L797.41,44.76L805.38,11.75L805.91,12.85L806.44,12.72L821.31,35.42L823.97,31.12L824.5,26.16L827.69,11.85L833,49.85L833.53,51.77L842.03,68.02L843.09,59.15L843.63,54.49L846.28,64.81L849.47,39.14L850,37.4L857.97,15.57L863.28,26.62L863.81,27.46L872.31,35.3L876.03,26.63L876.56,25.92L879.75,14.33L884.53,34.25L885.06,54.34L888.25,78.97L893.56,47.01L896.22,51.31L896.75,48.21L909.5,12.35L911.63,17.68L912.16,20.5L925.44,38.16L928.63,35.56L929.16,33.61L931.81,31.94L933.41,35.63L933.94,47.29L941.38,71.42L948.28,64.28L948.81,61.23L950.94,63.37L958.91,38.88L964.22,41.26L964.75,43.97L965.28,40.09L969,52.21L977.5,47.82L978.03,49.05L998.22,108.54L1000.34,89.18L1000.88,81.07L1020.53,44.77L1023.72,49.99L1024.25,52.97L1032.22,31.46L1043.91,73.14L1044.44,72.58L1044.97,66.17L1049.22,77.17L1055.59,37.38L1056.13,45.38L1056.66,32.33L1061.97,25.31L1068.34,50.18L1068.88,46.07L1069.41,49.03L1077.91,57.65L1080.56,44.03L1083.22,50L1083.75,39.26L1100.75,86L1106.59,67.33L1107.13,66.59L1113.5,44.53L1123.59,61L1124.13,65.55L1137.94,21.89L1148.56,39.5L1149.09,40.66L1168.75,21.53L1171.94,34.44L1172.47,35.58L1183.09,20.22L1183.63,18.22L1187.34,14.68L1203.28,39.86L1205.41,25.5L1205.94,20.17L1212.84,14.6L1220.81,31.89L1221.34,30.75L1221.88,34.91L1237.81,21.16L1239.41,35.56L1239.94,39.29L1253.22,58.1L1256.94,37.34L1257.47,23.35L1263.31,15.09L1275.53,39.13L1278.19,38.3L1278.72,38.05L1285.63,30.8L1290.94,47.84L1291.47,55.99L1298.91,90.56L1309,40.21L1311.66,41.45L1312.19,44.16L1322.81,34.41L1333.97,39.55L1334.5,35.25L1349.38,69.39L1358.94,42.58L1359.47,39.42L1370.63,27.97L1378.59,40.78L1379.13,52.4L1388.16,31.83L1401.44,50.39L1401.97,58.42L1405.69,77.82L1409.41,29.79L1409.94,27.15L1412.59,15.51L1433.84,47.07L1439.16,39.52L1439.69,36.56L1453.5,128.01L1467.84,80.88L1468.38,71.36L1470.5,76.76L1491.75,32.29L1496,64.24L1496.53,64.9L1507.69,82.59L1521.5,18.63L1529.47,38.08L1530,38.75L1552.84,64.29L1553.38,59.81L1553.91,73.3L1570.91,13.55L1592.69,22.06L1593.22,22.11L1602.78,67.31L1620.31,19.22L1620.84,18.89L1669.72,53.12L1671.31,40.05L1671.84,37.98L1700,68.96L1700.53,69.67L1708.5,104.56L1724.97,29.54L1725.5,29.98L1726.03,28.7L1746.75,25.3L1757.38,74.71L1760.56,65.7L1761.09,54.57L1775.97,12.18L1792.97,41.52L1793.5,37.47L1811.03,50.16L1825.91,17.44L1827.5,21.21L1828.03,22.89L1881.16,70.53L1881.69,67.81L1882.22,64.59L1909.84,112.65L1918.34,74.99L1918.88,71.64L1924.72,74.63L1950.75,39.21L1953.94,51.78L1954.47,52.5L1967.75,98.7L1979.97,33.93L1989.53,56.51L1990.06,56.51L2001.75,56.57L2009.72,86.5L2010.25,91.1L2014.5,103.39L2034.16,35.78L2044.25,51.14L2044.78,50.76L2069.22,94.57L2084.63,36.72L2086.22,38.62L2086.75,38.97L2119.69,69.62L2127.13,34.42L2127.66,28.71L2155.28,23.17L2163.25,47.19L2163.78,52.14L2173.34,69.44L2183.44,21.72L2196.19,36.54L2196.72,34.94L2206.28,24.96L2217.44,67.18L2221.69,61.05L2222.22,68.57L2238.16,17.14L2264.19,55.4L2264.72,64.02L2273.22,76.67L2287.03,22.95L2288.09,23.05L2288.63,23.05L2326.88,74.13L2332.72,33.39L2333.25,27.17L2369.91,78.85L2370.44,96.63L2372.03,97.9L2395.41,43.19L2414,99.66L2414.53,100.02L2467.13,23.75L2470.84,44.79L2471.38,63.13L2490.5,19.47L2519.19,51.62L2519.72,58.25L2537.78,19.15L2569.13,75.38L2569.66,73.78L2580.81,125.9L2610.03,103.39L2610.56,76.78L2626.5,147.31L2644.56,61.55L2645.09,61.33L2670.06,86.4L2693.44,21.85L2699.81,68.33L2700.34,71.19L2727.97,131.47L2742.31,46.33L2747.09,51.87L2747.63,47.18L2769.41,36.81L2778.97,77.96L2779.5,88.38L2843.78,17.51L2846.44,19.33L2846.97,21.95L2883.63,76.14L2911.25,38.74L2911.78,37.12L2936.22,96.63L2943.66,39.64L2944.19,32.99L3040.88,112.01L3044.59,71.91L3045.13,67.31L3086.03,106.36L3100.91,48.28L3106.22,58.5L3106.75,58.37L3118.44,46.15L3129.06,117.51L3129.59,124.21L3225.75,34.86L3228.94,55.35L3229.47,64.99L3277.28,15.34L3292.69,88.61L3294.28,82.47L3294.81,74.91L3354.84,25.29L3364.41,30.52L3364.94,32.77L3395.75,98.74L3405.31,43.38L3405.84,38.25L3447.28,111.64L3472.25,42.69L3472.78,38.95L3495.09,138.41L3507.31,47.81L3507.84,41.76L3543.44,113.28L3543.97,123.03L3611.44,14.78L3637.47,64.99L3638,70.63L3650.75,93.37L3664.03,24.91L3702.28,49.67L3702.81,43.75L3751.69,66.5L3766.56,19.39L3777.19,44.08L3777.72,44.08L3796.84,74.85L3836.16,43.96L3846.25,67.77L3846.78,78.26L3859,103.9L3919.56,29.6L3927,46.82L3927.53,45.74L3950.38,84.34L3992.88,13.54L3997.66,70.67L3998.19,78.48L4042.28,27.29L4056.63,124.2L4090.63,85.56L4091.16,88.86L4106.03,120.6L4122.5,41.5L4174.56,82.27L4175.09,82.35L4236.72,51.62L4241.5,41.42L4242.03,38.35L4307.38,79.67L4332.88,47.48L4333.41,41.42L4451.88,10.67L4452.41,11.62L4452.94,27.42L4473.66,9.34L4513.5,89.8L4544.84,44.07L4545.38,44.07L4567.69,92.45L4625.59,15.66L4626.13,10.41L4717.5,77.46L4747.25,42.1L4747.78,37.72L4767.44,80.41L4832.78,6.41L4845,36.4L4845.53,37.52L4866.25,76.27L4958.69,4.43L4964.53,35.51L4965.06,36.96L4985.25,1.02L5022.97,76.26L5060.16,7.94L5060.69,-0.37L5125.5,112.13L5164.81,7.49L5165.34,7.49L5282.22,81.85L5302.41,50.08L5302.94,47.92L5419.28,-0.32L5424.59,27.83L5425.13,33.59L5445.31,15.96L5480.91,120.82L5539.88,71.17L5540.41,66.91L5651.44,23.79L5657.28,37.06L5657.81,37.06L5686.5,80.68L5787.97,22.1L5791.69,36.54L5792.22,60.65L5800.72,25.67L5893.69,108.17L5909.09,52.75L5909.63,52.75L5942.56,95.68L6033.41,55.48L6045.63,94.99L6046.16,98.51L6183.22,9.74L6199.69,42.71L6200.22,43.36L6260.78,3.87L6329.31,39.87L6329.84,40.2L6464.25,71.96L6487.09,37.37L6487.63,24.57L6604.5,83.2L6641.16,31.84L6641.69,27.51L6758.03,60.7L6783.53,44.2L6784.06,44.2L6958.84,126.84L6991.78,60.63L6992.31,52.88L7062.97,96.57L7124.06,25.96L7142.66,44.91L7143.19,48.71L7192.59,89.3L7278.66,27.66L7289.81,63.88L7290.34,62.74L7476.28,115.49L7494.88,49.67L7495.41,46.05L7497,45.915089799677624L7497,77.32" style="vector-effect: non-scaling-stroke; fill: none; stroke: rgb(55, 128, 191); stroke-opacity: 1; stroke-width: 1.3px; opacity: 1;"/></g><g class="points"/><g class="text"/></g><g class="trace scatter trace1fca60" style="stroke-miterlimit: 2; opacity: 1;"><g class="fills"/><g class="errorbars"/><g class="lines"><path class="js-line" d="M-5225.91,51.56L-5215.28,0.94L-5177.56,81.9L-5117,36.96L-5116.47,33.92L-4969.84,56.81L-4960.28,6.09L-4959.75,3.99L-4842.87,78.12L-4839.16,56.7L-4838.62,47.57L-4819.5,67.31L-4806.22,2.52L-4738.22,54.08L-4737.69,56.91L-4630.91,36.85L-4628.78,27.51L-4628.25,26.25L-4567.16,35.81L-4560.78,82.85L-4560.25,99.54L-4508.72,146.37L-4495.97,53.66L-4465.16,96.81L-4464.62,119.07L-4442.31,43.26L-4410.44,156.45L-4364.75,81.8L-4364.22,90.3L-4346.69,49.04L-4310.03,135.98L-4275.5,58.8L-4274.97,58.59L-4210.16,84.95L-4193.69,10.29L-4181.47,36.85L-4180.94,39.69L-4149.06,67.72L-4115.59,28.88L-4107.09,79.17L-4106.56,85.79L-4040.69,30.87L-4031.12,87.05L-4030.59,87.57L-3997.12,142.27L-3961.53,8.4L-3948.78,36.96L-3948.25,30.66L-3897.78,84.32L-3887.69,6.51L-3868.03,46.1L-3867.5,46.83L-3847.31,93.77L-3836.16,7.03L-3794.72,83.27L-3794.19,84.21L-3785.69,10.6L-3748.5,159.92L-3716.62,105.32L-3716.09,101.85L-3697.5,193.05L-3679.97,39.59L-3643.84,144.48L-3643.31,148.26L-3557.78,19.85L-3548.22,67.62L-3547.69,72.35L-3479.16,9.77L-3465.34,40.95L-3464.81,41.79L-3455.78,35.18L-3387.25,112.35L-3380.87,88.41L-3380.34,80.01L-3348.47,66.05L-3339.44,112.98L-3312.34,70.04L-3311.81,64.89L-3296.94,52.56L-3284.19,131.49L-3266.66,122.43L-3266.12,133.98L-3234.25,177.6L-3231.59,78.9L-3214.06,86.1L-3213.53,82.11L-3183.25,156.03L-3152.44,31.82L-3146.59,93.77L-3146.06,89.99L-3097.72,10.6L-3087.09,147.42L-3080.19,117.08L-3079.66,119.28L-3033.97,14.28L-3007.41,39.27L-3006.87,40.74L-2962.78,93.24L-2962.25,113.3L-2930.37,153.99L-2917.09,35.81L-2909.12,56.91L-2908.59,56.39L-2892.66,18.9L-2885.22,101.85L-2880.44,102.06L-2879.91,113.51L-2877.78,115.5L-2813.5,22.68L-2811.37,30.56L-2810.84,31.82L-2792.78,15.96L-2776.84,100.28L-2754,42L-2753.47,39.38L-2726.91,85.26L-2690.78,25.73L-2687.59,39.59L-2687.06,43.16L-2661.03,33.18L-2626.5,116.49L-2625.44,111.29L-2624.91,112.08L-2590.37,43.79L-2578.16,103.32L-2577.62,103.98L-2574.97,115.11L-2539.91,28.77L-2539.37,26.57L-2522.91,85.26L-2492.62,34.13L-2492.09,33.92L-2472.44,77.7L-2458.09,21.42L-2438.97,33.39L-2438.44,33.39L-2425.69,120.12L-2385.84,50.51L-2385.31,44.63L-2366.72,90.2L-2340.69,45.26L-2340.16,44.42L-2315.19,75.5L-2304.03,19.63L-2289.16,41.27L-2288.62,43.68L-2265.78,115.2L-2257.28,60.69L-2256.75,52.19L-2219.03,98.1L-2208.41,53.61L-2207.87,53.69L-2181.84,20.48L-2168.03,88.31L-2167.5,95.03L-2151.56,20.79L-2122.34,93.77L-2121.81,97.97L-2119.16,123.06L-2081.97,37.8L-2081.44,34.55L-2078.25,21.42L-2064.44,127.58L-2043.19,76.76L-2042.66,75.6L-2035.75,86.1L-1977.31,7.14L-1972.53,17.64L-1972,21.63L-1961.91,0.52L-1934.28,44.42L-1928.97,39.9L-1928.44,36.75L-1913.03,86.42L-1912.5,91.35L-1904.53,33.49L-1886.47,128.52L-1870,104.55L-1869.47,101.31L-1858.84,143.49L-1844.5,36.54L-1832.28,39.17L-1831.75,38.22L-1823.25,7.98L-1813.69,91.14L-1813.16,99.85L-1808.37,135.56L-1794.56,13.02L-1775.44,103.95L-1774.91,99.96L-1762.16,133.04L-1750.47,91.98L-1739.31,111.62L-1738.78,113.19L-1722.31,99.85L-1708.5,159.81L-1699.47,128.94L-1698.94,117.18L-1671.31,25.62L-1660.69,58.7L-1660.16,77.91L-1658.03,91.25L-1640.5,11.02L-1630.94,38.53L-1630.41,36.44L-1620.84,15.85L-1615,58.59L-1614.47,64.58L-1607.03,126.32L-1593.75,40.01L-1593.22,32.97L-1591.09,26.35L-1567.72,58.7L-1567.19,63.84L-1545.41,112.44L-1539.56,68.57L-1539.03,63L-1511.94,101.97L-1509.28,59.66L-1508.75,45.54L-1500.25,131.54L-1488.56,26.04L-1476.87,42.74L-1476.34,45.36L-1467.31,36.85L-1466.25,66.99L-1465.72,86.52L-1450.31,118.97L-1443.94,35.07L-1441.28,38.74L-1440.75,35.6L-1413.66,13.75L-1411,30.98L-1410.47,40.85L-1403.03,74.66L-1390.81,5.67L-1381.78,30.14L-1381.25,26.57L-1346.19,82.32L-1341.41,45.89L-1340.87,39.59L-1334.5,20.9L-1315.37,47.67L-1314.84,48.41L-1297.31,119.7L-1292,74.24L-1291.47,66.99L-1261.72,28.56L-1260.12,35.07L-1259.59,33.28L-1243.66,42.63L-1233.03,25.41L-1232.5,24.67L-1195.31,77.91L-1191.06,61.11L-1190.53,55.34L-1185.75,28.46L-1165.03,46.1L-1164.5,45.78L-1156,34.34L-1146.44,93.87L-1145.91,100.59L-1129.44,28.14L-1119.87,42L-1119.34,42.84L-1100.75,8.08L-1098.09,29.61L-1097.56,41.69L-1093.31,59.64L-1082.69,18.17L-1074.72,34.44L-1074.19,37.07L-1057.19,19.22L-1047.09,74.24L-1046.03,69.61L-1045.5,63.32L-1042.31,77.7L-1030.62,23L-1030.09,20.9L-997.69,69.93L-997.16,74.76L-996.09,79.49L-984.94,37.28L-983.87,39.06L-983.34,35.39L-977.5,16.38L-966.34,45.57L-963.16,37.91L-962.62,39.9L-957.31,21.53L-946.69,77.07L-946.16,82.01L-934.47,12.92L-927.56,43.26L-927.03,53.03L-925.97,36.02L-917.47,100.28L-908.44,70.56L-907.91,72.66L-904.72,62.9L-889.31,144.06L-883.47,108.78L-882.94,102.8L-863.28,133.56L-861.69,130.31L-861.16,122.22L-853.72,98.49L-848.41,136.37L-842.03,131.34L-841.5,129.36L-837.78,152.66L-826.09,94.82L-825.56,97.55L-825.03,84.11L-806.97,53.55L-803.25,62.37L-802.72,64.05L-800.59,58.28L-784.12,153.64L-782,99.78L-781.47,89L-775.09,42.11L-764.47,64.05L-763.94,66.15L-757.03,55.86L-749.59,91.14L-747.47,76.85L-746.94,69.91L-742.16,104.94L-734.72,61.1L-732.59,67.62L-732.06,58.55L-722.5,29.92L-715.59,40.53L-715.06,40.64L-708.16,65.41L-704.97,47.46L-704.44,39.8L-696.47,14.38L-690.09,35.91L-689.56,38.43L-684.25,123.27L-678.41,59.54L-677.87,52.19L-670.97,31.4L-663,47.15L-662.47,47.99L-650.25,28.25L-649.19,49.35L-648.66,60.38L-640.69,131.25L-633.25,91.46L-632.72,82.53L-630.06,54.71L-620.5,92.4L-619.97,93.14L-616.78,89.57L-605.62,117.92L-603.5,104.27L-602.97,100.17L-592.34,44.63L-588.62,82.74L-588.09,88.31L-587.56,94.92L-577.47,60.48L-576.94,57.44L-568.44,32.45L-561,38.53L-560.47,40.95L-550.37,24.99L-549.84,20.48L-531.25,84.53L-529.12,73.4L-528.59,70.46L-517.97,25.2L-513.19,36.12L-512.66,36.85L-497.78,38.64L-497.25,36.02L-496.72,33.07L-478.66,90.3L-477.06,81.69L-476.53,76.23L-465.37,43.89L-462.19,50.72L-461.66,51.87L-460.59,55.65L-453.69,46.2L-452.62,46.83L-452.09,47.25L-444.66,56.7L-444.12,59.64L-429.78,123.59L-429.25,120.44L-428.72,117.6L-414.91,32.34L-410.12,43.36L-409.59,45.05L-404.28,50.09L-401.09,42.42L-400.56,40.22L-393.12,15.85L-389.94,28.46L-389.41,30.03L-378.25,89.67L-375.59,75.18L-375.06,67.2L-364.44,25.73L-361.78,36.23L-361.25,39.06L-355.94,49.35L-352.22,45.05L-351.69,46.31L-350.09,48.2L-348.5,41.27L-347.97,36.85L-343.72,29.92L-342.12,38.74L-341.59,41.27L-326.19,113.19L-324.06,99.33L-323.53,93.77L-312.91,32.97L-308.66,40.85L-308.12,42.21L-294.84,31.92L-294.31,34.86L-293.78,39.8L-285.81,75.71L-285.28,68.57L-284.75,66.78L-278.37,95.97L-276.25,93.24L-275.72,88.52L-267.75,38.53L-267.22,32.45L-266.69,34.55L-265.09,21.95L-262.97,25.2L-262.44,25.41L-251.28,47.99L-249.69,42.21L-249.16,39.17L-248.62,40.64L-247.03,35.18L-244.91,36.85L-244.37,35.07L-242.25,22.26L-239.06,30.35L-238.53,37.28L-236.94,28.14L-235.34,46.73L-234.81,64.36L-230.56,73.19L-229.5,65.31L-228.97,60.27L-225.25,79.8L-223.66,65.94L-223.12,56.81L-214.09,12.81L-213.56,11.87L-208.25,24.89L-207.72,28.25L-199.75,33.18L-199.22,31.08L-197.62,32.66L-195.5,28.67L-194.97,25.1L-189.12,19.63L-188.59,21.95L-177.97,82.32L-176.91,77.91L-176.37,76.44L-175.31,76.97L-174.25,72.97L-173.72,72.56L-173.19,73.5L-172.66,71.4L-166.28,18.38L-165.22,21.63L-164.69,23.21L-157.25,35.18L-156.72,39.17L-153.53,49.04L-151.94,45.47L-151.41,44.94L-150.87,46.52L-149.28,42.42L-148.75,42.74L-148.22,41.48L-147.16,38.53L-145.56,44.52L-145.03,46.94L-140.78,36.96L-140.25,30.98L-139.19,30.24L-138.66,22.37L-133.87,76.65L-132.81,64.05L-132.28,50.61L-130.16,16.07L-128.03,25.62L-127.5,31.4L-126.44,29.3L-125.91,33.07L-125.37,44.21L-122.72,66.78L-121.66,63.32L-121.12,57.33L-117.94,38.64L-117.41,42.42L-116.87,42.63L-113.16,34.76L-112.62,36.33L-106.78,53.45L-105.19,50.09L-104.66,54.08L-103.59,58.8L-102.53,52.29L-102,49.56L-100.94,48.93L-95.62,56.07L-95.09,54.18L-90.84,57.33L-90.31,55.86L-88.19,59.01L-87.66,57.54L-87.12,57.44L-86.06,56.7L-84.47,63.54L-83.94,68.47L-82.87,73.92L-82.34,80.67L-79.69,93.53L-79.16,92.51L-78.09,104.82L-77.56,103.83L-77.03,103.98L-74.91,116.3L-73.84,114.81L-73.31,114.09L-70.66,108.65L-70.12,102.92L-65.34,57.86L-64.81,57.65L-60.03,39.69L-59.5,38.64L-58.44,35.81L-57.91,34.34L-55.78,41.48L-55.25,44L-51.53,49.14L-51,46.94L-48.87,42.63L-48.34,43.36L-47.28,47.36L-46.75,45.05L-46.22,44.84L-44.62,44.31L-44.09,40.64L-40.91,25.31L-40.37,24.89L-38.25,24.05L-37.72,25.62L-30.81,73.71L-30.28,72.97L-27.62,82.22L-27.09,80.85L-26.56,79.49L-26.03,78.65L-25.5,79.91L-24.97,79.8L-23.91,76.13L-23.37,78.22L-22.84,76.65L-21.25,77.7L-20.72,77.07L-18.06,59.75L-17.53,57.33L-14.87,42L-14.34,38.53L-12.75,29.61L-12.22,28.25L-11.69,27.62L-11.16,25.1L-10.62,24.47L-10.09,22.05L-8.5,22.26L-7.97,21.1L-7.44,18.9L-6.91,19.85L-6.37,20.79L-4.25,27.41L-3.72,26.57L-2.66,26.67L-2.12,27.83L-0.53,30.98L0,31.92L1.06,31.4L1.59,32.76L2.13,33.49L2.66,31.82L3.19,32.66L3.72,31.92L4.25,32.03L4.78,30.98L5.31,32.13L5.84,31.29L6.38,31.29L6.91,32.13L7.44,31.5L7.97,28.88L11.69,17.43L12.22,17.64L13.28,18.38L13.81,17.53L15.41,25.31L15.94,34.34L17.53,53.13L18.06,54.39L21.25,66.68L21.78,60.17L23.38,74.13L23.91,74.44L24.44,71.3L24.97,72.24L25.5,72.66L26.03,72.24L26.56,73.82L27.63,71.61L28.16,69.19L29.22,68.99L29.75,70.67L30.81,64.79L31.34,65.73L31.88,57.75L32.41,59.22L32.94,55.02L34,37.91L34.53,38.01L35.06,39.27L37.72,23.63L38.25,22.16L40.91,16.8L41.44,16.17L41.97,16.07L42.5,17.43L44.09,20.06L44.63,19L45.69,20.9L46.22,22.26L47.28,25.2L47.81,25.83L50.47,34.23L51,34.55L52.59,33.39L53.13,32.97L54.19,47.88L54.72,46.94L57.38,40.85L57.91,34.34L58.44,34.76L58.97,32.13L59.5,33.07L60.03,31.71L60.56,27.62L61.09,29.61L61.63,29.08L62.16,25.73L64.28,23.42L64.81,28.14L66.41,35.49L66.94,40.11L68.53,48.83L69.06,51.66L70.66,57.54L71.19,55.55L71.72,58.91L72.25,55.34L72.78,57.44L73.31,52.08L74.38,71.08L74.91,70.46L75.44,68.57L77.03,75.5L77.56,72.77L79.16,73.71L79.69,73.08L80.75,73.19L81.28,73.08L81.81,72.14L82.34,68.36L87.66,28.46L88.19,26.35L90.84,17.12L91.38,17.64L91.91,17.53L92.44,16.59L92.97,14.28L93.5,15.12L94.03,16.49L95.09,16.07L95.63,16.91L96.69,18.8L97.22,21L97.75,21.63L98.28,23.73L98.81,23.52L99.34,24.67L100.41,27.09L100.94,27.09L102,29.5L102.53,29.4L103.59,30.14L104.13,30.98L105.19,29.92L105.72,30.14L108.38,31.71L108.91,30.98L109.97,29.19L110.5,29.4L111.03,29.4L111.56,27.83L113.69,19.85L114.22,20.37L114.75,22.68L115.81,25.93L116.34,30.45L116.88,30.87L117.41,32.55L117.94,35.07L118.47,44.73L121.66,61.22L122.19,60.69L122.72,60.48L123.25,58.8L124.31,57.75L124.84,60.48L126.97,70.98L127.5,70.56L128.56,67.41L129.09,72.45L129.63,79.17L130.16,76.33L130.69,75.92L131.22,73.29L131.75,70.46L132.28,74.66L132.81,73.5L133.34,69.72L133.88,62.16L134.41,62.37L134.94,59.22L136,43.47L136.53,43.68L137.06,51.45L140.78,26.57L141.31,24.57L144.5,14.49L145.03,14.7L145.56,13.44L146.09,14.6L148.22,19.42L148.75,21.21L149.28,21L149.81,22.58L153,27.93L153.53,28.14L154.06,27.72L154.59,29.3L155.66,31.82L156.19,36.02L157.25,39.59L157.78,36.65L158.84,32.45L159.38,36.54L159.91,37.28L160.44,33.81L162.03,30.98L162.56,28.67L163.63,28.77L164.16,25.73L165.75,21.32L166.28,17.12L166.81,16.7L167.34,20.06L169.47,34.44L170,45.99L172.13,62.27L172.66,63.74L173.19,66.57L173.72,63.63L174.78,76.33L175.31,67.2L175.84,67.62L176.38,60.9L177.44,65.21L177.97,72.14L178.5,72.03L179.03,61.32L179.56,61.85L180.09,73.29L180.63,73.82L181.16,76.97L181.69,78.54L182.22,76.13L182.75,72.97L183.28,75.6L184.88,51.03L185.41,53.45L185.94,47.57L186.47,38.43L187,41.06L187.53,40.53L188.06,45.99L188.59,45.47L189.13,42.32L190.72,27.83L191.25,30.56L191.78,29.5L192.31,32.13L192.84,31.29L193.38,26.35L194.44,23.52L194.97,28.88L196.03,32.76L196.56,30.77L198.16,25.41L198.69,27.3L199.75,33.07L200.28,32.03L200.81,32.24L201.34,31.08L202.41,33.18L202.94,33.07L204.53,37.38L205.06,35.91L205.59,36.12L206.13,38.85L207.19,40.53L207.72,43.36L208.78,49.56L209.31,45.36L209.84,44.42L210.38,45.47L210.91,42.84L211.44,44.52L211.97,44L212.5,45.05L213.03,43.47L213.56,47.15L214.09,47.67L214.63,52.4L215.69,54.92L216.22,55.65L216.75,58.17L217.28,67.83L217.81,67.83L218.34,79.38L218.88,79.17L219.41,75.5L219.94,75.71L220.47,88.73L221,97.34L221.53,94.4L222.06,93.24L222.59,95.76L223.13,110.35L224.72,110.88L225.25,107.84L226.31,106.26L226.84,115.4L227.91,128.2L228.44,122.85L229.5,120.44L230.03,127.79L231.63,155.51L232.16,155.72L234.28,121.17L234.81,122.64L235.34,119.91L238,84.32L238.53,85.16L239.06,83.58L243.31,50.82L243.84,54.39L244.38,52.71L244.91,47.67L245.44,45.15L245.97,48.3L247.03,45.57L247.56,40.74L248.09,42.21L248.63,46.41L249.16,46.52L249.69,45.57L250.22,44.21L250.75,45.99L251.28,46.41L251.81,48.72L253.41,54.5L253.94,52.4L255,53.03L255.53,52.4L257.13,48.51L257.66,49.25L259.78,53.76L260.31,52.61L261.38,52.61L261.91,51.66L262.97,53.76L263.5,52.08L264.03,52.92L264.56,51.66L265.63,52.08L266.16,51.98L270.41,71.61L270.94,75.6L271.47,78.54L272,77.81L272.53,85.79L273.06,86.73L273.59,90.51L274.13,90.72L274.66,93.98L276.25,98.49L276.78,97.97L277.84,101.75L278.38,103.85L281.03,112.35L281.56,111.72L282.09,111.51L282.63,110.15L284.22,105.63L284.75,104.27L285.28,104.37L285.81,101.01L289.53,68.88L290.06,65.21L292.72,42.63L293.25,40.43L295.38,28.14L295.91,27.72L296.44,26.99L296.97,27.72L298.56,23.1L299.09,24.25L299.63,24.36L300.16,25.41L302.81,31.6L303.34,32.66L306,36.44L306.53,36.65L307.06,36.44L307.59,39.59L309.19,44L309.72,42.63L310.25,41.48L310.78,42.32L311.84,38.32L312.38,38.85L313.97,37.8L314.5,35.81L315.56,33.18L316.09,33.07L316.63,33.07L317.16,31.5L317.69,31.92L318.22,35.7L318.75,35.07L319.28,39.48L324.59,85.47L325.13,88.52L326.19,94.4L326.72,104.79L327.25,100.59L327.78,111.3L328.84,99.75L329.38,102.38L329.91,101.96L330.44,106.79L332.03,95.03L332.56,93.35L333.09,97.86L333.63,96.71L334.16,95.55L335.75,101.54L336.28,98.49L336.81,104.48L337.34,97.23L337.88,93.66L338.41,70.56L340,47.88L340.53,48.41L342.13,34.44L342.66,25.83L343.19,27.72L343.72,24.25L344.78,17.75L345.31,17.64L345.84,25.52L346.38,24.36L346.91,26.88L347.44,30.35L347.97,29.61L348.5,27.62L350.09,27.2L350.63,28.25L351.16,28.03L351.69,31.92L352.75,39.9L353.28,39.27L353.81,37.8L354.34,38.32L354.88,34.55L355.94,35.39L356.47,34.02L357.53,34.55L358.06,35.7L358.59,39.8L359.13,39.27L359.66,35.81L360.19,33.07L360.72,33.39L361.25,34.86L362.84,31.29L363.38,32.03L367.09,20.06L367.63,19.95L368.16,17.75L368.69,19.32L369.22,21.53L369.75,16.17L370.28,20.48L370.81,26.15L372.41,34.34L372.94,38.96L374,39.59L374.53,42.95L375.59,44.52L376.13,45.26L376.66,48.09L377.19,45.99L377.72,46.83L379.84,68.57L380.38,65.41L381.97,72.97L382.5,70.04L383.03,71.19L383.56,67.72L384.09,72.45L384.63,69.51L385.16,71.3L385.69,67.62L386.75,68.25L388.34,63.63L388.88,59.64L396.31,16.17L396.84,16.8L398.97,13.02L399.5,13.86L400.03,15.12L406.41,34.55L406.94,34.13L410.13,42.21L410.66,40.43L411.19,39.8L412.25,40.53L412.78,39.38L413.31,37.59L414.38,40.74L414.91,38.32L417.56,36.44L418.09,34.13L420.22,18.9L420.75,24.67L421.28,27.62L421.81,27.93L422.34,34.55L426.06,49.98L426.59,50.93L431.38,67.52L431.91,66.36L432.44,65.52L433.5,67.72L434.03,67.72L436.69,64.58L437.22,67.62L438.28,75.71L439.34,69.3L439.88,63.63L447.31,20.79L447.84,18.9L448.91,20.27L449.97,19.32L450.5,20.9L455.28,31.71L455.81,32.13L458.47,39.59L460.06,36.65L460.59,35.39L463.25,35.6L463.78,33.28L466.97,35.6L467.5,34.23L468.03,30.66L470.69,17.43L472.28,19.74L472.81,20.48L479.72,74.03L480.25,73.5L480.78,77.28L481.31,61.43L481.84,42.74L482.38,58.07L483.44,43.05L483.97,46.31L484.5,44L485.03,61.53L486.09,83.16L486.63,78.54L487.69,45.89L488.22,60.59L488.75,77.39L489.81,113.19L490.34,94.82L491.41,52.61L491.94,55.23L493.53,36.75L495.66,39.59L496.19,44.42L497.25,45.05L497.78,34.97L500.97,16.91L503.09,18.06L503.63,23.63L504.69,23.21L508.41,26.99L508.94,27.2L515.84,28.03L516.38,28.98L520.63,16.07L521.16,11.66L523.81,0.52L524.88,7.88L525.41,11.13L527.53,52.61L530.19,29.82L530.72,25.52L533.91,70.98L534.97,51.98L535.5,49.25L536.03,50.82L536.56,67.83L542.41,112.04L542.94,98.39L544.53,81.06L545.06,55.76L547.19,59.96L549.84,6.19L551.44,14.81L551.97,24.67L557.81,38.43L558.34,38.32L559.41,34.97L563.13,39.38L563.66,38.74L573.75,55.86L574.28,66.89L576.41,55.97L578.53,75.29L579.06,78.12L581.19,72.56L583.31,84.32L583.84,82.43L584.38,81.8L592.34,32.66L592.88,30.87L595,26.67L596.06,33.71L596.59,42.42L598.19,34.65L601.38,45.78L602.44,38.74L602.97,40.53L610.41,65.1L610.94,75.08L614.13,56.18L615.19,81.69L615.72,84.42L618.91,97.65L623.16,41.37L623.69,46.83L624.22,62.69L626.34,111.72L631.13,90.8L631.66,89.75L633.25,96.12L634.84,81.69L635.38,81.91L636.97,99.71L642.81,51.78L643.88,62.82L644.41,65.22L652.91,34.44L653.44,35.49L654.5,34.44L656.09,42L656.63,42.95L664.59,71.08L667.25,61.85L667.78,53.24L671.5,62.16L675.75,48.83L676.28,53.55L680,60.17L681.59,57.44L682.13,47.15L684.25,41.79L692.22,85.26L693.28,72.77L693.81,58.7L695.94,56.07L697.53,69.19L700.19,56.6L700.72,48.93L701.78,50.61L709.75,28.25L710.28,42.63L717.19,58.49L718.25,40.43L718.78,41.9L719.84,50.3L724.63,30.14L725.16,25.2L725.69,19.22L730.47,54.6L731,58.8L736.31,89.46L740.03,63.11L740.56,62.27L742.69,84L748,47.25L748.53,42.74L757.56,25.62L759.69,29.3L760.22,31.29L761.81,45.26L769.78,38.32L770.31,36.96L779.34,9.45L780.41,19.11L780.94,27.09L788.91,24.47L789.44,27.62L789.97,36.23L795.81,65.1L797.94,27.83L799,29.3L799.53,29.72L801.13,36.54L805.91,25.52L806.44,24.05L813.34,36.75L813.88,38.32L824.5,27.93L825.03,26.15L827.16,19.11L833.53,30.24L834.06,34.97L845.22,62.79L847.34,58.91L847.88,56.6L860.09,18.9L861.69,25.1L862.22,26.25L872.84,42.95L876.03,32.66L876.56,29.4L881.88,14.91L886.66,45.57L887.19,44.94L891.44,64.58L902.06,10.82L902.59,11.24L918,36.65L920.13,36.12L920.66,36.44L934.47,51.77L935,58.49L938.72,54.92L947.75,89.57L950.41,69.09L950.94,50.61L954.66,57.12L958.91,37.59L964.22,45.99L964.75,49.77L966.34,44.73L972.19,55.23L977.5,53.66L978.03,54.29L992.38,131.57L1001.41,116.45L1001.94,108.26L1015.75,34.23L1020.53,50.61L1021.06,51.35L1023.19,56.18L1029.56,33.39L1030.09,37.28L1030.63,33.07L1031.69,27.41L1039.66,70.25L1040.72,67.72L1041.25,68.67L1046.03,89.99L1054,30.14L1054.53,27.62L1056.13,16.7L1065.69,39.8L1068.34,35.91L1068.88,40.11L1071.53,60.27L1083.22,31.18L1083.75,32.03L1085.34,21.1L1097.56,42.11L1098.09,51.35L1100.75,49.25L1105,70.88L1114.56,50.4L1115.09,47.46L1118.28,71.82L1131.56,38.32L1132.09,36.65L1143.25,15.54L1151.75,26.46L1152.28,27.41L1156,12.81L1165.56,31.5L1166.09,33.6L1181.5,46.73L1184.69,31.5L1185.22,30.66L1191.06,63L1201.69,41.69L1202.22,37.38L1214.44,15.43L1221.34,28.98L1221.88,30.24L1226.13,37.91L1235.16,20.16L1235.69,15.23L1245.78,66.78L1246.31,71.3L1252.16,83.9L1256.41,58.7L1256.94,51.98L1264.91,22.16L1279.25,38.12L1279.78,38.12L1292,63.95L1292.53,66.36L1302.63,91.04L1305.28,50.93L1305.81,51.56L1306.34,48.93L1310.59,55.02L1339.81,43.05L1340.34,46.83L1351.5,78.22L1361.06,42.42L1361.59,37.8L1365.31,20.06L1384.97,27.09L1385.5,27.93L1393.47,6.3L1397.19,60.59L1397.72,65.94L1399.84,67.31L1417.91,9.87L1426.94,36.85L1427.47,38.74L1444.47,59.43L1445,73.4L1448.19,48.72L1452.44,155.4L1467.31,83.69L1467.84,70.88L1468.91,80.22L1489.63,30.56L1490.16,29.08L1507.69,103.74L1515.66,43.05L1516.19,42.32L1520.44,15.75L1543.28,24.47L1543.81,25.1L1558.16,83.37L1569.31,18.8L1569.84,22.16L1582.06,32.45L1601.72,18.17L1602.25,22.26L1602.78,31.4L1608.09,68.67L1622.44,21.42L1629.88,33.92L1630.41,33.81L1658.03,92.51L1667.59,64.26L1668.13,59.54L1675.56,37.91L1696.28,63.53L1696.81,67.72L1710.09,95.45L1717,37.17L1721.25,45.89L1721.78,36.44L1746.75,14.17L1752.59,33.6L1753.13,44.42L1761.09,72.14L1775.44,15.33L1785,37.38L1785.53,37.7L1816.34,45.68L1822.72,17.64L1823.25,14.49L1889.13,114.35L1900.81,93.14L1901.34,89.46L1917.81,122.22L1931.09,56.91L1939.59,60.69L1940.13,65.94L1940.66,72.97L1952.34,39.48L1975.19,69.93L1975.72,68.36L1989,45.68L2006.53,79.07L2007.06,85.68L2013.44,116.55L2032.03,39.17L2039.47,53.03L2040,53.86L2064.44,115.19L2077.19,54.92L2077.72,51.77L2084.09,27.62L2113.31,69.61L2113.84,71.61L2118.63,93.03L2130.84,33.6L2145.19,45.89L2145.72,40.01L2153.69,25.62L2165.38,76.23L2166.97,73.92L2167.5,75.81L2171.75,82.43L2181.31,26.99L2181.84,26.67L2182.38,25.52L2219.03,81.9L2228.59,39.17L2229.13,38.53L2256.22,27.72L2263.13,65.1L2263.66,64.89L2264.19,70.04L2268.97,90.09L2285.44,31.6L2300.84,44.73L2301.38,41.79L2324.22,74.55L2335.38,30.98L2343.88,46.1L2344.41,46.52L2370.97,120.54L2379.47,63.42L2380,59.11L2393.28,42.53L2402.31,91.14L2417.72,65.63L2418.25,90.51L2418.78,115.29L2440.56,34.65L2461.81,43.89L2462.34,44.94L2469.78,85.26L2489.97,32.55L2508.03,42.84L2508.56,42.74L2526.09,97.65L2556.38,55.23L2556.91,53.34L2562.75,35.91L2570.19,107.31L2574.44,100.49L2574.97,122.43L2610.03,53.03L2617.47,136.19L2618,147.74L2629.16,160.76L2641.38,74.66L2641.91,67.2L2676.44,91.67L2685.47,26.35L2697.16,48.41L2697.69,51.66L2727.97,149.94L2748.16,60.69L2748.69,59.01L2768.34,48.93L2780.03,91.77L2780.56,97.76L2819.34,45.15L2834.75,95.66L2835.28,102.8L2847.5,35.18L2892.66,42.74L2893.19,39.8L2937.28,95.97L2947.91,42.84L2948.44,40.74L2980.31,81.48L3016.97,53.97L3017.5,50.72L3041.94,109.73L3048.31,54.6L3048.84,48.09L3084.44,119.39L3115.25,55.23L3115.78,54.29L3139.16,175.35L3149.78,75.18L3150.31,67.72L3189.09,131.46L3192.81,24.15L3200.78,29.19L3201.31,28.03L3242.75,92.3L3271.97,33.71L3272.5,31.4L3344.75,84.11L3347.94,65.63L3348.47,52.29L3354.31,20.9L3395.22,141.96L3413.28,50.72L3413.81,51.66L3430.81,49.67L3439.31,100.17L3439.84,116.66L3460.56,33.92L3497.75,125.79L3501.47,91.25L3502,75.71L3529.09,32.34L3548.22,157.61L3564.69,106.68L3565.22,108.36L3634.81,14.91L3640.66,63.74L3641.19,80.43L3737.88,13.55L3741.06,29.19L3741.59,30.87L3761.78,16.59L3799.5,69.61L3816.5,32.45L3817.03,32.76L3904.16,115.4L3911.06,61.22L3911.59,57.44L3954.09,72.03L3989.69,8.61L3991.28,11.02L3991.81,12.08L4055.56,96.29L4076.81,70.25L4077.34,60.9L4118.78,40.22L4150.13,128.83L4160.22,97.55L4160.75,89.78L4247.88,27.51L4248.94,32.87L4249.47,40.11L4261.69,85.37L4322.25,15.96L4332.88,40.22L4333.41,35.07L4426.38,-0.94L4437.53,27.51L4438.06,27.62L4464.09,55.34L4502.34,22.16L4510.84,64.36L4511.38,75.29L4527.31,25.52L4564.5,92.09L4594.78,35.39L4595.31,34.55L4613.91,62.37L4680.84,-1.58L4690.41,32.03L4690.94,30.77L4716.97,72.35L4806.22,1.89L4809.41,12.18L4809.94,15.43L4828,-4.62L4923.09,81.06L4923.63,80.75L4924.16,76.65L5038.38,7.56L5038.91,8.72L5126.03,91.46L5159.5,22.05L5160.03,18.06L5276.91,101.01L5314.63,13.75L5315.16,8.08L5343.31,-3.57L5429.91,88.1L5440.53,53.45L5441.06,47.25L5519.16,15.75L5536.16,140.39L5552.09,40.01L5552.63,40.64L5676.41,14.28L5688.63,82.43L5689.16,88.1L5783.19,3.05L5794.34,98.28L5804.97,83.06L5805.5,90.51L5930.34,30.98L5938.31,66.26L5938.84,86.73L5968.59,123.69L6055.72,4.2L6064.75,49.04L6065.28,49.88L6095.03,123.59L6236.34,-0.84L6239,14.81L6239.53,16.49L6257.06,5.56L6346.84,71.72L6370.22,56.39L6370.75,51.56L6403.69,87.15L6511,0.11L6522.69,27.72L6523.22,34.76L6538.09,17.33L6599.72,107.84L6660.81,42.53L6661.34,35.49L6781.94,54.39L6797.88,16.59L6798.41,14.7L6911.56,134.19L6952.47,105L6953,97.76L6961.5,128.1L7023.66,24.99L7089.53,56.91L7090.06,56.49L7206.94,28.14L7243.59,52.82L7244.13,54.18L7321.69,112.67L7384.91,32.87L7394.47,50.51L7399.25,55.34L7470.44,134.51L7497,101.92385609267072L7497,73.5" style="vector-effect: non-scaling-stroke; fill: none; stroke: rgb(255, 0, 0); stroke-opacity: 1; stroke-width: 1.3px; opacity: 1;"/></g><g class="points"/><g class="text"/></g></g></g><g class="overplot"/><path class="xlines-above crisp" d="M0,0" style="fill: none;"/><path class="ylines-above crisp" d="M0,0" style="fill: none;"/><g class="overlines-above"/><g class="xaxislayer-above"><g class="xtick"><text text-anchor="middle" x="0" y="181" transform="translate(43,0)" style="font-family: 'Open Sans', verdana, arial, sans-serif; font-size: 12px; fill: rgb(42, 63, 95); fill-opacity: 1; white-space: pre; opacity: 1;"><tspan class="line" dy="0em" x="0" y="181">Jun 8</tspan><tspan class="line" dy="1.3em" x="0" y="181">2021</tspan></text></g><g class="xtick"><text text-anchor="middle" x="0" y="181" style="font-family: 'Open Sans', verdana, arial, sans-serif; font-size: 12px; fill: rgb(42, 63, 95); fill-opacity: 1; white-space: pre; opacity: 1;" transform="translate(145,0)">Jun 10</text></g><g class="xtick"><text text-anchor="middle" x="0" y="181" style="font-family: 'Open Sans', verdana, arial, sans-serif; font-size: 12px; fill: rgb(42, 63, 95); fill-opacity: 1; white-space: pre; opacity: 1;" transform="translate(247,0)">Jun 12</text></g><g class="xtick"><text text-anchor="middle" x="0" y="181" style="font-family: 'Open Sans', verdana, arial, sans-serif; font-size: 12px; fill: rgb(42, 63, 95); fill-opacity: 1; white-space: pre; opacity: 1;" transform="translate(349,0)">Jun 14</text></g></g><g class="yaxislayer-above"><g class="ytick"><text text-anchor="end" x="42" y="4.199999999999999" transform="translate(0,126)" style="font-family: 'Open Sans', verdana, arial, sans-serif; font-size: 12px; fill: rgb(42, 63, 95); fill-opacity: 1; white-space: pre; opacity: 1;">5</text></g><g class="ytick"><text text-anchor="end" x="42" y="4.199999999999999" style="font-family: 'Open Sans', verdana, arial, sans-serif; font-size: 12px; fill: rgb(42, 63, 95); fill-opacity: 1; white-space: pre; opacity: 1;" transform="translate(0,73.5)">0</text></g><g class="ytick"><text text-anchor="end" x="42" y="4.199999999999999" style="font-family: 'Open Sans', verdana, arial, sans-serif; font-size: 12px; fill: rgb(42, 63, 95); fill-opacity: 1; white-space: pre; opacity: 1;" transform="translate(0,21)">5</text></g></g><g class="overaxes-above"/></g></g><g class="polarlayer"/><g class="smithlayer"/><g class="ternarylayer"/><g class="geolayer"/><g class="funnelarealayer"/><g class="pielayer"/><g class="iciclelayer"/><g class="treemaplayer"/><g class="sunburstlayer"/><g class="glimages"/><defs id="topdefs-decba4"><g class="clips"/></defs><g class="layer-above"><g class="imagelayer"/><g class="shapelayer"/></g><g class="infolayer"><g class="g-gtitle"/><g class="g-xtitle"/><g class="g-ytitle" transform="translate(14.2529296875,0)"><text class="ytitle" transform="rotate(-90,-0.25312499999999716,84)" x="-0.25312499999999716" y="84" text-anchor="middle" style="font-family: 'Open Sans', verdana, arial, sans-serif; font-size: 14px; fill: rgb(42, 63, 95); opacity: 1; font-weight: normal; white-space: pre;">Load [MW]</text></g></g></svg>
